<svg xmlns="http://www.w3.org/2000/svg" xmlns:xlink="http://www.w3.org/1999/xlink" id="Layer_1" data-name="Layer 1" viewBox="0 0 1101.08 633.61"><defs><style>.cls-1{fill:url(#linear-gradient);}.cls-2{fill:url(#linear-gradient-2);}.cls-3{fill:url(#linear-gradient-3);}.cls-4{fill:url(#linear-gradient-4);}.cls-5{fill:url(#linear-gradient-5);}.cls-6{fill:url(#linear-gradient-6);}.cls-7{fill:url(#linear-gradient-7);}.cls-8{fill:#fff;}.cls-9{fill:url(#linear-gradient-8);}.cls-10{fill:url(#linear-gradient-9);}.cls-11{fill:url(#linear-gradient-10);}.cls-12{fill:url(#linear-gradient-11);}.cls-13{fill:url(#linear-gradient-12);}.cls-14{fill:url(#linear-gradient-13);}</style><linearGradient id="linear-gradient" x1="-681.88" y1="205.9" x2="-472.18" y2="205.9" gradientTransform="matrix(-1, 0, 0, 1, -115.88, 0)" gradientUnits="userSpaceOnUse"><stop offset="0.01" stop-color="#32c72a"></stop><stop offset="1" stop-color="#368e2f"></stop></linearGradient><linearGradient id="linear-gradient-2" x1="-473.99" y1="229.41" x2="-336.58" y2="229.41" xlink:href="#linear-gradient"></linearGradient><linearGradient id="linear-gradient-3" x1="-454.94" y1="219.5" x2="-435.09" y2="219.5" xlink:href="#linear-gradient"></linearGradient><linearGradient id="linear-gradient-4" x1="-451.31" y1="237.73" x2="-413.22" y2="237.73" xlink:href="#linear-gradient"></linearGradient><linearGradient id="linear-gradient-5" x1="-425.39" y1="201.06" x2="-402.87" y2="201.06" xlink:href="#linear-gradient"></linearGradient><linearGradient id="linear-gradient-6" x1="-426.29" y1="219.14" x2="-386.72" y2="219.14" xlink:href="#linear-gradient"></linearGradient><linearGradient id="linear-gradient-7" x1="-387.63" y1="200.96" x2="-373.03" y2="200.96" xlink:href="#linear-gradient"></linearGradient><linearGradient id="linear-gradient-8" x1="186.29" y1="280.24" x2="192.84" y2="559.65" gradientTransform="matrix(1, 0, 0, 1, 0, 0)" xlink:href="#linear-gradient"></linearGradient><linearGradient id="linear-gradient-9" x1="348.36" y1="276.43" x2="354.92" y2="555.84" gradientTransform="matrix(1, 0, 0, 1, 0, 0)" xlink:href="#linear-gradient"></linearGradient><linearGradient id="linear-gradient-10" x1="480.87" y1="273.32" x2="487.43" y2="552.73" gradientTransform="matrix(1, 0, 0, 1, 0, 0)" xlink:href="#linear-gradient"></linearGradient><linearGradient id="linear-gradient-11" x1="662.49" y1="269.06" x2="669.05" y2="548.47" gradientTransform="matrix(1, 0, 0, 1, 0, 0)" xlink:href="#linear-gradient"></linearGradient><linearGradient id="linear-gradient-12" x1="809.94" y1="265.6" x2="816.5" y2="545.01" gradientTransform="matrix(1, 0, 0, 1, 0, 0)" xlink:href="#linear-gradient"></linearGradient><linearGradient id="linear-gradient-13" x1="957.49" y1="262.13" x2="964.05" y2="541.54" gradientTransform="matrix(1, 0, 0, 1, 0, 0)" xlink:href="#linear-gradient"></linearGradient></defs><path class="cls-1" d="M356.38,241.74a161.65,161.65,0,0,0,1.46,17.15c0,.06,0,.12,0,.18a12.33,12.33,0,0,0,1.07-2.11c0-.06,0-.09.06-.12a1.07,1.07,0,0,0,.12-.27s0-.05.06-.08a1.59,1.59,0,0,0,.12-.27,3.19,3.19,0,0,1,.23-.45c.18-.36.36-.71.54-1.1l.09-.18s0-.06.06-.09.08-.14.12-.23,0-.09.06-.12,0-.06,0-.09c1.2-2.23,3.12-5.56,6.52-10.73.32-.48.65-1,1-1.49,1.82-2.71,4-5.91,6.7-9.69,6.8-9.58,13-16.05,25.74-28.16l1.29-1.23c4.13-3.91,8.93-8.4,14.61-13.75q4.16-3.9,7.88-7.22l1.1-1c28.93-25.5,39.44-25.2,58-32.45q2.1-.81,4.35-1.78c-.52.27-1.94,1-4.12,2.16-8.72,4.71-29.68,17.07-54.84,40.11l-.67.61c-7.09,6.53-14.52,13.92-22.09,22.21l-.3.34c-1.21,1.32-2.41,2.66-3.63,4q-3.24,3.67-6.51,7.58c-3.4,4.07-9.64,9.66-15.55,18.22a72.66,72.66,0,0,0-4,6.27c-12.51,22.12-14,45.43-14,56.19a61.07,61.07,0,0,1,6-20.6c2.14-4.25,10.19-20.22,26.24-25.84a30,30,0,0,1,6.78-1.54c13.5-1.43,22.54,7.88,43.73,4.31a71,71,0,0,0,27.44-11.12c5.12-3.33,17.72-12.43,34.61-44.14,12.42-23.34,11.71-38.51,27-57.68A136.58,136.58,0,0,1,566,118.43c-78.24-25.95-156.22-3.57-190.47,49a116.93,116.93,0,0,0-16.64,41.83c-.3,1.39-.54,2.82-.78,4.19v0A148.71,148.71,0,0,0,356.38,241.74Z"></path><path class="cls-2" d="M220.7,170.81c11.3,5.68,17.66,12.4,21.32,17.33,4.43,6,5.71,10.32,13.35,26.87,5.5,12,8.32,18,9.09,19.12,1.31,1.9,14.72,21.11,37.1,24.64a38.27,38.27,0,0,0,16.23-.89c4.2-1,7.79-1.87,12.88-.21,12.69,4.14,19.8,19.18,24,34.67a67.38,67.38,0,0,0-4.43-30.68c-.89-2.21-3.61-8.64-10.82-17.2-.74-.88-1.54-1.79-2.38-2.72-.52-.57-1-1.14-1.6-1.72-9.31,2.54-20,3.15-28.91-.13l-.18.33a4.84,4.84,0,1,1,.6-3.41,5,5,0,0,1-.07,2.15c9,2.66,18.69,2.06,28,.46-2.19-2.26-4.68-4.63-7.5-7.07a129.2,129.2,0,0,0-15-11.2l-.85-.55-1.08-.66c-9.54,3.17-20.81,4.37-30.33,1.21a2.55,2.55,0,0,1-.17.33,4.84,4.84,0,1,1,.49-3.41,4.73,4.73,0,0,1,0,2.15c9.5,2.49,19.71,1.38,29.33-.7a148.49,148.49,0,0,0-38.34-16.29,3.89,3.89,0,0,1-.16.44,4.46,4.46,0,0,1-.22.5,7.51,7.51,0,0,1-.47.82,7.34,7.34,0,1,1,1-2.34,108.71,108.71,0,0,1,26.89,6.15q4.89,1.8,9.34,3.94a53.84,53.84,0,0,0-12.36-16.12,4.74,4.74,0,0,1-1.76,1.23,4.83,4.83,0,1,1,2.52-2.36c-.06.12-.12.22-.18.33,5.88,4.37,10.39,10.84,13.51,17.77a112.76,112.76,0,0,1,28.18,20.18c-2.25-7.72-5.47-15.21-10.63-21.27a5,5,0,0,1-1.93.93,4.84,4.84,0,1,1,3.63-5.8,4.79,4.79,0,0,1-.76,3.88l-.23.3c5.92,6.12,9.56,14.74,11.29,23.32,2.22,2.23,4.26,4.45,6.12,6.61a128.5,128.5,0,0,1,9,11.74c1.43,2.08,2.62,4,3.57,5.53a.23.23,0,0,0,.06-.12,161.65,161.65,0,0,1-1.46-17.15,148.71,148.71,0,0,1,1.72-28.24v0a39.43,39.43,0,0,0-2.43-3.57c-9.9-13.43-25.6-22.44-34.1-27.32C281.29,159.51,237.89,166.86,220.7,170.81Z"></path><path class="cls-3" d="M327.06,212.5c5.16,6.06,8.38,13.55,10.63,21.27l1.37,1.36c-1.73-8.58-5.37-17.2-11.29-23.32l.23-.3a4.84,4.84,0,1,0-8.67-1.71,4.84,4.84,0,0,0,5.8,3.63A5,5,0,0,0,327.06,212.5Z"></path><path class="cls-4" d="M297.43,238.65a4.84,4.84,0,0,0,8.91,1.57l.18-.33c8.94,3.28,19.6,2.67,28.91.13l-.59-.6c-9.28,1.6-19,2.2-28-.46a5,5,0,0,0,.07-2.15,4.84,4.84,0,0,0-9.51,1.84Z"></path><path class="cls-5" d="M307.78,212.74l1.73.85c-3.12-6.93-7.63-13.4-13.51-17.77.06-.11.12-.21.18-.33a4.84,4.84,0,1,0-2.52,2.36,4.74,4.74,0,0,0,1.76-1.23A53.84,53.84,0,0,1,307.78,212.74Z"></path><path class="cls-6" d="M271,220.2a4.84,4.84,0,0,0,9,1.28,2.55,2.55,0,0,0,.17-.33c9.52,3.16,20.79,2,30.33-1.21l-.68-.42c-9.62,2.08-19.83,3.19-29.33.7a4.73,4.73,0,0,0,0-2.15A4.84,4.84,0,0,0,271,220.2Z"></path><path class="cls-7" d="M258.19,204.72a7.3,7.3,0,0,0,12.35.27,7.51,7.51,0,0,0,.47-.82,4.46,4.46,0,0,0,.22-.5,3.89,3.89,0,0,0,.16-.44c-1.08-.3-2.13-.57-3.17-.83l-.19-.05h.21c1.07.08,2.18.17,3.31.29a7.3,7.3,0,1,0-13.36,2.07Z"></path><path class="cls-8" d="M326.16,211.47c.3.34.61.68.9,1,5.16,6.06,8.38,13.55,10.63,21.27l1.37,1.36c-1.73-8.58-5.37-17.2-11.29-23.32-.32-.33-.65-.66-1-1a1.86,1.86,0,0,1-.26.31Z"></path><path class="cls-8" d="M319.33,209.8a4.84,4.84,0,0,0,5.8,3.63,5,5,0,0,0,1.93-.93,4.69,4.69,0,0,0,.46-.42l.25-.27.23-.3a4.84,4.84,0,1,0-8.67-1.71Zm4.11-3.7a2.68,2.68,0,0,1,3.22,2,2.62,2.62,0,0,1-.41,2.1.6.6,0,0,1-.09.13,1.59,1.59,0,0,1-.2.24l-.28.25a2.68,2.68,0,1,1-2.24-4.74Z"></path><path class="cls-8" d="M294.35,195.75c.36.29.72.57,1.07.87a53.84,53.84,0,0,1,12.36,16.12l1.73.85c-3.12-6.93-7.63-13.4-13.51-17.77l-1.13-.8a1.86,1.86,0,0,1-.22.35A3.57,3.57,0,0,1,294.35,195.75Z"></path><path class="cls-8" d="M287.35,195.21a4.82,4.82,0,0,0,6.31,2.64,4.74,4.74,0,0,0,1.76-1.23,4.45,4.45,0,0,0,.38-.48c.07-.11.14-.21.2-.32s.12-.21.18-.33a4.84,4.84,0,1,0-8.83-.28Zm3.46-4.31a2.68,2.68,0,0,1,3.49,1.46,2.64,2.64,0,0,1-.05,2.15.61.61,0,0,0-.07.14,2,2,0,0,1-.17.27c-.07.1-.15.19-.23.29a2.73,2.73,0,0,1-.94.65,2.68,2.68,0,0,1-2-5Z"></path><path class="cls-8" d="M258.19,204.72a7.3,7.3,0,0,0,12.35.27,7.51,7.51,0,0,0,.47-.82,4.46,4.46,0,0,0,.22-.5,3.89,3.89,0,0,0,.16-.44l0-.1c.05-.16.09-.32.13-.48a7.3,7.3,0,1,0-13.36,2.07Zm4.18-7.22a4,4,0,0,1,5.55,1.39,4,4,0,0,1,.4,3.21,2,2,0,0,1-.07.23s0,0,0,0l0,0a1.65,1.65,0,0,1-.16.36,4.76,4.76,0,0,1-.28.49,4.16,4.16,0,0,1-1.25,1.18,4,4,0,0,1-4.16-6.93Z"></path><path class="cls-8" d="M305.23,239.38q.63.27,1.29.51c8.94,3.28,19.6,2.67,28.91.13l-.59-.6c-9.28,1.6-19,2.2-28-.46l-1.32-.41a4.11,4.11,0,0,1-.15.46C305.35,239.13,305.29,239.26,305.23,239.38Z"></path><path class="cls-8" d="M297.43,238.65a4.84,4.84,0,0,0,8.91,1.57l.18-.33.15-.34c.07-.19.14-.39.2-.59a5,5,0,0,0,.07-2.15,4.84,4.84,0,0,0-9.51,1.84Zm4.24-3.54a2.68,2.68,0,0,1,3.14,2.11,2.73,2.73,0,0,1,0,1.14l-.12.36a2.59,2.59,0,0,1-.14.29s0,.08-.07.13a2.64,2.64,0,0,1-1.77,1.22,2.67,2.67,0,1,1-1-5.25Z"></path><path class="cls-8" d="M405.56,211.91c14.17,5.4,31.68,7.83,46.3,3q.93-.3,1.86-.66a3.14,3.14,0,0,1-.23-.53c-.08-.22-.14-.44-.2-.67-.62.19-1.25.37-1.88.53-14.79,3.82-30.77,1.5-45.55-2.05Z"></path><path class="cls-8" d="M451.41,213.62a7.44,7.44,0,0,0,.25.84,4.19,4.19,0,0,0,.2.49q.11.24.24.48a6.87,6.87,0,1,0-.69-4.87A7,7,0,0,0,451.41,213.62Zm3-2.36a3.83,3.83,0,1,1,.41,2.73c0-.06-.07-.12-.1-.19a2.37,2.37,0,0,1-.17-.41c-.06-.17-.11-.34-.16-.52A4,4,0,0,1,454.41,211.26Z"></path><path class="cls-8" d="M428.62,188.75l-.67.61c14.08,3.59,30.57,4.11,43.95-1.58.61-.26,1.2-.53,1.8-.81a2.78,2.78,0,0,1-.27-.51,5.12,5.12,0,0,1-.25-.65c-.61.24-1.22.47-1.84.68C457.83,191.25,442.82,190.71,428.62,188.75Z"></path><path class="cls-8" d="M471.34,186.49a7.34,7.34,0,0,0,.32.82c.08.16.15.32.24.47a4.92,4.92,0,0,0,.28.45,6.82,6.82,0,1,0-.84-1.74Zm2.79-2.61a3.8,3.8,0,1,1,.64,2.7l-.12-.19a3,3,0,0,1-.21-.4c-.07-.16-.13-.33-.19-.5A3.92,3.92,0,0,1,474.13,183.88Z"></path><path class="cls-8" d="M482.07,145.1a10.49,10.49,0,0,0,1.16,3.16c.07.13.15.25.23.38s.29.46.45.68a11.9,11.9,0,0,0,.86,1c.18.19.37.38.56.55s.41.35.63.51a10.37,10.37,0,1,0-3.89-6.3Zm5.51,1.38a5.89,5.89,0,0,1-.95-2.25,5.76,5.76,0,1,1,2.22,3.54l-.26-.2a4.34,4.34,0,0,1-.49-.47A6.1,6.1,0,0,1,487.58,146.48Z"></path><path class="cls-8" d="M400.38,203.89l1.29-1.23c.62-10.43,2.53-20.88,7.35-30,.27-.52.55-1,.84-1.54a4.68,4.68,0,0,1-.54-.3,3.25,3.25,0,0,1-.42-.31c-.33.49-.65,1-.95,1.49C402.33,181.17,400.19,192.81,400.38,203.89Z"></path><path class="cls-8" d="M405.55,167.06a6.16,6.16,0,0,0,2,4.61l.37.31.38.27a7.69,7.69,0,0,0,.69.39,6.05,6.05,0,0,0,2.66.62,6.16,6.16,0,1,0-6.13-6.2Zm4.32,2.9a2,2,0,0,1-.33-.24l-.15-.13a3.4,3.4,0,1,1,2.3.92,3.35,3.35,0,0,1-1.41-.32A3.3,3.3,0,0,1,409.87,170Z"></path><path class="cls-8" d="M424.16,181.69l1.1-1c1.67-11.47,4.71-23,11.16-32.52.33-.49.66-1,1-1.43-.18-.12-.34-.24-.51-.37a3.09,3.09,0,0,1-.38-.35c-.38.45-.75.91-1.11,1.37C428.15,156.81,424.77,169.63,424.16,181.69Z"></path><path class="cls-8" d="M435.1,147.07a3.51,3.51,0,0,0,.33.34l.35.32c.21.16.42.32.64.46a6.15,6.15,0,1,0-1.32-1.12Zm2.46-1.45a3.85,3.85,0,0,1-.3-.27l-.13-.15a3.37,3.37,0,0,1-.8-2.61,3.41,3.41,0,1,1,3,3.78,3.49,3.49,0,0,1-1.37-.47A3.89,3.89,0,0,1,437.56,145.62Z"></path><path class="cls-8" d="M278.77,220.69c.44.16.87.32,1.31.46,9.52,3.16,20.79,2,30.33-1.21l-.68-.42c-9.62,2.08-19.83,3.19-29.33.7l-1.32-.38c-.05.16-.09.32-.15.47A1.8,1.8,0,0,1,278.77,220.69Z"></path><path class="cls-8" d="M271,220.2a4.84,4.84,0,0,0,9,1.28,2.55,2.55,0,0,0,.17-.33,3.45,3.45,0,0,0,.14-.34c.07-.2.13-.39.18-.59a4.73,4.73,0,0,0,0-2.15A4.84,4.84,0,0,0,271,220.2Zm4.14-3.68a2.68,2.68,0,0,1,3.21,3.16c0,.13-.06.25-.1.37s-.08.19-.13.28-.05.1-.07.14a2.68,2.68,0,1,1-2.91-3.95Z"></path><path class="cls-9" d="M243.55,364.8v.66c24.61,4.27,45.61,20.67,45.61,55.78,0,49.87-31.83,69.23-80.39,69.23H91.63V255.87H205.49c48.89,0,74.48,19,74.48,59.06C280,343.8,262.91,358.24,243.55,364.8Zm-52.17-14.11c16.41,0,29.53-3.93,29.53-23.29s-13.12-23.3-29.53-23.3H150.69v46.59Zm-40.69,91.55H193c24.61,0,37.08-5.91,37.08-27.89S217.63,386.79,193,386.79H150.69Z"></path><rect class="cls-10" x="325.16" y="322.48" width="52.5" height="168"></rect><path class="cls-11" d="M566,376.94V490.47H513.5V393.68c0-25.27-8.86-33.8-26.25-33.8-20,0-31.5,10.17-31.5,33.47v97.12h-52.5v-168h52.5v24.28h.65c8.86-15.43,25.27-29.53,55.13-29.53C544,317.23,566,338.56,566,376.94Z"></path><path class="cls-12" d="M668,353.32c-19,0-28.22,7.22-29.86,23.3H589c1.64-32.16,24.61-59.39,79.41-59.39,47.25,0,73.5,18.37,73.5,71.2v77.11c0,8.86,3.28,12.47,9.84,12.47v12.46a83,83,0,0,1-30.52,5.25c-23.62,0-30.18-11.15-30.18-23h-.66c-10.83,12.46-30.51,23-52.83,23-35.43,0-55.12-20-55.12-48.23,0-33.47,24.61-48.89,64-56.76,21.66-4.27,43-7.55,43-21.66C689.36,359.23,682.47,353.32,668,353.32Zm21.33,75.79V408.77c-6.56,2.63-14.77,4.92-26.91,7.55-20.67,4.59-27.56,13.12-27.56,23.62,0,13.78,8.2,19.69,21,19.69C678.53,459.63,689.36,445.19,689.36,429.11Z"></path><path class="cls-13" d="M835,361.85v69.56c0,19,6.89,19,29.2,19v39.38c-9.52,2-17.72,3.61-32.49,3.61-38.39,0-49.21-20.35-49.21-58.08v-73.5h-23.3V322.48h23.3V275.56H835v46.92h29.2v39.37Z"></path><path class="cls-14" d="M992.86,439.61H1045c-9.19,33.8-35.44,56.11-81,56.11-55.79,0-89.58-36.75-89.58-89.24,0-51.19,33.14-89.25,86.62-89.25,57.42,0,86.63,42,86.63,103H926.91c0,23.62,17.39,36.09,36.09,36.09C981.05,456.35,989.58,447.82,992.86,439.61Zm-66-51.18h68.25c0-23.3-14.11-35.11-34.13-35.11S926.91,365.13,926.91,388.43Z"></path></svg>