<svg xmlns="http://www.w3.org/2000/svg" width="572" height="626" viewBox="0 0 572 626" fill="none"><circle cx="192.901" cy="432.605" r="192.835" fill="#F9F9F9"></circle><rect x="145.698" width="425.542" height="592.576" rx="42" fill="#EDF5ED"></rect><mask id="jtowufkeha" style="mask-type:alpha" maskUnits="userSpaceOnUse" x="145" y="0" width="427" height="593"><rect x="145.698" width="425.542" height="592.576" rx="42" fill="#EDF5ED"></rect></mask><g mask="url(#jtowufkeha)"><path d="M652 505.122C652 598.943 574.194 675 478.215 675c-95.978 0-173.784-76.057-173.784-169.878 0-93.822 77.806-169.879 173.784-169.879 34.235 0 66.158 9.677 93.062 26.385C619.8 391.761 652 444.766 652 505.122z" fill="#F9F9F9"></path></g><ellipse cx="279.055" cy="423.747" rx="23.758" ry="23.208" fill="#F9F9F9"></ellipse><path d="M525.824 412.85v66.118h-16.191V312.606h-2.828v-80.217h-4.941v-16.543h-17.673l-5.659 3.817v15.272h-6.362v25.452h-5.671v289.676h-24.794V355.071l-1.911-7.998h-5.727V317.27h-8.293c-15.908 4.578-22.906 29.781-22.906 29.781v151.824h-19.517v-50.193c-2.279-.647-12.377 0-12.377 0v-8.432c-34.856-9.079-61.569 3.889-61.569 3.889v77.493h-28.04v-118.65h-4.241v-13.963h-4.242v-16.693h-27.573v25.082l-3.523 2.787v88.015l-9.85 18.485h-10.204V335.783l-5.924-4.884v-10.38l-22.116-3.669-17.859 6.114v12.947l-6.607 7.82v176.472h-15.402V391.521l-10.071-19.195h-10.09v178.25c0 23.196 18.804 42 42 42h353.578c23.196 0 42-18.804 42-42V394.365h-20.402l-25.015 18.485z" fill="#43B97F"></path><g clip-path="url(#ykx7ypb6xb)"><path d="M266.246 264.945s-3.354-9.764-7.27-8.872c-3.916.893-8.2 4.222-8.2 4.222l-6.292 9.415s17.672 7.7 23.872 3.288c0 0 18.04 3.449 40.819-.687-3.298-7.704-5.263-15.427-6.417-21.405-11.538 7.228-23.964 12.621-36.512 14.039z" fill="url(#3awy3vz5wc)"></path><path d="M361.798 194.108s-25.828 35.995-59.043 56.798c1.154 5.987 3.12 13.701 6.418 21.405 17.23-3.125 37.169-10.596 54.075-27.185l-1.45-51.018z" fill="#14097E"></path><path d="M394.006 353.65c-5.05-26.547-10.1-41.918-27.014-92.238-5.322-15.835-10.154-31.856-7.818-48.553l2.624-18.747s32.866-12.302 69.297-.519c0 0 49.703 23.893 15.944 141.897-15.218 18.843-33.028 24.204-53.033 18.16z" fill="#14097E"></path><path d="m367.393 170.183 8.521 22.652c.538 1.432 1.702 2.451 3.082 2.713 4.914.933 16.8 2.388 24.6-3.291.93-.675 1.168-2.074.532-3.085l-15.746-25.014-20.989 6.025z" fill="url(#ixqdsbfa9d)"></path><path d="M376.206 135.512c-.358.373-15.105 32.416-15.105 32.416l16.715 8.931 18.056-28.076s-13.674-19.512-19.666-13.271z" fill="url(#d52p9m6qne)"></path><path d="m388.274 152.154-8.336 15.376a2.76 2.76 0 0 1-.458.631c-1 1.021-4.386 3.994-7.012-.053-2.238-3.45-4.336-6.586-6.586-7.879-1.314-.756-2.93-.152-3.6 1.31-1.374 3.011-4.034 9.153-5.706 14.976-.418 1.459.262 3.025 1.544 3.601 3.386 1.518 10.074 4.261 16.01 5.167.493.066.995-.012 1.443-.222a2.523 2.523 0 0 0 1.079-.963c2.554-3.872 9.752-14.691 12.2-17.399 2.282-2.516 6.494-1.563 8.4-.963a2.444 2.444 0 0 0 2.127-.309c1.926-1.285 5.288-4.491 2.212-9.893-.764-1.345-.373-3.138.826-4.011 2.15-1.562 4.484-4.503 2.26-9.26-2.249-4.816-6.267-5.247-8.999-4.882a2.775 2.775 0 0 1-1.778-.391 2.67 2.67 0 0 1-1.128-1.396c-.1-.301-.28-.571-.522-.782a1.856 1.856 0 0 0-.854-.417c-1.434-.322-2.376-1.773-2.094-3.363.482-2.734.12-6.266-3.814-8.658-7.212-4.388-13.528 2.763-15.136 8.787-1.608 6.025 6.458 10.301 11.53 11.012 3.726.523 5.77 5.023 6.6 7.376.148.425.206.875.171 1.323a3.257 3.257 0 0 1-.379 1.282z" fill="#140A7F"></path><path d="M385.354 171.303s3.587-9.34 7.693-8.96c4.106.381 7.336 4.908 2.248 9.995-6.33 6.327-9.941-1.035-9.941-1.035z" fill="url(#gqnu9hitzf)"></path><path d="M390.77 587.616c7.938.76 21.716 1.992 32.576 2.521 6.529.319 10.287-.39 12.451-1.347 0 .269 0 .525-.02.761-.05 1.266-.98 2.277-2.134 2.344-20.521 1.267-36.843.439-42.653.049-1.2-.082-1.918-1.528-1.304-2.66.323-.579.685-1.136 1.084-1.668z" fill="#000"></path><path d="M423.354 590.137c-10.86-.529-24.638-1.757-32.576-2.521 7.8-10.596 32.576-17.735 32.576-17.735h7a35.015 35.015 0 0 1 5.454 18.909c-2.174.959-5.932 1.666-12.454 1.347z" fill="#140A7F"></path><path d="m431.521 557.242-.656 14.336c-.07 1.562-1.12 2.857-2.526 3.079a10.463 10.463 0 0 1-5.256-.482c-1.22-.449-2.128-1.59-2.352-2.978l-2.264-13.955h13.054z" fill="url(#dwxup18zzg)"></path><path d="M522.39 590.037c3.442-.531 5-2.509 5.654-4.626l.012.059c.506 2.232-.668 4.544-3.014 5.643-2.838 1.33-5.94 1.563-8.348 1.447-2.584-.119-4.956-1.302-6.258-3.194l-.02-.03c2.594 1.412 6.234 1.58 11.974.701z" fill="#000"></path><path d="M506.152 557.148h5.77c8.788-.195 14.306 20.309 16.114 28.255-.654 2.117-2.212 4.101-5.654 4.626-5.74.887-9.38.719-11.974-.701-4.748-6.913-7.102-17.038-8.234-22.947-1.278-6.722 3.978-9.233 3.978-9.233z" fill="#140A7F"></path><path d="m511.188 543.844 3.2 14.099c.4 1.728-.354 3.515-1.8 4.337-1.8 1.018-4.316 2.088-6.634 1.777-1.09-.144-2-.994-2.358-2.13l-4.701-14.842 12.293-3.241z" fill="url(#a4dmaaw76h)"></path><path d="M515.01 547.92c-3.986 3.905-16.951 4.428-16.951 4.428-46.702-124.033-66.171-158.178-66.171-158.178 6.743 46.815 1.454 166.984 1.454 166.984-7.708 3.763-17.644 0-17.644 0-.626-76.644-10.378-159-22.954-211.695 31.566-.781 48.719-8.397 54.199-13.197 26.312 46.94 68.067 211.658 68.067 211.658z" fill="#0C0265"></path><path d="m384.792 384.119 5.8 39.974c1.012 6.969 6.848 11.804 13.21 10.945l86.93-11.732c4.252-.574 7.478-4.503 7.562-9.221.186-10.329-.18-28.707-4.098-45.46l-109.404 15.494z" fill="url(#q70hjy5dmi)"></path><path d="M406.244 432.382a.26.26 0 0 1-.171-.074.249.249 0 0 1-.075-.166.261.261 0 0 1 .045-.195.274.274 0 0 1 .171-.111l1.968-.266a.272.272 0 0 1 .102.011.246.246 0 0 1 .15.13c.015.03.023.064.024.097a.263.263 0 0 1-.046.196.275.275 0 0 1-.17.111l-1.968.266-.03.001zm-4.6-.126a.486.486 0 0 1-.054 0 10.818 10.818 0 0 1-1.926-.686.282.282 0 0 1-.132-.359.235.235 0 0 1 .226-.166.238.238 0 0 1 .098.019 10.4 10.4 0 0 0 1.844.657.28.28 0 0 1 .158.128.274.274 0 0 1-.057.341.264.264 0 0 1-.155.06l-.002.006zm11.158-.758a.27.27 0 0 1-.171-.075.253.253 0 0 1-.075-.167.261.261 0 0 1 .045-.195.273.273 0 0 1 .171-.11l1.967-.265a.251.251 0 0 1 .19.062.262.262 0 0 1 .087.176.262.262 0 0 1-.046.195.274.274 0 0 1-.171.111l-1.967.264-.03.004zm6.559-.887a.26.26 0 0 1-.246-.24.272.272 0 0 1 .216-.306l1.968-.266a.25.25 0 0 1 .191.061.243.243 0 0 1 .085.177.263.263 0 0 1-.043.196.274.274 0 0 1-.171.111l-1.97.265-.03.002zm6.562-.884a.264.264 0 0 1-.17-.076.257.257 0 0 1-.076-.166.266.266 0 0 1 .045-.195c.04-.056.1-.096.169-.11l1.97-.266a.256.256 0 0 1 .253.141.22.22 0 0 1 .023.098.261.261 0 0 1-.045.195.274.274 0 0 1-.171.111l-1.968.266-.03.002zm6.56-.885a.268.268 0 0 1-.17-.075.254.254 0 0 1-.076-.167.266.266 0 0 1 .216-.305l1.968-.267a.27.27 0 0 1 .191.062.27.27 0 0 1 .061.081c.015.03.023.063.024.097a.266.266 0 0 1-.216.305l-1.968.265-.03.004zm-36.509-.135a.233.233 0 0 1-.178-.084 12.625 12.625 0 0 1-1.268-1.745.288.288 0 0 1 .068-.379.224.224 0 0 1 .09-.041.22.22 0 0 1 .099-.001.268.268 0 0 1 .091.041c.026.02.048.046.064.075.355.589.762 1.147 1.214 1.67a.3.3 0 0 1 0 .39.24.24 0 0 1-.178.074h-.002zm43.069-.752a.257.257 0 0 1-.246-.24.266.266 0 0 1 .045-.195.277.277 0 0 1 .171-.111l1.968-.266a.272.272 0 0 1 .102.011c.033.01.063.027.089.05a.243.243 0 0 1 .085.177.267.267 0 0 1-.045.196.274.274 0 0 1-.171.111l-1.968.266-.03.001zm6.56-.886a.26.26 0 0 1-.169-.074.253.253 0 0 1-.075-.166.267.267 0 0 1 .045-.196.277.277 0 0 1 .171-.111l1.968-.264a.272.272 0 0 1 .102.012.248.248 0 0 1 .088.05.243.243 0 0 1 .086.177.262.262 0 0 1-.047.195.274.274 0 0 1-.171.109l-1.968.266-.03.002zm6.562-.885a.257.257 0 0 1-.246-.24.266.266 0 0 1 .045-.195.276.276 0 0 1 .171-.112l1.968-.265a.27.27 0 0 1 .19.062.262.262 0 0 1 .061.079.258.258 0 0 1 .025.097.267.267 0 0 1-.045.196.277.277 0 0 1-.171.111l-1.968.265-.03.002zm6.56-.886a.267.267 0 0 1-.17-.074.25.25 0 0 1-.076-.167.264.264 0 0 1 .046-.194.277.277 0 0 1 .17-.11l1.968-.266a.272.272 0 0 1 .102.011.27.27 0 0 1 .089.05.24.24 0 0 1 .085.178.271.271 0 0 1-.214.306l-1.968.264-.032.002zm6.562-.885a.262.262 0 0 1-.17-.074.247.247 0 0 1-.076-.166.263.263 0 0 1 .045-.196.274.274 0 0 1 .171-.111l1.968-.265a.236.236 0 0 1 .102.011.25.25 0 0 1 .15.129.24.24 0 0 1 .024.098.266.266 0 0 1-.045.195.281.281 0 0 1-.171.112l-1.968.265-.03.002zm6.56-.885a.26.26 0 0 1-.171-.075.251.251 0 0 1-.075-.167.269.269 0 0 1 .216-.304l1.968-.266a.247.247 0 0 1 .101.012.25.25 0 0 1 .15.129.258.258 0 0 1 .025.097.262.262 0 0 1-.046.195.273.273 0 0 1-.17.11l-1.968.266-.03.003zm6.56-.886a.265.265 0 0 1-.171-.074.25.25 0 0 1-.075-.166.258.258 0 0 1 .045-.196.274.274 0 0 1 .171-.111l1.97-.266a.268.268 0 0 1 .189.063.247.247 0 0 1 .085.178.27.27 0 0 1-.216.304l-1.968.266-.03.002zm-85.399-.358a.253.253 0 0 1-.244-.226l-.318-2.17a.263.263 0 0 1 .036-.195.279.279 0 0 1 .164-.119.25.25 0 0 1 .192.053.24.24 0 0 1 .092.174l.318 2.161a.274.274 0 0 1-.2.319l-.04.003zm91.95-.527a.258.258 0 0 1-.246-.242.263.263 0 0 1 .045-.194.279.279 0 0 1 .17-.111l1.967-.265a.255.255 0 0 1 .255.14.239.239 0 0 1 .023.098.266.266 0 0 1-.046.195.28.28 0 0 1-.17.112l-1.968.265-.03.002zm6.4-1.578a.243.243 0 0 1-.216-.138.292.292 0 0 1 .092-.373 7.983 7.983 0 0 0 1.538-1.268.234.234 0 0 1 .352.01.3.3 0 0 1 0 .391 8.509 8.509 0 0 1-1.636 1.345.228.228 0 0 1-.12.033h-.01zm-99.398-5.114a.256.256 0 0 1-.244-.23l-.316-2.166a.264.264 0 0 1 .036-.196.283.283 0 0 1 .164-.119.27.27 0 0 1 .102.006.24.24 0 0 1 .182.221l.314 2.166a.274.274 0 0 1-.2.314l-.038.004zm103.28-.557a.281.281 0 0 1-.058 0 .278.278 0 0 1-.182-.332 9.65 9.65 0 0 0 .226-1.915v-.196a.263.263 0 0 1 .248-.271c.07.005.135.038.181.089.046.052.07.12.065.188v.196a10.166 10.166 0 0 1-.242 2.034.245.245 0 0 1-.078.143.257.257 0 0 1-.152.064h-.008zm-104.322-6.668a.263.263 0 0 1-.244-.233l-.314-2.166a.263.263 0 0 1 .036-.195.279.279 0 0 1 .164-.119.271.271 0 0 1 .102.007c.033.01.063.025.09.046a.248.248 0 0 1 .092.174l.314 2.167a.267.267 0 0 1-.037.195.283.283 0 0 1-.163.12l-.04.004zm104.598-.629a.274.274 0 0 1-.181-.088.26.26 0 0 1-.067-.186c0-.709-.01-1.441-.022-2.191a.256.256 0 0 1 .064-.188.269.269 0 0 1 .18-.091c.13-.025.248.119.252.269.012.752.018 1.487.022 2.197a.257.257 0 0 1-.064.189.267.267 0 0 1-.182.089h-.002zm-105.644-6.593a.265.265 0 0 1-.167-.072.25.25 0 0 1-.077-.16l-.316-2.166a.272.272 0 0 1 .2-.314.25.25 0 0 1 .257.13c.015.03.025.063.027.096l.314 2.168a.268.268 0 0 1-.037.195.278.278 0 0 1-.163.119l-.038.004zm105.486-.723a.267.267 0 0 1-.176-.082.256.256 0 0 1-.07-.179c-.028-.719-.06-1.451-.096-2.189a.27.27 0 0 1 .234-.289c.154-.018.254.109.262.259.036.741.066 1.475.094 2.195a.256.256 0 0 1-.058.19.267.267 0 0 1-.178.095h-.012zm-106.534-6.499a.263.263 0 0 1-.167-.07.253.253 0 0 1-.079-.16l-.314-2.166a.274.274 0 0 1 .2-.314.265.265 0 0 1 .191.054.24.24 0 0 1 .093.173l.316 2.165a.27.27 0 0 1-.2.315l-.04.003zm106.128-.788a.266.266 0 0 1-.174-.079.26.26 0 0 1-.074-.173c-.052-.723-.108-1.451-.17-2.184a.27.27 0 0 1 .218-.298.234.234 0 0 1 .102.014.245.245 0 0 1 .168.234c.06.736.117 1.466.17 2.189a.259.259 0 0 1-.051.193.279.279 0 0 1-.175.104h-.014zm-107.182-6.417a.255.255 0 0 1-.244-.233l-.356-2.445 1.02-.144a.252.252 0 0 1 .254.138.24.24 0 0 1 .024.098.266.266 0 0 1-.045.195.281.281 0 0 1-.169.114l-.514.072.274 1.886a.27.27 0 0 1-.2.315l-.044.004zm106.51-.86a.26.26 0 0 1-.246-.24c-.081-.72-.167-1.444-.258-2.173a.268.268 0 0 1 .039-.193.276.276 0 0 1 .161-.116c.035-.004.07 0 .103.009a.25.25 0 0 1 .177.225c.092.731.179 1.457.26 2.18a.263.263 0 0 1-.045.194.275.275 0 0 1-.169.112l-.022.002zm-101.468-2.066a.257.257 0 0 1-.246-.24.265.265 0 0 1 .044-.195.28.28 0 0 1 .17-.112l1.966-.279a.255.255 0 0 1 .194.058.242.242 0 0 1 .084.18.268.268 0 0 1-.046.196.279.279 0 0 1-.17.111l-1.966.279-.03.002zm6.554-.927a.268.268 0 0 1-.17-.075.254.254 0 0 1-.076-.166.263.263 0 0 1 .045-.194.275.275 0 0 1 .169-.112l1.968-.279a.255.255 0 0 1 .193.058.243.243 0 0 1 .085.18.268.268 0 0 1-.045.194.278.278 0 0 1-.169.112l-1.968.278-.032.004zm6.556-.93a.267.267 0 0 1-.17-.074.254.254 0 0 1-.076-.166.26.26 0 0 1 .044-.195.28.28 0 0 1 .17-.112l1.968-.277a.236.236 0 0 1 .102.01c.033.01.064.026.09.048.026.023.047.05.062.081.015.03.023.063.024.097a.27.27 0 0 1-.046.195.28.28 0 0 1-.17.112l-1.966.279-.032.002zm6.556-.927a.253.253 0 0 1-.246-.241.26.26 0 0 1 .044-.195c.04-.057.1-.097.17-.111l1.968-.28a.236.236 0 0 1 .102.01c.034.01.064.026.09.049a.234.234 0 0 1 .083.18.26.26 0 0 1-.044.195.272.272 0 0 1-.169.111l-1.966.28-.032.002zm6.555-.93a.255.255 0 0 1-.246-.238.267.267 0 0 1 .045-.196.277.277 0 0 1 .169-.113l1.966-.277a.25.25 0 0 1 .256.138.238.238 0 0 1 .022.098.262.262 0 0 1-.044.196.279.279 0 0 1-.17.113l-1.966.277-.032.002zm6.556-.928a.26.26 0 0 1-.169-.073.25.25 0 0 1-.077-.165.272.272 0 0 1 .214-.308l1.966-.278a.255.255 0 0 1 .193.058c.026.022.048.05.062.081a.22.22 0 0 1 .023.098.26.26 0 0 1-.044.195.275.275 0 0 1-.17.111l-1.966.279-.032.002zm67.711-.525a.257.257 0 0 1-.244-.226 115.98 115.98 0 0 0-.362-2.149.273.273 0 0 1 .035-.199.281.281 0 0 1 .165-.123.25.25 0 0 1 .102.004.234.234 0 0 1 .092.042.27.27 0 0 1 .067.076.244.244 0 0 1 .029.095c.134.721.255 1.442.364 2.162a.274.274 0 0 1-.2.318h-.048zm-61.147-.41a.257.257 0 0 1-.246-.24.266.266 0 0 1 .045-.195.275.275 0 0 1 .169-.112l1.966-.279a.242.242 0 0 1 .194.058c.027.022.048.05.062.081a.227.227 0 0 1 .022.099.26.26 0 0 1-.044.195.28.28 0 0 1-.17.112l-1.966.277-.032.004zm6.556-.93a.259.259 0 0 1-.246-.238.26.26 0 0 1 .044-.195.275.275 0 0 1 .17-.111l1.966-.28a.255.255 0 0 1 .256.138.242.242 0 0 1 .022.099.26.26 0 0 1-.044.195.278.278 0 0 1-.17.113l-1.968.278-.03.001zm6.554-.927a.266.266 0 0 1-.169-.075.255.255 0 0 1-.077-.165.265.265 0 0 1 .046-.195.28.28 0 0 1 .17-.112l1.966-.279a.255.255 0 0 1 .193.059.247.247 0 0 1 .085.179.27.27 0 0 1-.214.307l-1.968.279-.032.002zm6.558-.928a.257.257 0 0 1-.246-.24.27.27 0 0 1 .214-.306l1.966-.28a.253.253 0 0 1 .102.011.246.246 0 0 1 .176.228.267.267 0 0 1-.214.306l-1.968.277-.03.004zm6.554-.929a.258.258 0 0 1-.246-.238.27.27 0 0 1 .216-.309l1.966-.277a.252.252 0 0 1 .278.236.266.266 0 0 1-.045.195.275.275 0 0 1-.169.112l-1.968.279-.032.002zm6.556-.928a.259.259 0 0 1-.246-.24.26.26 0 0 1 .044-.195.28.28 0 0 1 .17-.112l1.968-.279a.275.275 0 0 1 .103.008.247.247 0 0 1 .153.131.242.242 0 0 1 .022.099.264.264 0 0 1-.046.195.28.28 0 0 1-.17.112l-1.966.279-.032.002zm6.556-.929a.27.27 0 0 1-.17-.074.252.252 0 0 1-.076-.165.26.26 0 0 1 .044-.195c.04-.058.1-.098.17-.113l1.968-.277a.235.235 0 0 1 .102.008c.034.01.064.026.09.049a.228.228 0 0 1 .084.179.27.27 0 0 1-.045.196.275.275 0 0 1-.169.112l-1.966.278-.032.002zm6.556-.928a.261.261 0 0 1-.17-.073.25.25 0 0 1-.076-.165.262.262 0 0 1 .044-.196c.04-.057.1-.098.17-.113l1.966-.277a.257.257 0 0 1 .103.008.247.247 0 0 1 .175.228.266.266 0 0 1-.045.195.278.278 0 0 1-.169.112l-1.966.279-.032.002zm13.909-.258a.258.258 0 0 1-.24-.209c-.104-.475-.21-.949-.32-1.421l-.216.031a.252.252 0 0 1-.254-.138.24.24 0 0 1-.024-.098.266.266 0 0 1 .045-.195c.04-.057.1-.097.169-.112l.652-.094.054.235c.13.552.254 1.107.376 1.663a.277.277 0 0 1-.182.33.17.17 0 0 1-.06.008zm-7.364-.668a.26.26 0 0 1-.246-.24.272.272 0 0 1 .214-.306l1.968-.28c.035-.003.07 0 .103.01a.242.242 0 0 1 .151.13.227.227 0 0 1 .022.099.26.26 0 0 1-.044.195.272.272 0 0 1-.17.111l-1.966.278-.032.003z" fill="#fff"></path><path d="m406.88 351.374-.096-3.124c.087-.369.267-.71.524-.993.257-.283.582-.499.946-.628 2.65-.859 9.266-2.648 12.799-.434l.898 3.529-15.071 1.65z" fill="url(#a67r8zkl7j)"></path><path d="M414.987 347.199a3.582 3.582 0 0 1-1.872.264c-.78-.1-1.4-.781-1.5-1.631l-1.119-9.693 4.457-.633 1.12 9.688c.1.861-.348 1.693-1.086 2.005z" fill="url(#j6l1cbu20k)"></path><path d="m450.059 345.26-.098-3.124c.088-.369.269-.71.526-.993.257-.283.582-.499.946-.628 2.65-.859 9.264-2.648 12.8-.434l.898 3.529-15.072 1.65z" fill="url(#zvjh4qds1l)"></path><path d="M458.167 341.085a3.582 3.582 0 0 1-1.872.263c-.78-.099-1.4-.781-1.5-1.63l-1.24-10.715 4.458-.631 1.238 10.707c.102.862-.346 1.693-1.084 2.006z" fill="url(#c98bdv76fm)"></path><path d="m410.317 338.577 47.74-8.543c1.088-.196 1.914-1.199 1.964-2.412.111-2.267-.1-4.537-.628-6.747-.732-2.875-3.262-4.73-5.96-4.419-8.97 1.031-31.738 4.261-43.652 11.521-1.26.77-2.1 2.164-2.258 3.74-.152 1.504-.14 3.482.508 5.403.344 1.031 1.308 1.633 2.286 1.457z" fill="url(#yem0l3ivvn)"></path><path opacity=".58" d="M409.139 336.437a.69.69 0 0 1-.424-.171.665.665 0 0 1-.218-.395 14.453 14.453 0 0 1-.182-4.218c.2-1.68 1.216-3.148 2.632-3.834 2.588-1.256 7.562-3.47 11.768-4.198a.689.689 0 0 1 .511.147.656.656 0 0 1 .245.462.709.709 0 0 1-.105.524.74.74 0 0 1-.445.312c-4.212.728-9.4 3.105-11.444 4.101-.511.266-.947.65-1.27 1.119a3.402 3.402 0 0 0-.584 1.572 12.937 12.937 0 0 0 .162 3.69.723.723 0 0 1-.073.533.747.747 0 0 1-.423.344.537.537 0 0 1-.15.012z" fill="#fff"></path><path d="M384.496 353.319c15.464-2.413 82.377-12.679 102.14-12.837 1.702-.014 3.226 1.15 3.8 2.913 1.816 5.591 5.676 18.628 6.934 31.915.17 1.808-.848 3.499-2.418 4.064l-43.351 15.591-15.782 2.234-48.543-3.71c-1.71-.131-3.122-1.521-3.424-3.381-1.078-6.622-3.368-22.191-2.904-32.489.098-2.185 1.578-3.993 3.548-4.3z" fill="url(#il4caxg3no)"></path><path d="M435.703 393.193h-.016l-1.978-.15a.271.271 0 0 1-.232-.293.271.271 0 0 1 .082-.176.287.287 0 0 1 .182-.078l1.978.151a.271.271 0 0 1 .232.293.261.261 0 0 1-.248.253zm1.8-.255a.266.266 0 0 1-.169-.075.25.25 0 0 1-.077-.166.266.266 0 0 1 .046-.195.275.275 0 0 1 .17-.111l1.966-.279a.25.25 0 0 1 .194.057.235.235 0 0 1 .084.181.27.27 0 0 1-.214.306l-1.968.28-.032.002zm-8.4-.248h-.016l-1.978-.151a.263.263 0 0 1-.23-.293.27.27 0 0 1 .264-.253l1.978.15c.07.011.132.047.175.101a.261.261 0 0 1 .055.192.256.256 0 0 1-.073.167.265.265 0 0 1-.169.079l-.006.008zm-6.6-.506h-.016l-1.978-.15a.271.271 0 0 1-.176-.101.262.262 0 0 1-.054-.192.28.28 0 0 1 .264-.254l1.978.15c.07.01.133.046.176.1a.258.258 0 0 1 .054.191.255.255 0 0 1-.07.167.268.268 0 0 1-.166.081l-.012.008zm21.552-.176a.254.254 0 0 1-.246-.238.266.266 0 0 1 .043-.196.277.277 0 0 1 .171-.113l1.966-.277a.256.256 0 0 1 .103.008c.033.01.064.027.09.049.027.022.048.05.062.081a.224.224 0 0 1 .023.098.266.266 0 0 1-.045.195.275.275 0 0 1-.169.112l-1.968.279-.03.002zm-28.144-.328h-.018l-1.978-.15a.277.277 0 0 1-.175-.102.263.263 0 0 1-.055-.191.275.275 0 0 1 .083-.176.286.286 0 0 1 .181-.08l1.978.152c.07.01.133.046.176.1a.255.255 0 0 1 .056.191.255.255 0 0 1-.07.167.263.263 0 0 1-.166.081l-.012.008zm-6.6-.504h-.016l-1.978-.15a.278.278 0 0 1-.176-.101.28.28 0 0 1 .208-.448l1.978.152c.071.01.134.046.177.101a.258.258 0 0 1 .055.192.255.255 0 0 1-.23.246l-.018.008zm41.292-.095a.271.271 0 0 1-.169-.075.253.253 0 0 1-.077-.166.266.266 0 0 1 .045-.195.28.28 0 0 1 .171-.111l.128-.02 1.716-.621c.032-.009.066-.013.1-.009a.252.252 0 0 1 .171.096c.02.026.035.057.043.089a.28.28 0 0 1-.16.346l-1.936.662-.032.004zm-47.886-.407h-.016l-1.977-.15a.274.274 0 0 1-.177-.101.267.267 0 0 1-.056-.192.274.274 0 0 1 .084-.177.288.288 0 0 1 .182-.079l1.978.153c.07.01.133.046.176.101a.254.254 0 0 1 .054.191.255.255 0 0 1-.068.165.27.27 0 0 1-.162.082l-.018.007zm-6.599-.505h-.016l-1.978-.151a.277.277 0 0 1-.177-.1.258.258 0 0 1-.053-.193.266.266 0 0 1 .081-.177.288.288 0 0 1 .183-.079l1.978.151c.069.01.132.047.175.101a.27.27 0 0 1 .055.192.263.263 0 0 1-.224.248l-.024.008zm-6.6-.504h-.016l-2.112-.162-.034-.209a.304.304 0 0 1 .2-.352.229.229 0 0 1 .104-.003.224.224 0 0 1 .096.042l1.79.137c.069.01.132.046.175.1a.259.259 0 0 1 .055.191.26.26 0 0 1-.222.248l-.036.008zm67.365-.82a.26.26 0 0 1-.152-.059.244.244 0 0 1-.084-.137.277.277 0 0 1 .011-.202.289.289 0 0 1 .147-.143l1.886-.678c.032-.009.066-.012.1-.009a.266.266 0 0 1 .171.096c.02.026.035.057.043.089a.28.28 0 0 1-.16.345l-1.886.678a.195.195 0 0 1-.046.012l-.03.008zm6.286-2.26a.258.258 0 0 1-.153-.058.245.245 0 0 1-.083-.137.277.277 0 0 1 .01-.204.289.289 0 0 1 .148-.144l1.886-.677a.247.247 0 0 1 .314.177.285.285 0 0 1-.16.346l-1.886.678a.256.256 0 0 1-.046.011l-.03.008zm-76.353-2.183a.263.263 0 0 1-.167-.07.248.248 0 0 1-.079-.161c-.1-.693-.2-1.419-.306-2.171a.268.268 0 0 1 .037-.195.28.28 0 0 1 .163-.118.266.266 0 0 1 .255.134.244.244 0 0 1 .029.095c.102.751.204 1.474.304 2.17a.265.265 0 0 1-.037.194.28.28 0 0 1-.163.118l-.006-.004-.03.008zm82.639-.078a.265.265 0 0 1-.153-.058.243.243 0 0 1-.083-.137.274.274 0 0 1 .01-.203.283.283 0 0 1 .148-.143l1.886-.678a.25.25 0 0 1 .196.02.25.25 0 0 1 .075.066c.02.027.033.058.041.09a.277.277 0 0 1-.158.344l-1.886.679a.195.195 0 0 1-.046.012l-.03.008zm6.283-2.262a.25.25 0 0 1-.236-.195.277.277 0 0 1 .013-.202.287.287 0 0 1 .147-.142l1.884-.679a.252.252 0 0 1 .272.086.219.219 0 0 1 .042.09.283.283 0 0 1-.16.345l-1.886.678a.171.171 0 0 1-.046.019h-.03zm6.286-2.259a.257.257 0 0 1-.236-.195.282.282 0 0 1 .158-.346l1.886-.678a.247.247 0 0 1 .197.018.237.237 0 0 1 .115.156.274.274 0 0 1-.01.203.283.283 0 0 1-.148.143l-1.886.679a.183.183 0 0 1-.046.012l-.03.008zm6.286-2.261a.263.263 0 0 1-.152-.059.25.25 0 0 1-.084-.137.282.282 0 0 1 .158-.345l1.886-.678c.033-.011.067-.014.101-.011a.25.25 0 0 1 .096.03.233.233 0 0 1 .115.157.274.274 0 0 1-.158.345l-1.886.678a.183.183 0 0 1-.046.012l-.03.008zm-102.448-.381a.263.263 0 0 1-.17-.075.254.254 0 0 1-.076-.165c-.084-.717-.166-1.445-.246-2.18a.266.266 0 0 1 .045-.195.277.277 0 0 1 .171-.111.247.247 0 0 1 .101.013.253.253 0 0 1 .175.227c.08.732.162 1.461.246 2.175a.265.265 0 0 1-.045.195.278.278 0 0 1-.169.112l-.032.004zm107.49-2.787a.257.257 0 0 1-.246-.24c-.082-.725-.17-1.448-.264-2.17a.272.272 0 0 1 .2-.31.257.257 0 0 1 .194.054.236.236 0 0 1 .088.176c.095.727.184 1.454.266 2.182a.262.262 0 0 1-.046.195.275.275 0 0 1-.17.111l-.022.002zm-108.198-4.491a.275.275 0 0 1-.174-.079.26.26 0 0 1-.074-.173c-.058-.732-.114-1.463-.162-2.191a.264.264 0 0 1 .053-.192.276.276 0 0 1 .175-.103.26.26 0 0 1 .266.254c.05.725.104 1.453.162 2.185a.26.26 0 0 1-.051.192.274.274 0 0 1-.173.105l-.022.002zm107.154-2.734a.266.266 0 0 1-.162-.068.25.25 0 0 1-.08-.155c-.133-.722-.266-1.438-.4-2.148a.276.276 0 0 1 .2-.326.25.25 0 0 1 .294.211c.136.711.266 1.431.4 2.148a.266.266 0 0 1-.035.2.28.28 0 0 1-.165.122.22.22 0 0 1-.044.02l-.008-.004zm-107.552-4.578a.263.263 0 0 1-.181-.085.25.25 0 0 1-.067-.184 61.267 61.267 0 0 1-.02-1.758v-.453a.252.252 0 0 1 .066-.185.268.268 0 0 1 .182-.086.262.262 0 0 1 .248.275v.449c0 .569.006 1.149.02 1.738a.262.262 0 0 1-.063.189.273.273 0 0 1-.179.093l-.006.007zm106.118-2.566a.25.25 0 0 1-.24-.207 207.74 207.74 0 0 0-.494-2.122.27.27 0 0 1 .021-.201.278.278 0 0 1 .155-.133.246.246 0 0 1 .101-.003.27.27 0 0 1 .094.036.236.236 0 0 1 .107.162c.166.695.331 1.405.496 2.131a.27.27 0 0 1-.024.199.284.284 0 0 1-.156.133.227.227 0 0 1-.052.009l-.008-.004zm-103.672-2.527a.263.263 0 0 1-.169-.072.248.248 0 0 1-.077-.164.266.266 0 0 1 .039-.192.276.276 0 0 1 .161-.116l1.966-.305a.252.252 0 0 1 .191.058.253.253 0 0 1 .089.176.267.267 0 0 1-.043.196.28.28 0 0 1-.169.113l-1.964.304-.024.002zm6.552-.997a.265.265 0 0 1-.169-.074.248.248 0 0 1-.075-.165.26.26 0 0 1 .038-.192.274.274 0 0 1 .162-.116l1.966-.299a.245.245 0 0 1 .191.058.25.25 0 0 1 .087.176.26.26 0 0 1-.043.195.277.277 0 0 1-.167.114l-1.966.299-.024.004zm6.551-.994a.268.268 0 0 1-.168-.073.253.253 0 0 1-.077-.164.264.264 0 0 1 .044-.196.275.275 0 0 1 .17-.112l1.965-.295a.27.27 0 0 1 .102.01.25.25 0 0 1 .176.224.258.258 0 0 1-.042.196.272.272 0 0 1-.17.113l-1.966.295-.034.002zm6.552-.977a.264.264 0 0 1-.246-.238.268.268 0 0 1 .045-.196.277.277 0 0 1 .169-.113l1.966-.291a.27.27 0 0 1 .192.058.243.243 0 0 1 .086.177.268.268 0 0 1-.043.196.282.282 0 0 1-.169.114l-1.966.291-.034.002zm6.554-.965a.26.26 0 0 1-.246-.238.27.27 0 0 1 .045-.196.275.275 0 0 1 .169-.112l1.966-.285a.25.25 0 0 1 .192.059.26.26 0 0 1 .063.08c.015.03.024.063.025.097a.263.263 0 0 1-.045.194.275.275 0 0 1-.169.112l-1.968.287-.032.002zm75.713-.585a.263.263 0 0 1-.152-.059.25.25 0 0 1-.084-.137c-.2-.728-.4-1.429-.582-2.093a.275.275 0 0 1 .013-.203.285.285 0 0 1 .149-.141.247.247 0 0 1 .271.087.237.237 0 0 1 .039.091c.19.668.386 1.367.584 2.103a.272.272 0 0 1-.015.202.291.291 0 0 1-.151.14.217.217 0 0 1-.068.015l-.004-.005zm-69.157-.364a.26.26 0 0 1-.246-.238.269.269 0 0 1 .046-.196.28.28 0 0 1 .17-.112l1.966-.282a.27.27 0 0 1 .191.062.243.243 0 0 1 .087.177.26.26 0 0 1-.044.195.275.275 0 0 1-.17.111l-1.968.281-.032.002zm6.558-.929a.262.262 0 0 1-.17-.074.254.254 0 0 1-.076-.166.27.27 0 0 1 .214-.307l1.968-.275a.25.25 0 0 1 .253.14.239.239 0 0 1 .023.098.265.265 0 0 1-.044.195.28.28 0 0 1-.17.112l-1.968.275-.03.002zm6.556-.912a.265.265 0 0 1-.17-.075.254.254 0 0 1-.076-.165.265.265 0 0 1 .046-.195.28.28 0 0 1 .17-.112l1.968-.269a.255.255 0 0 1 .193.059.244.244 0 0 1 .083.181.266.266 0 0 1-.216.304l-1.966.27-.032.002zm6.56-.889a.258.258 0 0 1-.246-.242.262.262 0 0 1 .047-.195.274.274 0 0 1 .171-.109l1.968-.264a.253.253 0 0 1 .252.142.238.238 0 0 1 .022.098.266.266 0 0 1-.216.305l-1.968.261-.03.004zm6.564-.865a.268.268 0 0 1-.171-.075.253.253 0 0 1-.075-.167.266.266 0 0 1 .046-.195.282.282 0 0 1 .172-.11l1.97-.253a.236.236 0 0 1 .102.011.255.255 0 0 1 .15.131.255.255 0 0 1 .022.098.266.266 0 0 1-.216.304l-1.97.254-.03.002zm6.568-.832a.263.263 0 0 1-.172-.075.252.252 0 0 1-.076-.169.264.264 0 0 1 .048-.194.275.275 0 0 1 .172-.108l1.97-.243a.265.265 0 0 1 .19.064.252.252 0 0 1 .084.179.265.265 0 0 1-.048.194.278.278 0 0 1-.172.108l-1.97.242-.026.002zm6.57-.794a.27.27 0 0 1-.173-.076.253.253 0 0 1-.075-.171.261.261 0 0 1 .049-.194.27.27 0 0 1 .173-.106l1.972-.231a.291.291 0 0 1 .101.015.276.276 0 0 1 .087.052c.025.023.045.05.06.081.014.03.022.063.024.096a.265.265 0 0 1-.048.195.273.273 0 0 1-.172.108l-1.972.229-.026.002zm6.576-.743a.266.266 0 0 1-.173-.077.253.253 0 0 1-.075-.171.26.26 0 0 1 .05-.194.275.275 0 0 1 .174-.106l1.974-.209a.238.238 0 0 1 .102.013.245.245 0 0 1 .168.233.265.265 0 0 1-.224.299l-1.972.211-.024.001zm21.163-.634a.249.249 0 0 1-.234-.182l-.252-.781c-.288 0-.588 0-.9.016a.274.274 0 0 1-.18-.086.26.26 0 0 1-.068-.184.256.256 0 0 1 .064-.188.269.269 0 0 1 .18-.091c.338 0 .662-.014.972-.016a.405.405 0 0 1 .374.27l.284.882a.282.282 0 0 1-.152.35.199.199 0 0 1-.084.006l-.004.004zm-14.582-.039a.266.266 0 0 1-.174-.079.257.257 0 0 1-.074-.173.266.266 0 0 1 .226-.297l1.978-.184a.269.269 0 0 1 .245.155.235.235 0 0 1 .021.097.253.253 0 0 1-.052.193.27.27 0 0 1-.176.102l-1.974.184-.02.002zm6.588-.565a.264.264 0 0 1-.175-.08.254.254 0 0 1-.071-.175.263.263 0 0 1 .23-.293c.688-.051 1.349-.096 1.982-.135.148-.024.254.107.262.258a.26.26 0 0 1-.056.191.275.275 0 0 1-.178.098c-.632.039-1.29.086-1.978.136h-.016z" fill="#fff"></path><path d="m450.953 402.507-13.826 1.953c-1.812.256-3.51-1.019-3.954-2.97l-3.3-14.496c-.526-2.308.898-4.607 3.042-4.911l16.61-2.344c2.1-.298 3.978 1.453 4.06 3.785l.516 14.888c.08 2.056-1.288 3.833-3.148 4.095z" fill="url(#21c83nvc8p)"></path><path d="m448.953 400.04-10.524 1.49c-1.378.195-2.672-.781-3-2.259l-2.51-11.034c-.4-1.757.684-3.515 2.316-3.738l12.642-1.79c1.6-.227 3.028 1.105 3.088 2.88l.4 11.326c.032 1.573-1.012 2.918-2.412 3.125z" fill="url(#xt7cx1ex1q)"></path><path d="M440.723 282.723c3.262 14.911 3.348 29.499 2.852 34.811-.188 2.001-1.642 3.566-3.458 3.71a604.8 604.8 0 0 1-7.374.529c-2.756.176-5.816-1.757-7.862-3.363-1.044-.824-2.4.457-1.812 1.721 1 2.175 2.752 3.89 4.484 5.347 1.042.875 4.506 2.431 4.264 4.157a3.184 3.184 0 0 1-.69 1.441c-1.926 2.557-4.838 3.922-7.714 4.898-.36.123-.74.254-1 .562-.072 2.057 5.646 4.342 7.122 4.883a14.928 14.928 0 0 0 6.878.884c5.754-.67 11.068-5.063 14.166-10.363 8.284-14.164 12.568-31.269 14.134-44.351-7.702-8.528-19.336-6.366-23.99-4.866z" fill="url(#w996v07s2r)"></path><path d="M464.719 288.933C470 213.5 431 193.5 431 193.5l-.5 36.5c8 21 7.143 38.235 10.651 54.278 4.654-1.5 15.86-3.869 23.568 4.655z" fill="#14097E"></path><path d="M152.357 590.583a3.29 3.29 0 0 0-.07-.76c-3.424-15.019-20.416-24.373-20.416-24.373l-6.733.586c-3.872 13.238-3.374 21.356-2.752 24.973.018.101.044.195.07.295 5.543.548 16.975.906 29.901-.721z" fill="#140A7F"></path><path d="M122.445 591.302c.3 1.208 1.104 2.148 2.136 2.388 7.902 1.839 20.46.359 25.732-.404 1.164-.168 2.014-1.367 2.034-2.703-12.916 1.627-24.348 1.269-29.902.719z" fill="#000"></path><path d="m122.42 552.934 2.852 16.604c.2 1.217.982 2.134 1.918 2.235 1.47.178 2.955.15 4.418-.086 1.472-.262 2.496-2.07 2.236-4.01l-1.982-14.743h-9.442z" fill="url(#c9xqn6l0ns)"></path><path d="M181.509 591.11c-7.438-.23-11.284-1.199-13.272-2.099 0 .818 0 1.652.024 2.513.024.922.642 1.658 1.4 1.652l40.832-.291c1.304 0 2.064-1.681 1.5-3.003-5.354.49-18.99 1.583-30.484 1.228z" fill="#000"></path><path d="M211.993 589.888a2.428 2.428 0 0 0-.162-.342c-3.6-5.575-12.79-16.677-30.938-21.492l-8.706-.303s-3.878 7.456-3.95 21.266c1.988.9 5.834 1.869 13.272 2.099 11.494.35 25.13-.744 30.484-1.228z" fill="#140A7F"></path><path d="M170.186 551.767c.136.749 1.948 12.162 2.65 16.583.166 1.051.867 1.822 1.701 1.876 1.49.099 3.896.109 5.962-.547 1.116-.354 1.866-1.682 1.786-3.155l-.974-18.048-11.125 3.291z" fill="url(#l868n4vsft)"></path><path d="M163.587 352.007s11.976 91.066 20.619 199.432a3.966 3.966 0 0 1-.768 2.638 4.142 4.142 0 0 1-2.316 1.552c-2.641.617-6.521 1.348-9.735 1.248-1.714-.053-3.148-1.46-3.436-3.333-2.944-19.107-23.954-121.649-29.47-144.218 0 0-6.334 95.866-4.308 145.602.05 1.236-.768 2.31-1.88 2.453-2.595.307-5.22.299-7.814-.025-1.304-.153-2.354-1.242-2.54-2.678-2.098-16.171-14.169-112.421-13.655-181.758.028-3.906 4.145-36.037 4.145-36.037l51.158 15.124z" fill="#0C0265"></path><path d="M110.63 357.262c-1.232-.485-2.09-1.719-2.224-3.158-1.6-17.097-9.304-123.109 39.379-166.72 0 0 2.79-8.082 25.74 11.788 22.95 19.869 10.66 40.692 5.166 69.418-6.648 34.76-18.312 63.172-13.152 84.557.356 1.476-.344 3.027-1.64 3.556-17.826 7.267-35.583 7.509-53.269.559z" fill="url(#mf4927redu)"></path><path d="M166.775 155.616c-.016 1.508-19.456 32.062-19.456 32.062s3.49 7.604 20.148 13.779l14.378-32.716-15.07-13.125z" fill="url(#9fa2e58wmv)"></path><path d="M182.079 138.107s6.918 17.576 7.382 26.813c.464 9.236 2.262 15.216-7.382 17.075-9.643 1.859-17.765-3.458-22.165-12.65 0 0-6.896-14.166-5.35-19.966 1.546-5.8 27.515-11.272 27.515-11.272z" fill="url(#xvj8v2p2pw)"></path><path d="m163.207 162.734.55-.267c.698-.342 1-1.262.646-2.012-1.36-2.907-4-9.569-.586-11.131 4.414-2.003 21.896-5.948 25.668-12.812 3.624-6.597.412-15.113-4.414-17.536a.643.643 0 0 0-.506-.031.634.634 0 0 0-.364.345l-.4.842c-.276.585-1.046.49-1.2-.137-.156-.602-.88-.719-1.18-.195-1.158 2.054-4.288 5.384-12.66 7.092-11.896 2.43-19.762 7.757-19.958 16.853-.012.586-.567.9-1.013.6-.878-.586-2.284-.871-4.162.876-3.268 3.041-1.93 10.936 5.231 17.414a.77.77 0 0 1-.03 1.16c-1.299.935-3.233 3.161 1.78 6.128 5.188 3.067 9.062 2.815 10.554 2.538a.734.734 0 0 0 .447-.331.706.706 0 0 0 .081-.542l-1.6-7.995c-.09-.451.222-.88.64-.88l2.476.021z" fill="#140A7F"></path><path d="M163.508 164.422s-2.638-11.231-7.2-8.083c-4.563 3.148 2.362 12.586 6.02 13.006l1.18-4.923z" fill="url(#mp95m9ekjx)"></path><path d="m180.907 208.385 1.34 39.837a91.412 91.412 0 0 0 10.882 3.42c2.16-7.691 6.912-17.131 10.8-24.149-14.296-5.599-23.022-19.108-23.022-19.108z" fill="url(#y9hejln32y)"></path><path d="M252.306 207.708c-19.618 23.434-35.496 24.818-48.371 19.78-3.894 7.018-8.646 16.458-10.8 24.149 52.399 12.781 64.725-40.514 64.725-40.514l-5.554-3.415z" fill="url(#p4d8wyqw5z)"></path><path d="M256.284 205.217s2.26-2.685 6.442-1.841c4.182.844 7.906 2.453 10.512 0 2.606-2.453 3.522.84 3.522.84l-7.8 6.563-12.676-5.562z" fill="url(#sxzf7h0cdA)"></path><path d="M251.618 209.809s1.548-7.165 6.214-6.182c4.666.982 15.26 7.356 17.99 6.182 2.73-1.173 6.22-3.985 8.012-2.991l-3.154 4.339s8.11-5.177 9.506-1.996l-13.496 8.397s-19.734-2.181-25.072-7.749z" fill="url(#xs4acioygB)"></path><path d="M159.129 260.517s36.881 34.175 76.709 19.265a8.668 8.668 0 0 1 7.476.625l11.442 6.69c4.799 2.808 10.757.965 13.545-4.196 1.6-2.945 2.948-6.308 3.218-9.53l-22.399-10.036 1.652-3.04s-10.938-1.025-13.8 7.649c0 0-20.834 9.59-55.971-33.174.002 0-15.942 15.001-21.872 25.747z" fill="url(#c071mud0rC)"></path></g><ellipse cx="233.895" cy="86.421" rx="9.2" ry="8.994" fill="#F9F9F9"></ellipse><ellipse cx="499.683" cy="167.363" rx="10.223" ry="9.993" fill="#F9F9F9"></ellipse><defs><linearGradient id="3awy3vz5wc" x1="245.808" y1="277.113" x2="252.827" y2="274.621" gradientUnits="userSpaceOnUse"><stop stop-color="#FEBBBA"></stop><stop offset="1" stop-color="#FF928E"></stop></linearGradient><linearGradient id="ixqdsbfa9d" x1="395.046" y1="206.776" x2="384.205" y2="173.47" gradientUnits="userSpaceOnUse"><stop stop-color="#FEBBBA"></stop><stop offset="1" stop-color="#FF928E"></stop></linearGradient><linearGradient id="d52p9m6qne" x1="365.639" y1="149.888" x2="401.273" y2="165.756" gradientUnits="userSpaceOnUse"><stop stop-color="#FEBBBA"></stop><stop offset="1" stop-color="#FF928E"></stop></linearGradient><linearGradient id="gqnu9hitzf" x1="362.942" y1="156.448" x2="399.676" y2="172.805" gradientUnits="userSpaceOnUse"><stop stop-color="#FEBBBA"></stop><stop offset="1" stop-color="#FF928E"></stop></linearGradient><linearGradient id="dwxup18zzg" x1="431.521" y1="566.018" x2="418.469" y2="566.018" gradientUnits="userSpaceOnUse"><stop stop-color="#FEBBBA"></stop><stop offset="1" stop-color="#FF928E"></stop></linearGradient><linearGradient id="a4dmaaw76h" x1="514.496" y1="553.977" x2="498.899" y2="553.977" gradientUnits="userSpaceOnUse"><stop stop-color="#FEBBBA"></stop><stop offset="1" stop-color="#FF928E"></stop></linearGradient><linearGradient id="q70hjy5dmi" x1="434.569" y1="339.626" x2="440.686" y2="385.039" gradientUnits="userSpaceOnUse"><stop stop-color="#E1473D"></stop><stop offset="1" stop-color="#E9605A"></stop></linearGradient><linearGradient id="a67r8zkl7j" x1="415.734" y1="357.886" x2="412.996" y2="341.412" gradientUnits="userSpaceOnUse"><stop stop-color="#E1473D"></stop><stop offset="1" stop-color="#E9605A"></stop></linearGradient><linearGradient id="j6l1cbu20k" x1="411.688" y1="332.797" x2="421.211" y2="381.099" gradientUnits="userSpaceOnUse"><stop stop-color="#E1473D"></stop><stop offset="1" stop-color="#E9605A"></stop></linearGradient><linearGradient id="zvjh4qds1l" x1="458.583" y1="349.879" x2="455.844" y2="333.405" gradientUnits="userSpaceOnUse"><stop stop-color="#E1473D"></stop><stop offset="1" stop-color="#E9605A"></stop></linearGradient><linearGradient id="c98bdv76fm" x1="454.215" y1="323.303" x2="463.741" y2="371.627" gradientUnits="userSpaceOnUse"><stop stop-color="#E1473D"></stop><stop offset="1" stop-color="#E9605A"></stop></linearGradient><linearGradient id="yem0l3ivvn" x1="434.011" y1="301.858" x2="433.729" y2="337.337" gradientUnits="userSpaceOnUse"><stop stop-color="#FF928E"></stop><stop offset="1" stop-color="#FE7062"></stop></linearGradient><linearGradient id="il4caxg3no" x1="439.689" y1="430.436" x2="439.169" y2="369.156" gradientUnits="userSpaceOnUse"><stop stop-color="#FF928E"></stop><stop offset="1" stop-color="#FE7062"></stop></linearGradient><linearGradient id="21c83nvc8p" x1="438.283" y1="408.86" x2="443.927" y2="382.056" gradientUnits="userSpaceOnUse"><stop stop-color="#E1473D"></stop><stop offset="1" stop-color="#E9605A"></stop></linearGradient><linearGradient id="xt7cx1ex1q" x1="433.593" y1="393.311" x2="451.706" y2="390.935" gradientUnits="userSpaceOnUse"><stop stop-color="#FF928E"></stop><stop offset="1" stop-color="#FE7062"></stop></linearGradient><linearGradient id="w996v07s2r" x1="454.059" y1="291.62" x2="416.691" y2="365.217" gradientUnits="userSpaceOnUse"><stop stop-color="#FEBBBA"></stop><stop offset="1" stop-color="#FF928E"></stop></linearGradient><linearGradient id="c9xqn6l0ns" x1="130.692" y1="537.076" x2="123.24" y2="598.015" gradientUnits="userSpaceOnUse"><stop stop-color="#FEBBBA"></stop><stop offset="1" stop-color="#FF928E"></stop></linearGradient><linearGradient id="l868n4vsft" x1="177.035" y1="544.057" x2="173.906" y2="603.419" gradientUnits="userSpaceOnUse"><stop stop-color="#FEBBBA"></stop><stop offset="1" stop-color="#FF928E"></stop></linearGradient><linearGradient id="mf4927redu" x1="191.837" y1="272.205" x2="105.035" y2="273.575" gradientUnits="userSpaceOnUse"><stop stop-color="#FFD000"></stop><stop offset="1" stop-color="#FF7300"></stop></linearGradient><linearGradient id="9fa2e58wmv" x1="140.715" y1="193.882" x2="181.845" y2="168.81" gradientUnits="userSpaceOnUse"><stop stop-color="#FEBBBA"></stop><stop offset="1" stop-color="#FF928E"></stop></linearGradient><linearGradient id="xvj8v2p2pw" x1="186.787" y1="176.718" x2="162.153" y2="139.648" gradientUnits="userSpaceOnUse"><stop stop-color="#FEBBBA"></stop><stop offset="1" stop-color="#FF928E"></stop></linearGradient><linearGradient id="mp95m9ekjx" x1="175.597" y1="185.375" x2="150.538" y2="147.662" gradientUnits="userSpaceOnUse"><stop stop-color="#FEBBBA"></stop><stop offset="1" stop-color="#FF928E"></stop></linearGradient><linearGradient id="y9hejln32y" x1="205.341" y1="229.564" x2="180.345" y2="230.028" gradientUnits="userSpaceOnUse"><stop stop-color="#FFD000"></stop><stop offset="1" stop-color="#FF7300"></stop></linearGradient><linearGradient id="p4d8wyqw5z" x1="280.047" y1="207.429" x2="193.571" y2="251.484" gradientUnits="userSpaceOnUse"><stop stop-color="#FEBBBA"></stop><stop offset="1" stop-color="#FF928E"></stop></linearGradient><linearGradient id="sxzf7h0cdA" x1="277.136" y1="193.889" x2="248.469" y2="224.554" gradientUnits="userSpaceOnUse"><stop stop-color="#FEBBBA"></stop><stop offset="1" stop-color="#FF928E"></stop></linearGradient><linearGradient id="xs4acioygB" x1="278.68" y1="204.589" x2="194.573" y2="247.439" gradientUnits="userSpaceOnUse"><stop stop-color="#FEBBBA"></stop><stop offset="1" stop-color="#FF928E"></stop></linearGradient><linearGradient id="c071mud0rC" x1="314.515" y1="280.241" x2="68.044" y2="234.594" gradientUnits="userSpaceOnUse"><stop stop-color="#FEBBBA"></stop><stop offset="1" stop-color="#FF928E"></stop></linearGradient><clipPath id="ykx7ypb6xb"><path fill="#fff" transform="translate(107 118.915)" d="M0 0h421.172v473.661H0z"></path></clipPath></defs></svg>