<svg xmlns="http://www.w3.org/2000/svg" width="592" height="444" viewBox="0 0 592 444" fill="none"><path fill-rule="evenodd" clip-rule="evenodd" d="M278.52 15.9436C248.534 28.7004 220.02 56.0167 197.574 81.4849C150.816 134.518 143.829 145.667 86.1578 190.192C52.5377 216.143 26.0325 238.089 12.9729 267.443C-23.7119 349.894 19.9835 438.949 111.543 438.949H483.744C483.744 438.949 527.517 440.094 559.475 396.01C667.76 246.643 488.159 -73.2501 278.52 15.9436Z" fill="#ECF4F3"></path><path d="M448.561 88.4033H412.087C409.682 88.4033 407.737 90.8961 407.737 93.9441V109.157C407.737 112.205 409.693 114.698 412.087 114.698H417.403V124.741C417.403 126.906 418.64 127.549 419.927 126.369L432.388 114.935C432.476 114.855 432.564 114.773 432.655 114.698H448.561C450.965 114.698 452.91 112.205 452.91 109.157V93.9494C452.91 90.9015 450.955 88.4087 448.561 88.4087" fill="#43B97F"></path><path d="M426.099 100.738C426.099 101.28 425.975 101.777 425.727 102.23C425.479 102.674 425.097 103.033 424.583 103.308C424.069 103.584 423.43 103.721 422.668 103.721H421.258V107.077H418.983V97.7285H422.668C423.413 97.7285 424.042 97.8572 424.556 98.1147C425.071 98.3722 425.456 98.7273 425.714 99.1801C425.971 99.6329 426.099 100.152 426.099 100.738ZM422.495 101.91C422.929 101.91 423.253 101.808 423.466 101.604C423.679 101.4 423.785 101.111 423.785 100.738C423.785 100.365 423.679 100.077 423.466 99.8726C423.253 99.6684 422.929 99.5663 422.495 99.5663H421.258V101.91H422.495Z" fill="white"></path><path d="M435.424 97.7285V107.077H433.149V103.228H429.611V107.077H427.337V97.7285H429.611V101.391H433.149V97.7285H435.424Z" fill="white"></path><path d="M444.235 100.738C444.235 101.28 444.11 101.777 443.862 102.23C443.614 102.674 443.233 103.033 442.718 103.308C442.204 103.584 441.566 103.721 440.803 103.721H439.393V107.077H437.119V97.7285H440.803C441.548 97.7285 442.177 97.8572 442.692 98.1147C443.206 98.3722 443.592 98.7273 443.849 99.1801C444.106 99.6329 444.235 100.152 444.235 100.738ZM440.63 101.91C441.065 101.91 441.388 101.808 441.601 101.604C441.814 101.4 441.92 101.111 441.92 100.738C441.92 100.365 441.814 100.077 441.601 99.8726C441.388 99.6684 441.065 99.5663 440.63 99.5663H439.393V101.91H440.63Z" fill="white"></path><path d="M83.7021 55.1904H307.907V190.326C307.907 191.431 307.012 192.326 305.907 192.326H85.7022C84.5976 192.326 83.7021 191.431 83.7021 190.326V55.1904Z" fill="#EEF9F5"></path><path fill-rule="evenodd" clip-rule="evenodd" d="M175.793 182.448H241.112C241.466 182.448 241.806 182.308 242.056 182.057C242.307 181.807 242.447 181.468 242.447 181.114C242.447 180.76 242.307 180.42 242.056 180.17C241.806 179.92 241.466 179.779 241.112 179.779H175.793C175.439 179.779 175.099 179.92 174.848 180.17C174.598 180.42 174.457 180.76 174.457 181.114C174.457 181.468 174.598 181.807 174.848 182.057C175.099 182.308 175.439 182.448 175.793 182.448Z" fill="#EB6502"></path><path fill-rule="evenodd" clip-rule="evenodd" d="M248.343 182.448H264.372C264.726 182.448 265.066 182.308 265.316 182.057C265.567 181.807 265.708 181.468 265.708 181.114C265.708 180.76 265.567 180.42 265.316 180.17C265.066 179.92 264.726 179.779 264.372 179.779H248.343C247.988 179.779 247.649 179.92 247.398 180.17C247.148 180.42 247.007 180.76 247.007 181.114C247.007 181.468 247.148 181.807 247.398 182.057C247.649 182.308 247.988 182.448 248.343 182.448Z" fill="#A8E3C6"></path><path fill-rule="evenodd" clip-rule="evenodd" d="M168.719 176.639H184.748C185.102 176.639 185.442 176.498 185.692 176.248C185.943 175.998 186.083 175.658 186.083 175.304C186.083 174.95 185.943 174.611 185.692 174.361C185.442 174.11 185.102 173.97 184.748 173.97H168.719C168.364 173.97 168.025 174.11 167.774 174.361C167.524 174.611 167.383 174.95 167.383 175.304C167.383 175.658 167.524 175.998 167.774 176.248C168.025 176.498 168.364 176.639 168.719 176.639Z" fill="#A8E3C6"></path><path fill-rule="evenodd" clip-rule="evenodd" d="M175.793 170.828H199.837C200.191 170.828 200.531 170.688 200.781 170.437C201.032 170.187 201.172 169.848 201.172 169.494C201.172 169.14 201.032 168.8 200.781 168.55C200.531 168.3 200.191 168.159 199.837 168.159H175.793C175.439 168.159 175.099 168.3 174.848 168.55C174.598 168.8 174.457 169.14 174.457 169.494C174.457 169.848 174.598 170.187 174.848 170.437C175.099 170.688 175.439 170.828 175.793 170.828Z" fill="#A8E3C6"></path><path fill-rule="evenodd" clip-rule="evenodd" d="M175.873 165.015H195.602C195.956 165.015 196.296 164.874 196.547 164.624C196.797 164.374 196.938 164.034 196.938 163.68C196.938 163.326 196.797 162.987 196.547 162.737C196.296 162.486 195.956 162.346 195.602 162.346H175.873C175.519 162.346 175.179 162.486 174.928 162.737C174.678 162.987 174.537 163.326 174.537 163.68C174.537 164.034 174.678 164.374 174.928 164.624C175.179 164.874 175.519 165.015 175.873 165.015Z" fill="#A8E3C6"></path><path fill-rule="evenodd" clip-rule="evenodd" d="M175.873 159.205H235.769C236.123 159.205 236.463 159.064 236.713 158.814C236.964 158.564 237.104 158.225 237.104 157.871C237.104 157.517 236.964 157.177 236.713 156.927C236.463 156.677 236.123 156.536 235.769 156.536H175.873C175.519 156.536 175.179 156.677 174.928 156.927C174.678 157.177 174.537 157.517 174.537 157.871C174.537 158.225 174.678 158.564 174.928 158.814C175.179 159.064 175.519 159.205 175.873 159.205Z" fill="#A8E3C6"></path><path fill-rule="evenodd" clip-rule="evenodd" d="M207.313 170.828H223.033C223.387 170.828 223.727 170.688 223.977 170.437C224.228 170.187 224.368 169.848 224.368 169.494C224.368 169.14 224.228 168.8 223.977 168.55C223.727 168.3 223.387 168.159 223.033 168.159H207.313C206.959 168.159 206.619 168.3 206.369 168.55C206.118 168.8 205.978 169.14 205.978 169.494C205.978 169.848 206.118 170.187 206.369 170.437C206.619 170.688 206.959 170.828 207.313 170.828Z" fill="#A8E3C6"></path><path fill-rule="evenodd" clip-rule="evenodd" d="M201.377 165.015H248.107C248.461 165.015 248.801 164.874 249.052 164.624C249.302 164.374 249.443 164.034 249.443 163.68C249.443 163.326 249.302 162.987 249.052 162.737C248.801 162.486 248.461 162.346 248.107 162.346H201.377C201.023 162.346 200.683 162.486 200.432 162.737C200.182 162.987 200.041 163.326 200.041 163.68C200.041 164.034 200.182 164.374 200.432 164.624C200.683 164.874 201.023 165.015 201.377 165.015Z" fill="#EB6502"></path><path fill-rule="evenodd" clip-rule="evenodd" d="M255.141 165.015H267.679C268.033 165.015 268.373 164.874 268.623 164.624C268.874 164.374 269.015 164.034 269.015 163.68C269.015 163.326 268.874 162.987 268.623 162.737C268.373 162.486 268.033 162.346 267.679 162.346H255.141C254.787 162.346 254.447 162.486 254.197 162.737C253.946 162.987 253.806 163.326 253.806 163.68C253.806 164.034 253.946 164.374 254.197 164.624C254.447 164.874 254.787 165.015 255.141 165.015Z" fill="#6CD6FF"></path><path fill-rule="evenodd" clip-rule="evenodd" d="M274.243 165.015H286.781C287.135 165.015 287.475 164.874 287.725 164.624C287.976 164.374 288.116 164.034 288.116 163.68C288.116 163.326 287.976 162.987 287.725 162.737C287.475 162.486 287.135 162.346 286.781 162.346H274.243C273.889 162.346 273.549 162.486 273.298 162.737C273.048 162.987 272.907 163.326 272.907 163.68C272.907 164.034 273.048 164.374 273.298 164.624C273.549 164.874 273.889 165.015 274.243 165.015Z" fill="#FCCF00"></path><path fill-rule="evenodd" clip-rule="evenodd" d="M168.719 153.354H184.748C185.102 153.354 185.442 153.214 185.692 152.964C185.943 152.713 186.083 152.374 186.083 152.02C186.083 151.666 185.943 151.327 185.692 151.076C185.442 150.826 185.102 150.686 184.748 150.686H168.719C168.364 150.686 168.025 150.826 167.774 151.076C167.524 151.327 167.383 151.666 167.383 152.02C167.383 152.374 167.524 152.713 167.774 152.964C168.025 153.214 168.364 153.354 168.719 153.354Z" fill="#A8E3C6"></path><path fill-rule="evenodd" clip-rule="evenodd" d="M175.793 102.278H199.837C200.191 102.278 200.531 102.138 200.781 101.887C201.032 101.637 201.172 101.298 201.172 100.944C201.172 100.59 201.032 100.25 200.781 100C200.531 99.75 200.191 99.6094 199.837 99.6094H175.793C175.439 99.6094 175.099 99.75 174.848 100C174.598 100.25 174.457 100.59 174.457 100.944C174.457 101.298 174.598 101.637 174.848 101.887C175.099 102.138 175.439 102.278 175.793 102.278Z" fill="#A8E3C6"></path><path fill-rule="evenodd" clip-rule="evenodd" d="M175.873 96.4688H195.602C195.956 96.4688 196.296 96.3282 196.547 96.0779C196.797 95.8276 196.938 95.4882 196.938 95.1343C196.938 94.7804 196.797 94.4409 196.547 94.1907C196.296 93.9404 195.956 93.7998 195.602 93.7998H175.873C175.519 93.7998 175.179 93.9404 174.928 94.1907C174.678 94.4409 174.537 94.7804 174.537 95.1343C174.537 95.4882 174.678 95.8276 174.928 96.0779C175.179 96.3282 175.519 96.4688 175.873 96.4688Z" fill="#A8E3C6"></path><path fill-rule="evenodd" clip-rule="evenodd" d="M175.873 90.6582H235.769C236.123 90.6582 236.463 90.5176 236.713 90.2673C236.964 90.0171 237.104 89.6777 237.104 89.3237C237.104 88.9698 236.964 88.6304 236.713 88.3801C236.463 88.1299 236.123 87.9893 235.769 87.9893H175.873C175.519 87.9893 175.179 88.1299 174.928 88.3801C174.678 88.6304 174.537 88.9698 174.537 89.3237C174.537 89.6777 174.678 90.0171 174.928 90.2673C175.179 90.5176 175.519 90.6582 175.873 90.6582Z" fill="#6CD6FF"></path><path fill-rule="evenodd" clip-rule="evenodd" d="M207.313 102.278H223.033C223.387 102.278 223.727 102.138 223.977 101.887C224.228 101.637 224.368 101.298 224.368 100.944C224.368 100.59 224.228 100.25 223.977 100C223.727 99.75 223.387 99.6094 223.033 99.6094H207.313C206.959 99.6094 206.619 99.75 206.369 100C206.118 100.25 205.978 100.59 205.978 100.944C205.978 101.298 206.118 101.637 206.369 101.887C206.619 102.138 206.959 102.278 207.313 102.278Z" fill="#A8E3C6"></path><path fill-rule="evenodd" clip-rule="evenodd" d="M201.377 96.4688H248.107C248.461 96.4688 248.801 96.3282 249.052 96.0779C249.302 95.8276 249.443 95.4882 249.443 95.1343C249.443 94.7804 249.302 94.4409 249.052 94.1907C248.801 93.9404 248.461 93.7998 248.107 93.7998H201.377C201.023 93.7998 200.683 93.9404 200.432 94.1907C200.182 94.4409 200.041 94.7804 200.041 95.1343C200.041 95.4882 200.182 95.8276 200.432 96.0779C200.683 96.3282 201.023 96.4688 201.377 96.4688Z" fill="#C84E96"></path><path fill-rule="evenodd" clip-rule="evenodd" d="M255.141 96.4688H267.679C268.033 96.4688 268.373 96.3282 268.623 96.0779C268.874 95.8276 269.015 95.4882 269.015 95.1343C269.015 94.7804 268.874 94.4409 268.623 94.1907C268.373 93.9404 268.033 93.7998 267.679 93.7998H255.141C254.787 93.7998 254.447 93.9404 254.197 94.1907C253.946 94.4409 253.806 94.7804 253.806 95.1343C253.806 95.4882 253.946 95.8276 254.197 96.0779C254.447 96.3282 254.787 96.4688 255.141 96.4688Z" fill="#FCCF00"></path><path fill-rule="evenodd" clip-rule="evenodd" d="M274.243 96.4688H286.781C287.135 96.4688 287.475 96.3282 287.725 96.0779C287.976 95.8276 288.116 95.4882 288.116 95.1343C288.116 94.7804 287.976 94.4409 287.725 94.1907C287.475 93.9404 287.135 93.7998 286.781 93.7998H274.243C273.889 93.7998 273.549 93.9404 273.298 94.1907C273.048 94.4409 272.907 94.7804 272.907 95.1343C272.907 95.4882 273.048 95.8276 273.298 96.0779C273.549 96.3282 273.889 96.4688 274.243 96.4688Z" fill="#A8E3C6"></path><path fill-rule="evenodd" clip-rule="evenodd" d="M176.185 145.591H192.215C192.569 145.591 192.909 145.45 193.159 145.2C193.41 144.95 193.55 144.61 193.55 144.256C193.55 143.902 193.41 143.563 193.159 143.313C192.909 143.062 192.569 142.922 192.215 142.922H176.185C175.831 142.922 175.491 143.062 175.241 143.313C174.99 143.563 174.85 143.902 174.85 144.256C174.85 144.61 174.99 144.95 175.241 145.2C175.491 145.45 175.831 145.591 176.185 145.591Z" fill="#A8E3C6"></path><path fill-rule="evenodd" clip-rule="evenodd" d="M175.793 139.78H199.837C200.191 139.78 200.531 139.64 200.781 139.389C201.032 139.139 201.172 138.8 201.172 138.446C201.172 138.092 201.032 137.752 200.781 137.502C200.531 137.252 200.191 137.111 199.837 137.111H175.793C175.439 137.111 175.099 137.252 174.848 137.502C174.598 137.752 174.457 138.092 174.457 138.446C174.457 138.8 174.598 139.139 174.848 139.389C175.099 139.64 175.439 139.78 175.793 139.78Z" fill="#A8E3C6"></path><path fill-rule="evenodd" clip-rule="evenodd" d="M175.873 133.967H195.602C195.956 133.967 196.296 133.826 196.547 133.576C196.797 133.326 196.938 132.986 196.938 132.632C196.938 132.278 196.797 131.939 196.547 131.689C196.296 131.438 195.956 131.298 195.602 131.298H175.873C175.519 131.298 175.179 131.438 174.928 131.689C174.678 131.939 174.537 132.278 174.537 132.632C174.537 132.986 174.678 133.326 174.928 133.576C175.179 133.826 175.519 133.967 175.873 133.967Z" fill="#A8E3C6"></path><path fill-rule="evenodd" clip-rule="evenodd" d="M175.873 128.157H201.755C202.109 128.157 202.449 128.017 202.699 127.766C202.95 127.516 203.09 127.177 203.09 126.823C203.09 126.469 202.95 126.129 202.699 125.879C202.449 125.629 202.109 125.488 201.755 125.488H175.873C175.519 125.488 175.179 125.629 174.928 125.879C174.678 126.129 174.537 126.469 174.537 126.823C174.537 127.177 174.678 127.516 174.928 127.766C175.179 128.017 175.519 128.157 175.873 128.157Z" fill="#FCCF00"></path><path fill-rule="evenodd" clip-rule="evenodd" d="M207.313 139.78H223.033C223.387 139.78 223.727 139.64 223.977 139.389C224.228 139.139 224.368 138.8 224.368 138.446C224.368 138.092 224.228 137.752 223.977 137.502C223.727 137.252 223.387 137.111 223.033 137.111H207.313C206.959 137.111 206.619 137.252 206.369 137.502C206.118 137.752 205.978 138.092 205.978 138.446C205.978 138.8 206.118 139.139 206.369 139.389C206.619 139.64 206.959 139.78 207.313 139.78Z" fill="#A8E3C6"></path><path fill-rule="evenodd" clip-rule="evenodd" d="M201.377 133.967H248.107C248.461 133.967 248.801 133.826 249.052 133.576C249.302 133.326 249.443 132.986 249.443 132.632C249.443 132.278 249.302 131.939 249.052 131.689C248.801 131.438 248.461 131.298 248.107 131.298H201.377C201.023 131.298 200.683 131.438 200.432 131.689C200.182 131.939 200.041 132.278 200.041 132.632C200.041 132.986 200.182 133.326 200.432 133.576C200.683 133.826 201.023 133.967 201.377 133.967Z" fill="#EF8200"></path><path fill-rule="evenodd" clip-rule="evenodd" d="M255.141 133.967H267.679C268.033 133.967 268.373 133.826 268.623 133.576C268.874 133.326 269.015 132.986 269.015 132.632C269.015 132.278 268.874 131.939 268.623 131.689C268.373 131.438 268.033 131.298 267.679 131.298H255.141C254.787 131.298 254.447 131.438 254.197 131.689C253.946 131.939 253.806 132.278 253.806 132.632C253.806 132.986 253.946 133.326 254.197 133.576C254.447 133.826 254.787 133.967 255.141 133.967Z" fill="#A8E3C6"></path><path fill-rule="evenodd" clip-rule="evenodd" d="M274.243 133.967H286.781C287.135 133.967 287.475 133.826 287.725 133.576C287.976 133.326 288.116 132.986 288.116 132.632C288.116 132.278 287.976 131.939 287.725 131.689C287.475 131.438 287.135 131.298 286.781 131.298H274.243C273.889 131.298 273.549 131.438 273.298 131.689C273.048 131.939 272.907 132.278 272.907 132.632C272.907 132.986 273.048 133.326 273.298 133.576C273.549 133.826 273.889 133.967 274.243 133.967Z" fill="#A8E3C6"></path><path fill-rule="evenodd" clip-rule="evenodd" d="M194.945 84.6445H241.673C242.027 84.6445 242.367 84.5039 242.617 84.2537C242.868 84.0034 243.009 83.664 243.009 83.3101C243.009 82.9561 242.868 82.6167 242.617 82.3664C242.367 82.1162 242.027 81.9756 241.673 81.9756H194.945C194.591 81.9756 194.251 82.1162 194.001 82.3664C193.75 82.6167 193.609 82.9561 193.609 83.3101C193.609 83.664 193.75 84.0034 194.001 84.2537C194.251 84.5039 194.591 84.6445 194.945 84.6445Z" fill="#A8E3C6"></path><path fill-rule="evenodd" clip-rule="evenodd" d="M248.698 84.6445H261.233C261.587 84.6445 261.927 84.5039 262.177 84.2537C262.428 84.0034 262.569 83.664 262.569 83.3101C262.569 82.9561 262.428 82.6167 262.177 82.3664C261.927 82.1162 261.587 81.9756 261.233 81.9756H248.698C248.344 81.9756 248.004 82.1162 247.754 82.3664C247.503 82.6167 247.362 82.9561 247.362 83.3101C247.362 83.664 247.503 84.0034 247.754 84.2537C248.004 84.5039 248.344 84.6445 248.698 84.6445Z" fill="#A8E3C6"></path><path fill-rule="evenodd" clip-rule="evenodd" d="M267.797 84.6445H280.334C280.688 84.6445 281.028 84.5039 281.279 84.2537C281.529 84.0034 281.67 83.664 281.67 83.3101C281.67 82.9561 281.529 82.6167 281.279 82.3664C281.028 82.1162 280.688 81.9756 280.334 81.9756H267.797C267.442 81.9756 267.103 82.1162 266.852 82.3664C266.602 82.6167 266.461 82.9561 266.461 83.3101C266.461 83.664 266.602 84.0034 266.852 84.2537C267.103 84.5039 267.442 84.6445 267.797 84.6445Z" fill="#A8E3C6"></path><path fill-rule="evenodd" clip-rule="evenodd" d="M194.945 79.1494H215.38C215.734 79.1494 216.074 79.0088 216.324 78.7586C216.575 78.5083 216.715 78.1689 216.715 77.8149C216.715 77.461 216.575 77.1216 216.324 76.8713C216.074 76.6211 215.734 76.4805 215.38 76.4805H194.945C194.591 76.4805 194.251 76.6211 194.001 76.8713C193.75 77.1216 193.609 77.461 193.609 77.8149C193.609 78.1689 193.75 78.5083 194.001 78.7586C194.251 79.0088 194.591 79.1494 194.945 79.1494Z" fill="#C84E96"></path><path fill-rule="evenodd" clip-rule="evenodd" d="M222.522 79.1494H254.581C254.935 79.1494 255.275 79.0088 255.525 78.7586C255.776 78.5083 255.916 78.1689 255.916 77.8149C255.916 77.461 255.776 77.1216 255.525 76.8713C255.275 76.6211 254.935 76.4805 254.581 76.4805H222.522C222.168 76.4805 221.828 76.6211 221.578 76.8713C221.327 77.1216 221.187 77.461 221.187 77.8149C221.187 78.1689 221.327 78.5083 221.578 78.7586C221.828 79.0088 222.168 79.1494 222.522 79.1494Z" fill="#EB6502"></path><path fill-rule="evenodd" clip-rule="evenodd" d="M262.786 79.1494H289.806C290.16 79.1494 290.5 79.0088 290.75 78.7586C291.001 78.5083 291.142 78.1689 291.142 77.8149C291.142 77.461 291.001 77.1216 290.75 76.8713C290.5 76.6211 290.16 76.4805 289.806 76.4805H262.786C262.432 76.4805 262.092 76.6211 261.841 76.8713C261.591 77.1216 261.45 77.461 261.45 77.8149C261.45 78.1689 261.591 78.5083 261.841 78.7586C262.092 79.0088 262.432 79.1494 262.786 79.1494Z" fill="#A8E3C6"></path><path fill-rule="evenodd" clip-rule="evenodd" d="M194.945 122.359H241.673C242.027 122.359 242.367 122.219 242.617 121.969C242.868 121.718 243.009 121.379 243.009 121.025C243.009 120.671 242.868 120.332 242.617 120.081C242.367 119.831 242.027 119.69 241.673 119.69H194.945C194.591 119.69 194.251 119.831 194.001 120.081C193.75 120.332 193.609 120.671 193.609 121.025C193.609 121.379 193.75 121.718 194.001 121.969C194.251 122.219 194.591 122.359 194.945 122.359Z" fill="#A8E3C6"></path><path fill-rule="evenodd" clip-rule="evenodd" d="M248.698 122.359H261.233C261.587 122.359 261.927 122.219 262.177 121.969C262.428 121.718 262.569 121.379 262.569 121.025C262.569 120.671 262.428 120.332 262.177 120.081C261.927 119.831 261.587 119.69 261.233 119.69H248.698C248.344 119.69 248.004 119.831 247.754 120.081C247.503 120.332 247.362 120.671 247.362 121.025C247.362 121.379 247.503 121.718 247.754 121.969C248.004 122.219 248.344 122.359 248.698 122.359Z" fill="#A8E3C6"></path><path fill-rule="evenodd" clip-rule="evenodd" d="M267.797 122.359H280.334C280.688 122.359 281.028 122.219 281.279 121.969C281.529 121.718 281.67 121.379 281.67 121.025C281.67 120.671 281.529 120.332 281.279 120.081C281.028 119.831 280.688 119.69 280.334 119.69H267.797C267.442 119.69 267.103 119.831 266.852 120.081C266.602 120.332 266.461 120.671 266.461 121.025C266.461 121.379 266.602 121.718 266.852 121.969C267.103 122.219 267.442 122.359 267.797 122.359Z" fill="#A8E3C6"></path><path fill-rule="evenodd" clip-rule="evenodd" d="M194.945 116.194H215.38C215.734 116.194 216.074 116.054 216.324 115.803C216.575 115.553 216.715 115.214 216.715 114.86C216.715 114.506 216.575 114.167 216.324 113.916C216.074 113.666 215.734 113.525 215.38 113.525H194.945C194.591 113.525 194.251 113.666 194.001 113.916C193.75 114.167 193.609 114.506 193.609 114.86C193.609 115.214 193.75 115.553 194.001 115.803C194.251 116.054 194.591 116.194 194.945 116.194Z" fill="#A8E3C6"></path><path fill-rule="evenodd" clip-rule="evenodd" d="M222.522 116.194H254.581C254.935 116.194 255.275 116.054 255.525 115.803C255.776 115.553 255.916 115.214 255.916 114.86C255.916 114.506 255.776 114.167 255.525 113.916C255.275 113.666 254.935 113.525 254.581 113.525H222.522C222.168 113.525 221.828 113.666 221.578 113.916C221.327 114.167 221.187 114.506 221.187 114.86C221.187 115.214 221.327 115.553 221.578 115.803C221.828 116.054 222.168 116.194 222.522 116.194Z" fill="#A8E3C6"></path><path fill-rule="evenodd" clip-rule="evenodd" d="M262.786 116.194H289.806C290.16 116.194 290.5 116.054 290.75 115.803C291.001 115.553 291.142 115.214 291.142 114.86C291.142 114.506 291.001 114.167 290.75 113.916C290.5 113.666 290.16 113.525 289.806 113.525H262.786C262.432 113.525 262.092 113.666 261.841 113.916C261.591 114.167 261.45 114.506 261.45 114.86C261.45 115.214 261.591 115.553 261.841 115.803C262.092 116.054 262.432 116.194 262.786 116.194Z" fill="#A8E3C6"></path><path d="M131.235 64.668H95.5176C94.413 64.668 93.5176 65.5634 93.5176 66.668V185.57C93.5176 186.675 94.413 187.57 95.5176 187.57H131.235C132.34 187.57 133.235 186.675 133.235 185.57V66.668C133.235 65.5634 132.34 64.668 131.235 64.668Z" fill="#43B97F"></path><path fill-rule="evenodd" clip-rule="evenodd" d="M207.33 128.157H221.262C221.616 128.157 221.956 128.017 222.206 127.766C222.457 127.516 222.598 127.177 222.598 126.823C222.598 126.469 222.457 126.129 222.206 125.879C221.956 125.629 221.616 125.488 221.262 125.488H207.33C206.976 125.488 206.636 125.629 206.385 125.879C206.135 126.129 205.994 126.469 205.994 126.823C205.994 127.177 206.135 127.516 206.385 127.766C206.636 128.017 206.976 128.157 207.33 128.157Z" fill="#EF8200"></path><path fill-rule="evenodd" clip-rule="evenodd" d="M226.135 128.157H240.067C240.421 128.157 240.761 128.017 241.011 127.766C241.262 127.516 241.402 127.177 241.402 126.823C241.402 126.469 241.262 126.129 241.011 125.879C240.761 125.629 240.421 125.488 240.067 125.488H226.135C225.78 125.488 225.441 125.629 225.19 125.879C224.94 126.129 224.799 126.469 224.799 126.823C224.799 127.177 224.94 127.516 225.19 127.766C225.441 128.017 225.78 128.157 226.135 128.157Z" fill="#EF8200"></path><path fill-rule="evenodd" clip-rule="evenodd" d="M168.719 109.576H189.364C189.718 109.576 190.058 109.436 190.309 109.185C190.559 108.935 190.7 108.596 190.7 108.242C190.7 107.888 190.559 107.548 190.309 107.298C190.058 107.048 189.718 106.907 189.364 106.907H168.719C168.364 106.907 168.025 107.048 167.774 107.298C167.524 107.548 167.383 107.888 167.383 108.242C167.383 108.596 167.524 108.935 167.774 109.185C168.025 109.436 168.364 109.576 168.719 109.576Z" fill="#A8E3C6"></path><path fill-rule="evenodd" clip-rule="evenodd" d="M194.945 109.576H208.877C209.231 109.576 209.571 109.436 209.822 109.185C210.072 108.935 210.213 108.596 210.213 108.242C210.213 107.888 210.072 107.548 209.822 107.298C209.571 107.048 209.231 106.907 208.877 106.907H194.945C194.591 106.907 194.251 107.048 194.001 107.298C193.75 107.548 193.609 107.888 193.609 108.242C193.609 108.596 193.75 108.935 194.001 109.185C194.251 109.436 194.591 109.576 194.945 109.576Z" fill="#A8E3C6"></path><path fill-rule="evenodd" clip-rule="evenodd" d="M215.149 109.576H229.084C229.438 109.576 229.778 109.436 230.029 109.185C230.279 108.935 230.42 108.596 230.42 108.242C230.42 107.888 230.279 107.548 230.029 107.298C229.778 107.048 229.438 106.907 229.084 106.907H215.149C214.795 106.907 214.455 107.048 214.205 107.298C213.954 107.548 213.813 107.888 213.813 108.242C213.813 108.596 213.954 108.935 214.205 109.185C214.455 109.436 214.795 109.576 215.149 109.576Z" fill="#A8E3C6"></path><path fill-rule="evenodd" clip-rule="evenodd" d="M105.181 151.308H114.029C114.371 151.306 114.698 151.17 114.94 150.929C115.182 150.687 115.318 150.36 115.319 150.019C115.319 149.677 115.183 149.349 114.941 149.108C114.699 148.866 114.371 148.73 114.029 148.729H105.181C104.839 148.73 104.511 148.866 104.269 149.108C104.028 149.349 103.891 149.677 103.891 150.019C103.892 150.36 104.028 150.687 104.27 150.929C104.512 151.17 104.839 151.306 105.181 151.308Z" fill="#6AD8A2"></path><path fill-rule="evenodd" clip-rule="evenodd" d="M99.8372 144.926H123.24C123.581 144.925 123.909 144.79 124.151 144.549C124.392 144.308 124.529 143.981 124.53 143.64C124.529 143.298 124.393 142.971 124.151 142.729C123.91 142.487 123.582 142.351 123.24 142.351H99.8372C99.4952 142.351 99.1674 142.487 98.9256 142.729C98.6838 142.971 98.5476 143.298 98.5469 143.64C98.5483 143.981 98.6848 144.308 98.9265 144.549C99.1683 144.79 99.4957 144.925 99.8372 144.926Z" fill="#6AD8A2"></path><path fill-rule="evenodd" clip-rule="evenodd" d="M99.8372 138.168H117.664C118.006 138.167 118.334 138.031 118.576 137.79C118.818 137.548 118.954 137.221 118.955 136.879C118.953 136.537 118.817 136.21 118.575 135.969C118.333 135.728 118.006 135.591 117.664 135.59H99.8372C99.4954 135.591 99.1681 135.728 98.9264 135.969C98.6847 136.21 98.5483 136.537 98.5469 136.879C98.5476 137.221 98.6838 137.548 98.9256 137.79C99.1674 138.031 99.4952 138.167 99.8372 138.168Z" fill="#6AD8A2"></path><path fill-rule="evenodd" clip-rule="evenodd" d="M105.181 131.413H122.976C123.318 131.412 123.645 131.275 123.887 131.034C124.129 130.793 124.265 130.466 124.266 130.124C124.266 129.782 124.129 129.455 123.888 129.213C123.646 128.972 123.318 128.836 122.976 128.835H105.181C104.839 128.836 104.511 128.972 104.269 129.213C104.028 129.455 103.891 129.782 103.891 130.124C103.892 130.466 104.028 130.793 104.27 131.034C104.512 131.275 104.839 131.412 105.181 131.413Z" fill="#6AD8A2"></path><path fill-rule="evenodd" clip-rule="evenodd" d="M105.181 124.655H110.847C111.189 124.654 111.516 124.518 111.758 124.277C112 124.036 112.136 123.709 112.138 123.368C112.137 123.027 112.001 122.699 111.759 122.457C111.517 122.216 111.189 122.08 110.847 122.079H105.181C104.839 122.08 104.511 122.216 104.269 122.457C104.028 122.699 103.891 123.027 103.891 123.368C103.892 123.709 104.029 124.036 104.27 124.277C104.512 124.518 104.839 124.654 105.181 124.655Z" fill="#6AD8A2"></path><path fill-rule="evenodd" clip-rule="evenodd" d="M99.8372 117.9H116.756C117.098 117.9 117.426 117.764 117.668 117.522C117.909 117.281 118.046 116.953 118.046 116.611C118.045 116.27 117.909 115.943 117.667 115.701C117.425 115.46 117.098 115.324 116.756 115.322H99.8372C99.4954 115.324 99.1681 115.46 98.9264 115.701C98.6847 115.943 98.5483 116.27 98.5469 116.611C98.5476 116.953 98.6838 117.281 98.9256 117.522C99.1674 117.764 99.4952 117.9 99.8372 117.9Z" fill="#6AD8A2"></path><path fill-rule="evenodd" clip-rule="evenodd" d="M105.087 111.145H109.723C110.064 111.143 110.392 111.007 110.633 110.765C110.875 110.524 111.012 110.197 111.013 109.855C111.012 109.514 110.876 109.186 110.634 108.945C110.392 108.703 110.065 108.567 109.723 108.566H105.087C104.746 108.568 104.419 108.704 104.178 108.946C103.936 109.187 103.801 109.514 103.8 109.855C103.801 110.197 103.936 110.524 104.178 110.765C104.419 111.007 104.746 111.143 105.087 111.145Z" fill="#6AD8A2"></path><path fill-rule="evenodd" clip-rule="evenodd" d="M104.47 104.387H123.24C123.582 104.386 123.909 104.251 124.151 104.01C124.393 103.769 124.529 103.442 124.531 103.101C124.53 102.759 124.394 102.431 124.152 102.19C123.91 101.948 123.582 101.812 123.24 101.812H104.47C104.128 101.813 103.801 101.949 103.559 102.191C103.317 102.432 103.181 102.759 103.18 103.101C103.181 103.442 103.318 103.769 103.559 104.01C103.801 104.251 104.128 104.386 104.47 104.387Z" fill="#6AD8A2"></path><path fill-rule="evenodd" clip-rule="evenodd" d="M99.838 97.6319H114.769C115.111 97.6305 115.438 97.4942 115.68 97.2528C115.922 97.0113 116.058 96.6843 116.06 96.3428C116.058 96.0013 115.922 95.6743 115.68 95.4328C115.438 95.1914 115.111 95.0551 114.769 95.0537H99.838C99.4962 95.0572 99.1697 95.1955 98.9295 95.4385C98.6893 95.6814 98.5549 96.0093 98.5557 96.3508C98.5585 96.6897 98.6945 97.014 98.9343 97.2536C99.1742 97.4933 99.4988 97.6291 99.838 97.6319Z" fill="#6AD8A2"></path><path fill-rule="evenodd" clip-rule="evenodd" d="M104.47 90.877H123.24C123.582 90.8756 123.909 90.7394 124.151 90.4979C124.393 90.2565 124.529 89.9294 124.531 89.5879C124.53 89.2462 124.394 88.9188 124.152 88.6772C123.91 88.4356 123.582 88.2995 123.24 88.2988H104.47C104.128 88.3002 103.801 88.4365 103.559 88.6779C103.317 88.9194 103.181 89.2465 103.18 89.5879C103.181 89.9294 103.317 90.2565 103.559 90.4979C103.801 90.7394 104.128 90.8756 104.47 90.877Z" fill="#6AD8A2"></path><path fill-rule="evenodd" clip-rule="evenodd" d="M104.47 84.1197H115.912C116.254 84.119 116.581 83.9834 116.823 83.7423C117.065 83.5013 117.201 83.1745 117.203 82.8333C117.201 82.4921 117.065 82.1653 116.823 81.9243C116.581 81.6833 116.254 81.5476 115.912 81.5469H104.47C104.128 81.5476 103.801 81.6833 103.559 81.9243C103.318 82.1653 103.181 82.4921 103.18 82.8333C103.181 83.1745 103.318 83.5013 103.559 83.7423C103.801 83.9834 104.128 84.119 104.47 84.1197Z" fill="#6AD8A2"></path><path fill-rule="evenodd" clip-rule="evenodd" d="M99.838 77.3643H108.064C108.406 77.3636 108.733 77.2276 108.975 76.986C109.217 76.7444 109.353 76.4169 109.354 76.0752C109.353 75.7338 109.216 75.4067 108.974 75.1652C108.733 74.9238 108.405 74.7875 108.064 74.7861H99.838C99.499 74.7896 99.1748 74.9257 98.9351 75.1652C98.6954 75.4047 98.5591 75.7285 98.5557 76.0672C98.5564 76.4089 98.6925 76.7364 98.9344 76.978C99.1762 77.2196 99.504 77.3556 99.846 77.3563" fill="#6AD8A2"></path><path fill-rule="evenodd" clip-rule="evenodd" d="M105.181 157.275H114.029C114.371 157.274 114.699 157.138 114.941 156.896C115.183 156.655 115.319 156.327 115.319 155.986C115.318 155.644 115.182 155.318 114.94 155.077C114.698 154.836 114.371 154.7 114.029 154.699H105.181C104.839 154.7 104.512 154.836 104.27 155.077C104.029 155.318 103.892 155.644 103.891 155.986C103.891 156.327 104.028 156.655 104.269 156.896C104.511 157.138 104.839 157.274 105.181 157.275Z" fill="#6AD8A2"></path><path fill-rule="evenodd" clip-rule="evenodd" d="M99.8372 163.245H122.444C122.786 163.245 123.113 163.108 123.355 162.867C123.597 162.625 123.733 162.298 123.734 161.956C123.733 161.615 123.596 161.288 123.355 161.046C123.113 160.805 122.785 160.668 122.444 160.667H99.8372C99.4954 160.668 99.1681 160.805 98.9264 161.046C98.6847 161.288 98.5483 161.615 98.5469 161.956C98.5476 162.298 98.6838 162.625 98.9256 162.867C99.1674 163.108 99.4952 163.245 99.8372 163.245Z" fill="#6AD8A2"></path><path fill-rule="evenodd" clip-rule="evenodd" d="M105.181 169.213H114.029C114.371 169.212 114.698 169.075 114.94 168.834C115.182 168.592 115.318 168.265 115.319 167.924C115.319 167.582 115.183 167.255 114.941 167.013C114.699 166.771 114.371 166.635 114.029 166.635H105.181C104.839 166.635 104.511 166.771 104.269 167.013C104.028 167.255 103.891 167.582 103.891 167.924C103.892 168.265 104.028 168.592 104.27 168.834C104.512 169.075 104.839 169.212 105.181 169.213Z" fill="#6AD8A2"></path><path fill-rule="evenodd" clip-rule="evenodd" d="M175.873 84.6445H188.998C189.352 84.6445 189.692 84.5039 189.943 84.2537C190.193 84.0034 190.334 83.664 190.334 83.3101C190.334 82.9561 190.193 82.6167 189.943 82.3664C189.692 82.1162 189.352 81.9756 188.998 81.9756H175.873C175.519 81.9756 175.179 82.1162 174.928 82.3664C174.678 82.6167 174.537 82.9561 174.537 83.3101C174.537 83.664 174.678 84.0034 174.928 84.2537C175.179 84.5039 175.519 84.6445 175.873 84.6445Z" fill="#A8E3C6"></path><path fill-rule="evenodd" clip-rule="evenodd" d="M162.533 79.1494H188.599C188.953 79.1494 189.293 79.0088 189.544 78.7586C189.794 78.5083 189.935 78.1689 189.935 77.8149C189.935 77.461 189.794 77.1216 189.544 76.8713C189.293 76.6211 188.953 76.4805 188.599 76.4805H162.533C162.179 76.4805 161.839 76.6211 161.588 76.8713C161.338 77.1216 161.197 77.461 161.197 77.8149C161.197 78.1689 161.338 78.5083 161.588 78.7586C161.839 79.0088 162.179 79.1494 162.533 79.1494Z" fill="#A8E3C6"></path><path fill-rule="evenodd" clip-rule="evenodd" d="M162.533 72.3467H196.862C197.216 72.3467 197.556 72.2061 197.807 71.9558C198.057 71.7056 198.198 71.3661 198.198 71.0122C198.198 70.6583 198.057 70.3189 197.807 70.0686C197.556 69.8183 197.216 69.6777 196.862 69.6777H162.533C162.179 69.6777 161.839 69.8183 161.588 70.0686C161.338 70.3189 161.197 70.6583 161.197 71.0122C161.197 71.3661 161.338 71.7056 161.588 71.9558C161.839 72.2061 162.179 72.3467 162.533 72.3467Z" fill="#A8E3C6"></path><path fill-rule="evenodd" clip-rule="evenodd" d="M148.353 72.3467H149.609C149.963 72.3467 150.303 72.2061 150.554 71.9558C150.804 71.7056 150.945 71.3661 150.945 71.0122C150.945 70.6583 150.804 70.3189 150.554 70.0686C150.303 69.8183 149.963 69.6777 149.609 69.6777H148.353C147.999 69.6777 147.659 69.8183 147.409 70.0686C147.158 70.3189 147.018 70.6583 147.018 71.0122C147.018 71.3661 147.158 71.7056 147.409 71.9558C147.659 72.2061 147.999 72.3467 148.353 72.3467Z" fill="#B6E7CF"></path><path fill-rule="evenodd" clip-rule="evenodd" d="M148.353 79.1494H149.609C149.963 79.1494 150.303 79.0088 150.554 78.7586C150.804 78.5083 150.945 78.1689 150.945 77.8149C150.945 77.461 150.804 77.1216 150.554 76.8713C150.303 76.6211 149.963 76.4805 149.609 76.4805H148.353C147.999 76.4805 147.659 76.6211 147.409 76.8713C147.158 77.1216 147.018 77.461 147.018 77.8149C147.018 78.1689 147.158 78.5083 147.409 78.7586C147.659 79.0088 147.999 79.1494 148.353 79.1494Z" fill="#B6E7CF"></path><path fill-rule="evenodd" clip-rule="evenodd" d="M148.113 102.278H149.203C149.557 102.278 149.897 102.138 150.148 101.887C150.398 101.637 150.539 101.298 150.539 100.944C150.539 100.59 150.398 100.25 150.148 100C149.897 99.75 149.557 99.6094 149.203 99.6094H148.113C147.759 99.6094 147.419 99.75 147.169 100C146.918 100.25 146.777 100.59 146.777 100.944C146.777 101.298 146.918 101.637 147.169 101.887C147.419 102.138 147.759 102.278 148.113 102.278Z" fill="#B6E7CF"></path><path fill-rule="evenodd" clip-rule="evenodd" d="M148.193 96.4688H149.203C149.557 96.4688 149.897 96.3282 150.148 96.0779C150.398 95.8276 150.539 95.4882 150.539 95.1343C150.539 94.7804 150.398 94.4409 150.148 94.1907C149.897 93.9404 149.557 93.7998 149.203 93.7998H148.193C147.839 93.7998 147.499 93.9404 147.249 94.1907C146.998 94.4409 146.857 94.7804 146.857 95.1343C146.857 95.4882 146.998 95.8276 147.249 96.0779C147.499 96.3282 147.839 96.4688 148.193 96.4688Z" fill="#B6E7CF"></path><path fill-rule="evenodd" clip-rule="evenodd" d="M148.193 90.6582H149.203C149.557 90.6582 149.897 90.5176 150.148 90.2673C150.398 90.0171 150.539 89.6777 150.539 89.3237C150.539 88.9698 150.398 88.6304 150.148 88.3801C149.897 88.1299 149.557 87.9893 149.203 87.9893H148.193C147.839 87.9893 147.499 88.1299 147.249 88.3801C146.998 88.6304 146.857 88.9698 146.857 89.3237C146.857 89.6777 146.998 90.0171 147.249 90.2673C147.499 90.5176 147.839 90.6582 148.193 90.6582Z" fill="#B6E7CF"></path><path fill-rule="evenodd" clip-rule="evenodd" d="M148.193 84.6455H149.203C149.557 84.6455 149.897 84.5049 150.148 84.2546C150.398 84.0044 150.539 83.665 150.539 83.311C150.539 82.9571 150.398 82.6177 150.148 82.3674C149.897 82.1172 149.557 81.9766 149.203 81.9766H148.193C147.839 81.9766 147.499 82.1172 147.249 82.3674C146.998 82.6177 146.857 82.9571 146.857 83.311C146.857 83.665 146.998 84.0044 147.249 84.2546C147.499 84.5049 147.839 84.6455 148.193 84.6455Z" fill="#B6E7CF"></path><path fill-rule="evenodd" clip-rule="evenodd" d="M148.267 122.36H149.202C149.557 122.36 149.896 122.22 150.147 121.97C150.397 121.719 150.538 121.38 150.538 121.026C150.538 120.672 150.397 120.333 150.147 120.082C149.896 119.832 149.557 119.691 149.202 119.691H148.267C147.913 119.691 147.573 119.832 147.323 120.082C147.072 120.333 146.932 120.672 146.932 121.026C146.932 121.38 147.072 121.719 147.323 121.97C147.573 122.22 147.913 122.36 148.267 122.36Z" fill="#B6E7CF"></path><path fill-rule="evenodd" clip-rule="evenodd" d="M148.267 116.194H149.202C149.557 116.194 149.896 116.054 150.147 115.803C150.397 115.553 150.538 115.214 150.538 114.86C150.538 114.506 150.397 114.167 150.147 113.916C149.896 113.666 149.557 113.525 149.202 113.525H148.267C147.913 113.525 147.573 113.666 147.323 113.916C147.072 114.167 146.932 114.506 146.932 114.86C146.932 115.214 147.072 115.553 147.323 115.803C147.573 116.054 147.913 116.194 148.267 116.194Z" fill="#B6E7CF"></path><path fill-rule="evenodd" clip-rule="evenodd" d="M148.276 109.576H149.203C149.557 109.576 149.897 109.436 150.148 109.185C150.398 108.935 150.539 108.596 150.539 108.242C150.539 107.888 150.398 107.548 150.148 107.298C149.897 107.048 149.557 106.907 149.203 106.907H148.276C147.922 106.907 147.582 107.048 147.332 107.298C147.081 107.548 146.94 107.888 146.94 108.242C146.94 108.596 147.081 108.935 147.332 109.185C147.582 109.436 147.922 109.576 148.276 109.576Z" fill="#B6E7CF"></path><path fill-rule="evenodd" clip-rule="evenodd" d="M148.672 145.591H149.206C149.56 145.591 149.9 145.45 150.151 145.2C150.401 144.95 150.542 144.61 150.542 144.256C150.542 143.902 150.401 143.563 150.151 143.313C149.9 143.062 149.56 142.922 149.206 142.922H148.672C148.317 142.922 147.978 143.062 147.727 143.313C147.477 143.563 147.336 143.902 147.336 144.256C147.336 144.61 147.477 144.95 147.727 145.2C147.978 145.45 148.317 145.591 148.672 145.591Z" fill="#B6E7CF"></path><path fill-rule="evenodd" clip-rule="evenodd" d="M148.267 139.78H149.202C149.557 139.78 149.896 139.64 150.147 139.389C150.397 139.139 150.538 138.8 150.538 138.446C150.538 138.092 150.397 137.752 150.147 137.502C149.896 137.252 149.557 137.111 149.202 137.111H148.267C147.913 137.111 147.573 137.252 147.323 137.502C147.072 137.752 146.932 138.092 146.932 138.446C146.932 138.8 147.072 139.139 147.323 139.389C147.573 139.64 147.913 139.78 148.267 139.78Z" fill="#B6E7CF"></path><path fill-rule="evenodd" clip-rule="evenodd" d="M148.348 133.968H149.202C149.557 133.968 149.896 133.827 150.147 133.577C150.397 133.327 150.538 132.987 150.538 132.633C150.538 132.279 150.397 131.94 150.147 131.69C149.896 131.439 149.557 131.299 149.202 131.299H148.348C147.993 131.299 147.653 131.439 147.403 131.69C147.152 131.94 147.012 132.279 147.012 132.633C147.012 132.987 147.152 133.327 147.403 133.577C147.653 133.827 147.993 133.968 148.348 133.968Z" fill="#B6E7CF"></path><path fill-rule="evenodd" clip-rule="evenodd" d="M148.348 128.157H149.202C149.557 128.157 149.896 128.017 150.147 127.766C150.397 127.516 150.538 127.177 150.538 126.823C150.538 126.469 150.397 126.129 150.147 125.879C149.896 125.629 149.557 125.488 149.202 125.488H148.348C147.993 125.488 147.653 125.629 147.403 125.879C147.152 126.129 147.012 126.469 147.012 126.823C147.012 127.177 147.152 127.516 147.403 127.766C147.653 128.017 147.993 128.157 148.348 128.157Z" fill="#B6E7CF"></path><path fill-rule="evenodd" clip-rule="evenodd" d="M148.813 176.639H149.203C149.558 176.639 149.897 176.498 150.148 176.248C150.398 175.998 150.539 175.658 150.539 175.304C150.539 174.95 150.398 174.611 150.148 174.361C149.897 174.11 149.558 173.97 149.203 173.97H148.813C148.459 173.97 148.119 174.11 147.869 174.361C147.618 174.611 147.478 174.95 147.478 175.304C147.478 175.658 147.618 175.998 147.869 176.248C148.119 176.498 148.459 176.639 148.813 176.639Z" fill="#B6E7CF"></path><path fill-rule="evenodd" clip-rule="evenodd" d="M148.813 170.828H149.203C149.558 170.828 149.897 170.688 150.148 170.437C150.398 170.187 150.539 169.848 150.539 169.494C150.539 169.14 150.398 168.8 150.148 168.55C149.897 168.3 149.558 168.159 149.203 168.159H148.813C148.459 168.159 148.119 168.3 147.869 168.55C147.618 168.8 147.478 169.14 147.478 169.494C147.478 169.848 147.618 170.187 147.869 170.437C148.119 170.688 148.459 170.828 148.813 170.828Z" fill="#B6E7CF"></path><path fill-rule="evenodd" clip-rule="evenodd" d="M148.762 165.015H149.202C149.557 165.015 149.896 164.874 150.147 164.624C150.397 164.374 150.538 164.034 150.538 163.68C150.538 163.326 150.397 162.987 150.147 162.737C149.896 162.486 149.557 162.346 149.202 162.346H148.762C148.407 162.346 148.068 162.486 147.817 162.737C147.567 162.987 147.426 163.326 147.426 163.68C147.426 164.034 147.567 164.374 147.817 164.624C148.068 164.874 148.407 165.015 148.762 165.015Z" fill="#B6E7CF"></path><path fill-rule="evenodd" clip-rule="evenodd" d="M148.672 159.205H149.206C149.56 159.205 149.9 159.064 150.151 158.814C150.401 158.564 150.542 158.225 150.542 157.871C150.542 157.517 150.401 157.177 150.151 156.927C149.9 156.677 149.56 156.536 149.206 156.536H148.672C148.317 156.536 147.978 156.677 147.727 156.927C147.477 157.177 147.336 157.517 147.336 157.871C147.336 158.225 147.477 158.564 147.727 158.814C147.978 159.064 148.317 159.205 148.672 159.205Z" fill="#B6E7CF"></path><path fill-rule="evenodd" clip-rule="evenodd" d="M148.672 153.354H149.206C149.56 153.354 149.9 153.214 150.151 152.964C150.401 152.713 150.542 152.374 150.542 152.02C150.542 151.666 150.401 151.327 150.151 151.076C149.9 150.826 149.56 150.686 149.206 150.686H148.672C148.317 150.686 147.978 150.826 147.727 151.076C147.477 151.327 147.336 151.666 147.336 152.02C147.336 152.374 147.477 152.713 147.727 152.964C147.978 153.214 148.317 153.354 148.672 153.354Z" fill="#B6E7CF"></path><path d="M305.907 47.4639H85.7021C84.5976 47.4639 83.7021 48.3593 83.7021 49.4639V55.1905H307.907V49.4639C307.907 48.3593 307.012 47.4639 305.907 47.4639Z" fill="#DEEAE3"></path><path d="M87.5938 50.8251C87.5938 51.4744 88.1207 52.0008 88.77 52.0008C89.4193 52.0008 89.9463 51.4744 89.9463 50.8251C89.9463 50.1758 89.4193 49.6494 88.77 49.6494C88.1207 49.6494 87.5938 50.1758 87.5938 50.8251Z" fill="#EB5757"></path><path d="M91.7471 50.8251C91.7471 51.4744 92.2741 52.0008 92.9234 52.0008C93.5727 52.0008 94.0997 51.4744 94.0997 50.8251C94.0997 50.1758 93.5727 49.6494 92.9234 49.6494C92.2741 49.6494 91.7471 50.1758 91.7471 50.8251Z" fill="#915BE5"></path><path d="M95.9014 50.8251C95.9014 51.4744 96.4284 52.0008 97.0777 52.0008C97.727 52.0008 98.2541 51.4744 98.2541 50.8251C98.2541 50.1758 97.727 49.6494 97.0777 49.6494C96.4284 49.6494 95.9014 50.1758 95.9014 50.8251Z" fill="#43B97F"></path><path fill-rule="evenodd" clip-rule="evenodd" d="M434.679 338.112L430.773 338.622L442.966 437.683C442.998 437.938 443.081 438.185 443.208 438.409C443.336 438.633 443.507 438.83 443.711 438.987C443.915 439.145 444.148 439.261 444.397 439.328C444.646 439.396 444.906 439.413 445.162 439.38L445.384 439.351C445.843 439.289 446.26 439.049 446.544 438.683C446.828 438.317 446.956 437.854 446.901 437.394L434.679 338.112Z" fill="#C8D9D6"></path><path fill-rule="evenodd" clip-rule="evenodd" d="M364.32 337.963H360.38V437.816C360.381 438.338 360.589 438.838 360.959 439.207C361.328 439.576 361.829 439.784 362.351 439.786H362.576C363.038 439.784 363.481 439.6 363.808 439.274C364.135 438.947 364.319 438.505 364.32 438.043V337.963Z" fill="#C8D9D6"></path><path fill-rule="evenodd" clip-rule="evenodd" d="M306.232 337.963H302.294V437.816C302.295 438.338 302.502 438.838 302.871 439.207C303.24 439.576 303.741 439.784 304.263 439.786H304.487C304.95 439.784 305.392 439.6 305.719 439.274C306.046 438.947 306.23 438.505 306.232 438.043V337.963Z" fill="#C8D9D6"></path><path fill-rule="evenodd" clip-rule="evenodd" d="M390.383 338.112L386.475 338.622L398.67 437.683C398.702 437.938 398.784 438.185 398.911 438.409C399.039 438.633 399.209 438.829 399.413 438.987C399.617 439.145 399.85 439.261 400.099 439.328C400.348 439.396 400.608 439.413 400.863 439.38L401.085 439.351C401.545 439.289 401.962 439.05 402.247 438.684C402.531 438.318 402.66 437.855 402.605 437.394L390.383 338.112Z" fill="#C8D9D6"></path><path fill-rule="evenodd" clip-rule="evenodd" d="M341.197 212.351C336.044 228.728 328.545 244.624 311.709 254.358C296.917 258.153 266.606 260.088 267.493 256.45C268.313 253.093 267.517 252.431 272.678 250.683C275.732 252.575 308.624 228.349 308.99 228.264C311.522 227.663 319.034 191.432 333.979 185.131C335.662 183.745 345.4 204.147 341.192 212.354" fill="url(#paint0_linear_118_556)"></path><path fill-rule="evenodd" clip-rule="evenodd" d="M333.204 232.468C330.626 237.017 327.34 241.128 323.469 244.646C326.723 237.904 333.564 208.564 333.564 208.564L333.204 232.468Z" fill="#EF8200"></path><path fill-rule="evenodd" clip-rule="evenodd" d="M364.466 325.915H296.951C295.003 325.92 293.135 326.695 291.757 328.072C290.379 329.448 289.602 331.313 289.597 333.26C289.602 335.207 290.379 337.073 291.757 338.449C293.135 339.826 295.003 340.602 296.951 340.608H364.466C366.415 340.602 368.282 339.826 369.66 338.449C371.037 337.072 371.813 335.207 371.818 333.26C371.813 331.314 371.036 329.449 369.659 328.073C368.281 326.696 366.414 325.921 364.466 325.915Z" fill="#3E3357"></path><path fill-rule="evenodd" clip-rule="evenodd" d="M387.191 211.727H455.953L438.66 326.187L369.892 326.251C369.624 326.253 369.356 326.232 369.091 326.19C366.257 326.19 364.365 323.102 364.817 320.318L381.311 216.018C381.751 213.224 384.367 211.748 387.188 211.748L387.191 211.727Z" fill="#D8E1D6"></path><path fill-rule="evenodd" clip-rule="evenodd" d="M450.877 216.006L433.402 325.915H357.106C355.217 326.004 353.435 326.815 352.129 328.182C350.823 329.549 350.095 331.366 350.095 333.255C350.095 335.144 350.823 336.961 352.129 338.328C353.435 339.695 355.217 340.506 357.106 340.595H433.979C441.315 340.595 442.587 333.727 443.25 329.569L461.05 217.596C461.493 214.805 459.599 211.725 456.775 211.725C453.944 211.725 451.331 213.211 450.898 215.995" fill="#9DBAB6"></path><path fill-rule="evenodd" clip-rule="evenodd" d="M263.804 425.406L263.887 411.105L276.242 411.463L275.981 426.1L263.804 425.406Z" fill="#FFC0BB"></path><path fill-rule="evenodd" clip-rule="evenodd" d="M372.155 286.7L344.652 281.49C344.652 281.49 280.875 288.456 269.069 309.247C257.264 330.038 261.92 413.891 261.92 413.891L279.066 414.115C277.952 407.211 296.837 327.084 296.899 327.07L368.781 301.513L372.155 286.7Z" fill="#4B4260"></path><path fill-rule="evenodd" clip-rule="evenodd" d="M372.155 286.7L362.492 291.032C354.547 291.179 320.135 296.549 314.365 297.79C294.815 301.999 297.219 311.919 296.898 327.068L311.1 325.144L368.781 301.51L372.155 286.7Z" fill="#332C45"></path><path fill-rule="evenodd" clip-rule="evenodd" d="M327.506 423.024L326.328 410.587L338.82 410.886L338.703 425.127L327.506 423.024Z" fill="#FFC0BB"></path><path fill-rule="evenodd" clip-rule="evenodd" d="M326.894 420.919C323.365 427.255 317.61 433.316 322.101 438.699H344.97C345.007 438.598 345.044 438.486 345.082 438.366C345.304 437.629 346.369 437.322 345.656 434.629C344.32 429.617 340.436 421.914 339.098 421.519C336.442 420.735 332.686 422.947 326.894 420.927" fill="#2A2A2A"></path><path fill-rule="evenodd" clip-rule="evenodd" d="M320.397 434.506C320.346 436.19 320.52 437.674 322.101 438.685H344.97C346.151 438.002 346.461 437.53 345.656 434.607L320.397 434.506Z" fill="#18191A"></path><path fill-rule="evenodd" clip-rule="evenodd" d="M403.626 283.689C403.626 283.689 411.619 315.914 397.102 322.859C382.585 329.804 337.287 330.537 337.287 330.537C346.418 364.788 339.753 386.473 340.097 415.647L324.968 415.725C324.968 415.725 309.719 361.252 305.239 330.364C302.979 314.783 302.506 302.393 322.265 298.142C328.909 296.711 372.156 286.703 372.156 286.703L403.626 283.689Z" fill="#4B4260"></path><path fill-rule="evenodd" clip-rule="evenodd" d="M396.199 184.8C407.029 209.621 394.236 234.09 404.98 285.363C386.36 291.296 331.332 291.477 328.959 282.982C327.813 250.554 329.681 219.461 330.995 187.058C347.465 175.656 371.552 171.925 390.418 180.652C391.417 181.114 393.009 181.8 393.958 182.555C394.906 183.31 395.245 184.156 396.199 184.789" fill="url(#paint1_linear_118_556)"></path><path fill-rule="evenodd" clip-rule="evenodd" d="M348.595 248.577L388.75 235.152L389.018 218.837L393.474 212.869C393.474 212.869 402.557 226.748 402.592 227.687C402.626 228.627 398.584 242.735 398.942 242.751C399.3 242.767 374.976 250.851 372.975 251.321C370.974 251.79 348.595 248.577 348.595 248.577Z" fill="#EF8200"></path><path d="M226.21 270.185H215.796V438.699H226.21V270.185Z" fill="#C8D9D6"></path><path fill-rule="evenodd" clip-rule="evenodd" d="M331.717 257.673C332.559 254.738 334.111 250.513 338.121 249.219C340.967 248.299 346.54 249.43 357.864 250.076C359.267 253.738 359.267 255.647 358.902 257.361L331.717 257.673Z" fill="#FFC0BB"></path><path fill-rule="evenodd" clip-rule="evenodd" d="M392.259 181.562C407.962 189.267 417.01 236.227 413.415 248.635C412.795 257.555 376.32 256.399 350.348 259.816C346.781 257.195 343.872 253.741 347.201 248.902C363.153 243.031 391.249 237.813 391.201 236.961C388.986 219.966 385.62 196.631 386.838 185.336C386.983 184.002 390.891 180.892 392.259 181.562Z" fill="url(#paint2_linear_118_556)"></path><path fill-rule="evenodd" clip-rule="evenodd" d="M168.833 257.397H366.681V271.308H168.833C166.988 271.303 165.22 270.569 163.916 269.265C162.611 267.962 161.876 266.196 161.871 264.353C161.876 262.51 162.611 260.743 163.916 259.44C165.22 258.137 166.988 257.402 168.833 257.397Z" fill="#C8D9D6"></path><path fill-rule="evenodd" clip-rule="evenodd" d="M359.778 257.397H458.684C460.53 257.397 462.301 258.13 463.607 259.435C464.912 260.739 465.646 262.508 465.646 264.353C465.646 266.197 464.912 267.966 463.607 269.271C462.301 270.575 460.53 271.308 458.684 271.308H414.545V438.699H403.618V271.308H359.778C357.932 271.308 356.161 270.575 354.856 269.271C353.55 267.966 352.816 266.197 352.816 264.353C352.816 262.508 353.55 260.739 354.856 259.435C356.161 258.13 357.932 257.397 359.778 257.397Z" fill="#DCEDEA"></path><path fill-rule="evenodd" clip-rule="evenodd" d="M64.3198 438.699H522.039C522.273 438.699 522.497 438.847 522.663 439.11C522.828 439.373 522.921 439.73 522.921 440.102C522.921 440.473 522.828 440.83 522.663 441.093C522.497 441.356 522.273 441.504 522.039 441.504H64.3198C64.0858 441.504 63.8614 441.356 63.6959 441.093C63.5305 440.83 63.4375 440.473 63.4375 440.102C63.4375 439.73 63.5305 439.373 63.6959 439.11C63.8614 438.847 64.0858 438.699 64.3198 438.699Z" fill="#B2CAC6"></path><path fill-rule="evenodd" clip-rule="evenodd" d="M262.224 420.537C262.224 420.537 245.754 427.298 240.262 429.983C235.987 432.07 233.583 436.463 237.085 438.699H279.747C279.784 438.598 279.822 438.486 279.859 438.366C280.492 436.26 282.149 421.215 277.722 421.551C274.968 421.759 268.398 423.713 262.227 420.54" fill="#2A2A2A"></path><path fill-rule="evenodd" clip-rule="evenodd" d="M235.386 434.506L235.423 436.203C235.49 437.538 235.957 437.957 237.096 438.677H279.952C279.99 438.576 280.027 438.464 280.062 438.344C280.187 437.933 280.489 435.795 280.639 434.607L235.386 434.506Z" fill="#18191A"></path><path fill-rule="evenodd" clip-rule="evenodd" d="M336.703 166.987C339.954 170.862 343.093 173.513 346.94 174.351L348.575 181.167C347.421 185.993 348.509 190.018 354.701 189.652C371.211 186.607 366.531 175.731 366.261 175.24L362.449 166.117C362.983 165.957 366.969 162.511 368.059 161.876C369.149 161.241 370.335 158.575 369.889 156.162C369.443 153.749 365.935 155.393 365.935 155.393C368.957 148.23 372.838 142.049 364.979 138.096C357.119 134.143 341.29 134.49 341.29 134.49L331.459 133.489C333.35 136.342 334.272 147.136 333.484 154.198C332.779 160.531 332.333 161.785 336.69 166.987" fill="#FFC0BB"></path><path fill-rule="evenodd" clip-rule="evenodd" d="M355.811 189.43C358.466 191.109 362.465 193.38 365.118 195.062C368.511 189.244 370.02 185.144 370.752 178.731C369.777 177.396 366.71 173.988 365.5 173.414C364.402 178.021 362.265 184.578 355.811 189.428" fill="#FFF1D8"></path><path fill-rule="evenodd" clip-rule="evenodd" d="M355.811 189.43C354.208 192.08 351.106 194.707 349.506 197.357C347.532 193.53 345.315 184.813 345.053 179.838C345.966 178.941 346.477 178.672 347.639 177.26C349.084 180.54 353.017 187.468 355.811 189.43Z" fill="#FFF1D8"></path><path fill-rule="evenodd" clip-rule="evenodd" d="M275.792 257.393C269.405 257.361 262.264 257.446 260.375 257.363C262.245 251.796 268.537 250.424 273.789 250.72C275.05 251.583 276.239 255.877 275.792 257.393Z" fill="#F6C0C5"></path><path fill-rule="evenodd" clip-rule="evenodd" d="M370.463 140.466C370.976 135.333 367.063 131.348 361.54 128.583C350.098 122.851 342.466 128.824 338.977 130.452C336.572 131.583 334.841 131.861 332.453 132.883C326.482 135.437 328.558 148.496 333.909 151.849C334.443 152.182 333.938 146.11 334.515 146.388C335.152 146.753 335.823 147.055 336.519 147.29C344.595 149.567 350.189 144.336 355.465 148.496C358.078 150.557 358.586 154.184 357.335 160.192C356.964 161.961 356.267 163.349 358.775 161.526C359.924 160.685 363.787 158.54 364.613 158.972C366.453 159.933 366.197 162.781 365.107 163.902C364.621 164.401 363.667 165.191 363.667 165.191C374.866 160.653 375.614 143.02 370.463 140.466Z" fill="#2A2A2A"></path><path d="M476.764 146.172H419.12C417.299 146.177 415.554 146.902 414.266 148.188C412.978 149.474 412.252 151.217 412.246 153.036V171.901C412.252 173.72 412.978 175.464 414.266 176.75C415.554 178.037 417.299 178.762 419.12 178.768H427.519V191.213C427.519 193.895 429.475 194.683 431.508 193.228L451.202 179.061C451.341 178.963 451.47 178.861 451.622 178.768H476.764C478.584 178.761 480.329 178.036 481.616 176.749C482.903 175.463 483.629 173.72 483.635 171.901V153.036C483.629 151.218 482.903 149.475 481.616 148.189C480.329 146.903 478.584 146.178 476.764 146.172Z" fill="#C84E96"></path><path d="M405.21 31.7627H344.417C342.213 31.769 340.102 32.6464 338.543 34.2032C336.985 35.7599 336.107 37.8695 336.101 40.0711V62.8986C336.107 65.1002 336.985 67.2098 338.543 68.7666C340.102 70.3233 342.213 71.2007 344.417 71.207H349.493V86.2652C349.493 89.5107 351.857 90.4742 354.32 88.7046L378.15 71.562C378.319 71.4419 378.484 71.3165 378.655 71.207H405.202C407.406 71.2007 409.518 70.3233 411.076 68.7666C412.634 67.2098 413.512 65.1002 413.519 62.8986V40.0604C413.51 37.8621 412.631 35.7564 411.075 34.2022C409.519 32.648 407.411 31.7711 405.21 31.7627Z" fill="#915BE5"></path><path d="M403.111 50.8672V52.2337C403.11 52.3182 403.083 52.4005 403.033 52.4685C402.985 52.541 402.921 52.6014 402.846 52.6447L397.637 55.1028C397.608 55.1187 397.575 55.127 397.542 55.127C397.509 55.127 397.476 55.1187 397.447 55.1028C397.42 55.0837 397.399 55.0578 397.385 55.0278C397.372 54.9978 397.366 54.9647 397.369 54.932V52.973C397.371 52.8878 397.398 52.8051 397.447 52.7354C397.496 52.6635 397.561 52.6034 397.637 52.5593L399.72 51.6652C399.793 51.6332 399.827 51.5958 399.827 51.5557C399.827 51.5157 399.793 51.4757 399.72 51.4356L397.637 50.5282C397.559 50.4915 397.494 50.4343 397.447 50.3627C397.398 50.294 397.371 50.2122 397.369 50.1279V48.1795C397.367 48.1461 397.372 48.1124 397.386 48.0817C397.399 48.051 397.42 48.024 397.447 48.0034C397.475 47.9843 397.508 47.9741 397.542 47.9741C397.576 47.9741 397.609 47.9843 397.637 48.0034L402.846 50.4481C402.923 50.4861 402.988 50.5453 403.033 50.6189C403.083 50.6901 403.11 50.7749 403.111 50.8618V50.8672ZM392.74 54.0085V55.6526C392.741 55.6911 392.734 55.7294 392.72 55.7652C392.706 55.801 392.684 55.8335 392.657 55.8608C392.63 55.888 392.597 55.9094 392.561 55.9236C392.525 55.9378 392.487 55.9446 392.449 55.9435H386.403C386.364 55.946 386.325 55.9399 386.288 55.9256C386.252 55.9113 386.219 55.8892 386.192 55.8608C386.139 55.8046 386.11 55.7298 386.112 55.6526V47.3789C386.11 47.3024 386.139 47.2285 386.192 47.1733C386.218 47.1444 386.251 47.1218 386.288 47.107C386.324 47.0923 386.364 47.0858 386.403 47.0879H388.222C388.26 47.0879 388.298 47.0955 388.333 47.1101C388.368 47.1248 388.4 47.1462 388.427 47.1733C388.454 47.2003 388.475 47.2324 388.489 47.2677C388.504 47.303 388.511 47.3408 388.511 47.3789V53.432C388.509 53.5084 388.538 53.5823 388.591 53.6375C388.618 53.6664 388.65 53.6891 388.687 53.7038C388.723 53.7186 388.763 53.7251 388.802 53.7229H392.449C392.487 53.7226 392.525 53.7299 392.56 53.7444C392.596 53.7588 392.628 53.7803 392.655 53.8073C392.682 53.8344 392.704 53.8666 392.718 53.9021C392.733 53.9376 392.74 53.9755 392.74 54.0138V54.0085ZM384.191 47.3869V55.6606C384.191 55.6992 384.184 55.7376 384.169 55.7734C384.155 55.8091 384.133 55.8416 384.105 55.8688C384.079 55.8961 384.048 55.9176 384.013 55.9319C383.978 55.9462 383.94 55.9529 383.902 55.9515H382.08C382.043 55.9529 382.005 55.9462 381.97 55.9319C381.935 55.9176 381.903 55.8961 381.877 55.8688C381.849 55.8424 381.826 55.8101 381.811 55.7741C381.797 55.7382 381.79 55.6994 381.792 55.6606V51.7639C381.794 51.7479 381.793 51.7315 381.789 51.7159C381.784 51.7003 381.777 51.6858 381.766 51.6732C381.756 51.6607 381.743 51.6504 381.729 51.6431C381.714 51.6357 381.698 51.6314 381.682 51.6305C381.647 51.6266 381.611 51.6326 381.579 51.6476C381.547 51.6627 381.52 51.6863 381.501 51.7159L379.468 54.9827C379.447 55.0149 379.418 55.0408 379.383 55.0577C379.349 55.0747 379.311 55.0819 379.273 55.0788C379.233 55.0807 379.194 55.0729 379.158 55.0562C379.122 55.0394 379.091 55.0142 379.067 54.9827L377.026 51.7025C377.01 51.6729 376.985 51.6488 376.955 51.6335C376.925 51.6183 376.891 51.6126 376.857 51.6171C376.783 51.6171 376.748 51.6705 376.748 51.7506V55.6472C376.748 55.6859 376.741 55.7242 376.726 55.76C376.712 55.7958 376.69 55.8282 376.662 55.8554C376.636 55.8828 376.605 55.9043 376.57 55.9186C376.535 55.9328 376.497 55.9395 376.459 55.9382H374.637C374.599 55.9389 374.561 55.9319 374.526 55.9175C374.49 55.9031 374.458 55.8816 374.431 55.8544C374.404 55.8272 374.383 55.7948 374.369 55.7592C374.355 55.7236 374.348 55.6855 374.349 55.6472V47.3735C374.347 47.3353 374.354 47.2972 374.368 47.2618C374.382 47.2263 374.404 47.1943 374.432 47.168C374.459 47.1407 374.491 47.1191 374.526 47.1045C374.561 47.0898 374.599 47.0823 374.637 47.0826H376.326C376.414 47.087 376.499 47.1111 376.577 47.1531C376.654 47.1952 376.721 47.2541 376.772 47.3255L379.104 50.7391C379.122 50.7675 379.147 50.7911 379.177 50.8078C379.206 50.8246 379.239 50.8339 379.273 50.8351C379.305 50.8347 379.337 50.8255 379.364 50.8086C379.392 50.7917 379.415 50.7677 379.43 50.7391L381.762 47.3255C381.818 47.2545 381.888 47.1963 381.968 47.1547C382.049 47.1076 382.141 47.0828 382.235 47.0826H383.924C383.962 47.0816 383.999 47.0887 384.034 47.1034C384.069 47.1181 384.101 47.1402 384.127 47.168C384.154 47.198 384.175 47.2336 384.187 47.2722C384.2 47.3109 384.204 47.3518 384.199 47.3922L384.191 47.3869ZM373.08 49.3112H371.383C371.306 49.3112 371.232 49.3418 371.178 49.3964C371.123 49.4509 371.092 49.5249 371.092 49.6021V55.6526C371.094 55.7293 371.066 55.8036 371.015 55.8608C370.988 55.8895 370.954 55.9119 370.917 55.9262C370.88 55.9405 370.841 55.9464 370.801 55.9435H368.984C368.946 55.9452 368.908 55.9387 368.873 55.9245C368.837 55.9102 368.805 55.8885 368.779 55.8608C368.751 55.8336 368.73 55.8011 368.715 55.7654C368.7 55.7296 368.693 55.6912 368.693 55.6526V49.6074C368.694 49.5316 368.667 49.4581 368.616 49.4019C368.589 49.3727 368.556 49.3498 368.519 49.335C368.482 49.3203 368.442 49.3139 368.402 49.3165H366.682C366.644 49.3165 366.606 49.309 366.571 49.2943C366.535 49.2797 366.503 49.2582 366.477 49.2311C366.45 49.2041 366.429 49.172 366.414 49.1367C366.4 49.1014 366.393 49.0637 366.393 49.0256V47.3789C366.393 47.3408 366.4 47.303 366.414 47.2677C366.429 47.2324 366.45 47.2003 366.477 47.1733C366.503 47.1462 366.535 47.1248 366.571 47.1101C366.606 47.0955 366.644 47.0879 366.682 47.0879H373.093C373.133 47.0858 373.172 47.0923 373.208 47.107C373.245 47.1218 373.278 47.1444 373.304 47.1733C373.357 47.2285 373.386 47.3024 373.385 47.3789V49.0256C373.386 49.102 373.357 49.1759 373.304 49.2311C373.277 49.2607 373.243 49.2838 373.206 49.2986C373.168 49.3134 373.128 49.3195 373.088 49.3165L373.08 49.3112ZM365.266 47.3735V55.6472C365.266 55.6859 365.259 55.7242 365.244 55.76C365.229 55.7958 365.208 55.8282 365.18 55.8554C365.154 55.8831 365.122 55.9048 365.086 55.9191C365.051 55.9334 365.013 55.9399 364.975 55.9382H363.158C363.118 55.9411 363.079 55.9352 363.042 55.9209C363.005 55.9065 362.971 55.8842 362.944 55.8554C362.893 55.7983 362.865 55.7239 362.867 55.6472V53.0584C362.867 52.9817 362.836 52.9081 362.782 52.8536C362.728 52.7991 362.655 52.7682 362.578 52.7675H360.088C360.049 52.7657 360.011 52.7724 359.975 52.7871C359.939 52.8019 359.906 52.8243 359.88 52.8529C359.827 52.908 359.798 52.982 359.8 53.0584V55.6472C359.801 55.6857 359.794 55.724 359.78 55.7598C359.765 55.7956 359.744 55.8281 359.717 55.8554C359.689 55.8823 359.657 55.9034 359.621 55.9176C359.585 55.9318 359.547 55.9388 359.509 55.9382H357.695C357.655 55.9411 357.615 55.9352 357.578 55.9209C357.541 55.9065 357.508 55.8842 357.481 55.8554C357.428 55.7993 357.399 55.7245 357.401 55.6472V47.3735C357.399 47.2971 357.428 47.2232 357.481 47.168C357.508 47.1387 357.541 47.1159 357.578 47.1011C357.615 47.0863 357.655 47.08 357.695 47.0826H359.511C359.55 47.0824 359.588 47.0899 359.624 47.1046C359.66 47.1192 359.692 47.1408 359.72 47.168C359.747 47.1943 359.769 47.2263 359.783 47.2618C359.798 47.2972 359.804 47.3353 359.802 47.3735V50.232C359.801 50.3084 359.83 50.3823 359.883 50.4375C359.909 50.466 359.941 50.4884 359.977 50.5032C360.013 50.5179 360.052 50.5246 360.091 50.5229H362.581C362.658 50.5222 362.731 50.4912 362.785 50.4367C362.839 50.3822 362.869 50.3087 362.869 50.232V47.3789C362.868 47.303 362.896 47.2295 362.947 47.1733C362.974 47.1441 363.007 47.1212 363.044 47.1065C363.081 47.0917 363.121 47.0854 363.161 47.0879H364.977C365.054 47.0879 365.128 47.1186 365.183 47.1731C365.238 47.2277 365.268 47.3017 365.268 47.3789L365.266 47.3735ZM351.908 48.1742V50.1225C351.907 50.2073 351.879 50.2895 351.828 50.3574C351.782 50.4287 351.717 50.486 351.641 50.5229L349.544 51.4303C349.464 51.4712 349.424 51.5113 349.424 51.5504C349.424 51.5904 349.464 51.6278 349.544 51.6598L351.63 52.5539C351.71 52.5951 351.778 52.6557 351.828 52.7301C351.879 52.799 351.907 52.882 351.908 52.9676V54.9266C351.912 54.9597 351.906 54.9931 351.892 55.0233C351.878 55.0534 351.856 55.079 351.828 55.0974C351.799 55.1133 351.767 55.1217 351.734 55.1217C351.702 55.1217 351.67 55.1133 351.641 55.0974L346.421 52.6447C346.346 52.6026 346.283 52.5419 346.239 52.4685C346.193 52.3989 346.168 52.3173 346.167 52.2337V50.8672C346.168 50.7811 346.193 50.697 346.239 50.6243C346.28 50.5499 346.344 50.4903 346.421 50.4535L351.644 48.0087C351.671 47.9899 351.704 47.9798 351.737 47.9798C351.77 47.9798 351.803 47.9899 351.831 48.0087C351.859 48.027 351.882 48.0523 351.898 48.0823C351.914 48.1122 351.922 48.1457 351.921 48.1795L351.908 48.1742Z" fill="white"></path><path fill-rule="evenodd" clip-rule="evenodd" d="M259.327 254.54H348.345V256.107C348.345 256.522 348.083 256.921 347.617 257.214C347.151 257.508 346.519 257.673 345.86 257.673H261.812C261.153 257.673 260.521 257.508 260.055 257.214C259.589 256.921 259.327 256.522 259.327 256.107V254.54Z" fill="#9DBAB6"></path><path fill-rule="evenodd" clip-rule="evenodd" d="M228.128 200.959H292.364C294.897 200.959 296.483 203.197 296.967 205.826L305.686 254.341C305.906 255.568 304.963 256.695 303.717 256.695H233.301L224.159 205.152C223.758 202.885 225.944 200.959 228.128 200.959Z" fill="#8FB6EF"></path><path fill-rule="evenodd" clip-rule="evenodd" d="M226.241 200.959H291.59C294.167 200.959 295.78 203.183 296.273 205.794L304.626 251.031H304.734L305.272 254.352C305.562 256.151 303.805 257.673 302.018 257.673H234.322C232.534 257.673 231.333 256.159 231.067 254.352L230.666 251.626L222.204 205.125C221.796 202.872 224.02 200.959 226.241 200.959Z" fill="#CBE7E3"></path><path fill-rule="evenodd" clip-rule="evenodd" d="M260.845 226.452C262.665 226.075 264.559 227.271 265.069 229.124C265.579 230.977 264.522 232.78 262.702 233.158C260.882 233.536 258.988 232.339 258.478 230.486C257.968 228.634 259.025 226.827 260.845 226.452Z" fill="white"></path><path d="M430.965 167.643L428.787 164.019H428.176V167.643H425.625V158.043H429.906C430.731 158.043 431.433 158.175 432.009 158.44C432.596 158.704 433.034 159.069 433.322 159.534C433.61 159.99 433.755 160.5 433.755 161.065C433.755 161.704 433.556 162.273 433.158 162.775C432.77 163.276 432.193 163.632 431.428 163.842L433.844 167.643H430.965ZM428.176 162.365H429.757C430.224 162.365 430.572 162.26 430.801 162.05C431.04 161.84 431.159 161.544 431.159 161.161C431.159 160.796 431.04 160.509 430.801 160.3C430.572 160.09 430.224 159.985 429.757 159.985H428.176V162.365Z" fill="white"></path><path d="M437.966 159.917V161.859H441.382V163.664H437.966V165.77H441.83V167.643H435.415V158.043H441.83V159.917H437.966Z" fill="white"></path><path d="M450.064 165.948H446.156L445.529 167.643H442.859L446.648 158.043H449.601L453.39 167.643H450.69L450.064 165.948ZM449.407 164.142L448.11 160.628L446.827 164.142H449.407Z" fill="white"></path><path d="M454.17 162.83C454.17 161.881 454.394 161.038 454.842 160.3C455.289 159.552 455.911 158.973 456.706 158.563C457.512 158.143 458.422 157.934 459.436 157.934C460.679 157.934 461.743 158.234 462.628 158.836C463.513 159.438 464.105 160.258 464.403 161.298H461.599C461.39 160.897 461.092 160.591 460.704 160.382C460.326 160.172 459.893 160.067 459.406 160.067C458.62 160.067 457.984 160.318 457.497 160.819C457.009 161.321 456.766 161.991 456.766 162.83C456.766 163.668 457.009 164.338 457.497 164.84C457.984 165.341 458.62 165.592 459.406 165.592C459.893 165.592 460.326 165.487 460.704 165.278C461.092 165.068 461.39 164.762 461.599 164.361H464.403C464.105 165.401 463.513 166.221 462.628 166.823C461.743 167.416 460.679 167.712 459.436 167.712C458.422 167.712 457.512 167.507 456.706 167.096C455.911 166.677 455.289 166.098 454.842 165.36C454.394 164.621 454.17 163.778 454.17 162.83Z" fill="white"></path><path d="M473.558 158.043V159.917H470.783V167.643H468.232V159.917H465.458V158.043H473.558Z" fill="white"></path><path fill-rule="evenodd" clip-rule="evenodd" d="M128.843 383.233C134.32 346.545 168.199 300.322 175.37 292.11C130.796 286.666 119.837 355.612 121.854 388.986L128.843 383.233Z" fill="#43B97F"></path><path fill-rule="evenodd" clip-rule="evenodd" d="M116.901 383.806C107.525 348.834 75.0873 326.789 68.6328 319.394C112.466 306.726 125.012 358.93 123.197 388.985L116.901 383.806Z" fill="#43B97F"></path><path fill-rule="evenodd" clip-rule="evenodd" d="M120.8 386.396C118.252 350.826 99.9269 295.573 94.0068 288.476C135.356 287.838 128.209 357.523 126.054 385.805L120.8 386.396Z" fill="#62D39C"></path><path fill-rule="evenodd" clip-rule="evenodd" d="M133.665 394.349C140.954 365.204 172.749 334.275 192.005 323.149C145.505 311.102 127.614 365.963 126.787 398.742L133.665 394.349Z" fill="#62D39C"></path><path fill-rule="evenodd" clip-rule="evenodd" d="M156.232 388.976H97.5938V413.775C97.6133 420.346 100.235 426.643 104.887 431.29C109.539 435.937 115.842 438.555 122.42 438.574H131.406C137.984 438.554 144.286 435.935 148.937 431.289C153.588 426.642 156.21 420.346 156.229 413.775L156.232 388.976Z" fill="#183658"></path><path d="M156.229 388.985H97.5938V393.19H156.229V388.985Z" fill="#0D223A"></path><path fill-rule="evenodd" clip-rule="evenodd" d="M155.375 382.571H98.4508C97.472 382.577 96.5349 382.969 95.8428 383.66C95.1506 384.352 94.7591 385.288 94.7529 386.266C94.7582 387.244 95.1495 388.18 95.8418 388.872C96.5341 389.564 97.4717 389.955 98.4508 389.96H155.375C156.354 389.955 157.292 389.564 157.984 388.872C158.676 388.18 159.068 387.244 159.073 386.266C159.067 385.288 158.675 384.352 157.983 383.66C157.291 382.969 156.354 382.577 155.375 382.571Z" fill="#183658"></path><defs><linearGradient id="paint0_linear_118_556" x1="346.825" y1="220.965" x2="265.721" y2="223.846" gradientUnits="userSpaceOnUse"><stop stop-color="#FFD000"></stop><stop offset="1" stop-color="#FF7300"></stop></linearGradient><linearGradient id="paint1_linear_118_556" x1="409.667" y1="231.545" x2="326.753" y2="233.484" gradientUnits="userSpaceOnUse"><stop stop-color="#FFD000"></stop><stop offset="1" stop-color="#FF7300"></stop></linearGradient><linearGradient id="paint2_linear_118_556" x1="418.4" y1="219.829" x2="344.108" y2="222.091" gradientUnits="userSpaceOnUse"><stop stop-color="#FFD000"></stop><stop offset="1" stop-color="#FF7300"></stop></linearGradient></defs></svg>