<svg xmlns="http://www.w3.org/2000/svg" width="20" height="31" viewBox="0 0 20 31" fill="none"><path d="M7.125 28.043a1.784 1.784 0 0 1-1.534-1.772v-1.139c0-.601.48-1.108 1.119-1.108h6.677a1.092 1.092 0 0 1 1.054 1.108v1.14c0 .885-.67 1.645-1.533 1.771l-.288 1.013c-.16.538-.67.95-1.214.95H8.66c-.608 0-1.119-.38-1.215-.95l-.32-1.013zM20 9.88a9.734 9.734 0 0 1-2.811 6.835 6.836 6.836 0 0 0-1.885 3.798c-.192 1.234-1.278 2.151-2.556 2.151H7.253c-1.278 0-2.365-.917-2.556-2.151-.224-1.424-.895-2.785-1.885-3.798A10.04 10.04 0 0 1 0 10.006C-.032 4.53 4.41.069 9.872.006h.064C15.496.006 20 4.436 20 9.879zm-2.78 0c0-3.956-3.226-7.152-7.22-7.152-3.994 0-7.22 3.196-7.22 7.152 0 1.93.766 3.64 2.012 4.937a23.192 23.192 0 0 1 3.004-1.804c.032-.032.064-.064.064-.095v-.95c-.256-.411-.384-.886-.448-1.297-.16 0-.351-.222-.543-.95-.287-.98.032-1.139.288-1.107a2.49 2.49 0 0 1-.064-1.52c.127-.569.447-1.012.767-1.36.223-.221.447-.443.734-.601.224-.158.448-.285.703-.348.192-.064.416-.095.64-.127a2.604 2.604 0 0 1 1.597.348c.574.317.766.728.766.728s1.438.095.8 3.07c.19.063.319.316.095 1.107-.288.95-.511 1.013-.671.918-.064.317-.16.696-.32 1.044v1.108c0 .032.032.095.064.095.32.158 1.598.791 3.003 1.804a7.366 7.366 0 0 0 1.95-5z" fill="#FF5353"></path></svg>