<svg xmlns="http://www.w3.org/2000/svg" width="20" height="30" viewBox="0 0 20 30" fill="none"><g clip-path="url(#05m3u7obqa)" fill="#43B97F"><path d="M16.499 4.614a1.118 1.118 0 1 1-2.236 0 1.118 1.118 0 0 1 2.236 0z"></path><path d="M17.498 0H2.502A2.504 2.504 0 0 0 0 2.502v24.996A2.504 2.504 0 0 0 2.502 30h14.997A2.504 2.504 0 0 0 20 27.498V2.502A2.504 2.504 0 0 0 17.498 0zm.248 23.743H2.254V3.501c0-.691.562-1.248 1.248-1.248h12.997c.691 0 1.247.563 1.247 1.248v20.242z"></path><path d="M8.125 7.498h-3.75a.628.628 0 0 0-.626.627v3.75c0 .345.281.626.627.626h3.75a.628.628 0 0 0 .626-.627v-3.75a.628.628 0 0 0-.627-.626zM15.623 7.498h-3.75a.628.628 0 0 0-.626.627v3.75c0 .345.281.626.627.626h3.75a.628.628 0 0 0 .626-.627v-3.75a.628.628 0 0 0-.627-.626zM8.125 14.997h-3.75a.628.628 0 0 0-.626.627v3.75c0 .345.281.626.627.626h3.75a.628.628 0 0 0 .626-.627v-3.75a.628.628 0 0 0-.627-.626zM15.623 14.997h-3.75a.627.627 0 0 0-.626.627v3.75c0 .345.281.626.627.626h3.75a.628.628 0 0 0 .626-.627v-3.75a.628.628 0 0 0-.627-.626z"></path></g><defs><clipPath id="05m3u7obqa"><path fill="#fff" d="M0 0h20v30H0z"></path></clipPath></defs></svg>