<svg xmlns="http://www.w3.org/2000/svg" width="30" height="31" viewBox="0 0 30 31" fill="none"><path d="M20.572 30.228H9.408c-.753 0-1.255-.506-1.255-1.266 0-3.797 3.011-6.835 6.774-6.835s6.774 3.038 6.774 6.835c.126.633-.376 1.266-1.129 1.266zm-9.659-2.531h8.28c-.502-1.772-2.133-3.038-4.14-3.038-2.007-.127-3.638 1.139-4.14 3.038z" fill="#43B97F"></path><path d="M15.053 24.28c-2.383 0-4.265-1.9-4.265-4.305 0-2.404 1.882-4.303 4.265-4.303s4.265 1.899 4.265 4.303c0 2.405-1.882 4.304-4.265 4.304zm0-6.203c-1.004 0-1.756.76-1.756 1.772 0 1.013.752 1.772 1.756 1.772s1.756-.76 1.756-1.772c0-.886-.752-1.772-1.756-1.772zM28.852 14.912H17.688c-.753 0-1.255-.506-1.255-1.266 0-3.798 3.01-6.835 6.774-6.835 3.763 0 6.774 3.038 6.774 6.835.125.76-.376 1.266-1.13 1.266zm-9.66-2.532h8.28c-.502-1.772-2.132-3.038-4.14-3.038-2.007 0-3.637 1.266-4.14 3.038z" fill="#43B97F"></path><path d="M23.333 9.09c-2.383 0-4.265-1.9-4.265-4.304 0-2.405 1.881-4.304 4.265-4.304 2.383 0 4.265 1.899 4.265 4.304 0 2.278-1.882 4.303-4.265 4.303zm0-6.203c-1.004 0-1.756.76-1.756 1.772 0 1.013.752 1.772 1.756 1.772 1.003 0 1.756-.76 1.756-1.772 0-1.013-.753-1.772-1.756-1.772zM12.419 14.785H1.255C.502 14.785 0 14.279 0 13.519c0-3.797 3.01-6.835 6.774-6.835 3.763 0 6.774 3.038 6.774 6.835.125.633-.502 1.266-1.13 1.266zm-9.785-2.532h8.28c-.502-1.772-2.133-3.038-4.14-3.038-2.007 0-3.512 1.266-4.14 3.038z" fill="#43B97F"></path><path d="M6.774 8.836c-2.384 0-4.266-1.899-4.266-4.304C2.508 2.127 4.39.23 6.773.23c2.384 0 4.265 1.898 4.265 4.303.126 2.405-1.881 4.304-4.264 4.304zm0-6.203c-1.004 0-1.757.886-1.757 1.9 0 1.012.753 1.771 1.757 1.771 1.003 0 1.756-.76 1.756-1.772.125-1.013-.753-1.899-1.756-1.899z" fill="#43B97F"></path></svg>