<svg xmlns="http://www.w3.org/2000/svg" width="24" height="31" viewBox="0 0 24 31" fill="none"><path d="M10.56.006v4.113L2.88 5.522A3.52 3.52 0 0 0 .812 6.746 3.572 3.572 0 0 0 0 9.02v11.971c-.001.83.286 1.636.812 2.275A3.52 3.52 0 0 0 2.88 24.49l7.68 1.403v4.113h2.88V26.42l6.403 1.166a3.508 3.508 0 0 0 2.886-.766A3.567 3.567 0 0 0 24 24.097V5.914a3.567 3.567 0 0 0-1.27-2.723 3.508 3.508 0 0 0-2.887-.766L13.44 3.59V.006h-2.88zM3.413 21.634a.651.651 0 0 1-.533-.643V9.02c0-.316.224-.587.533-.643l7.147-1.312v15.88l-7.147-1.31zM20.357 5.27h.12a.65.65 0 0 1 .643.644v18.184a.655.655 0 0 1-.232.502.645.645 0 0 1-.531.141l-6.917-1.267V6.538l6.917-1.268z" fill="#915BE5"></path></svg>