<svg xmlns="http://www.w3.org/2000/svg" width="30" height="31" viewBox="0 0 30 31" fill="none"><path d="M26.491 5.413c.572-.903 1.145-1.804 1.713-2.708.452-.72.344-1.791.495-2.7-.815.39-1.638.768-2.441 1.183-.172.09-.267.325-.403.487l-1.427 1.713A14.94 14.94 0 0 0 15 .048c-8.271 0-15 6.72-15 14.98 0 8.259 6.73 14.978 15 14.978s15-6.72 15-14.979c0-3.657-1.321-7.011-3.51-9.615h.001zm-11.49 21.994c-6.836 0-12.397-5.553-12.397-12.378 0-6.827 5.561-12.38 12.396-12.38 2.937 0 5.637 1.027 7.763 2.737L13.999 15.9c-1.337-1.524-2.46-2.786-3.562-4.065-1.12-1.299-2.425-1.891-3.838-.593-1.37 1.259-.971 2.65.124 3.937 1.697 1.996 3.368 4.014 5.079 5.997 1.559 1.807 3.409 1.734 4.703-.253a1611.69 1611.69 0 0 0 8.509-13.18 12.301 12.301 0 0 1 2.383 7.285c0 6.826-5.56 12.38-12.396 12.38v-.001z" fill="#43B97F"></path></svg>