<svg xmlns="http://www.w3.org/2000/svg" width="25" height="26" viewBox="0 0 25 26" fill="none"><path d="M24.107 25.771H.893A.893.893 0 0 1 0 24.88V1.664C0 1.171.4.771.893.771h23.214c.493 0 .893.4.893.893V24.88c0 .492-.4.892-.893.892zM1.786 23.986h21.428V2.557H1.786v21.429z" fill="#43B97F"></path><path d="M24.107 7.914H.893a.893.893 0 0 1 0-1.786h23.214a.893.893 0 0 1 0 1.786zM17.857 3.45h3.571v1.786h-3.571V3.45zM9.821 15.057H4.464a.893.893 0 0 1-.893-.893v-3.57c0-.494.4-.894.893-.894h5.357c.493 0 .893.4.893.893v3.572c0 .492-.4.892-.893.892zM20.536 15.057h-5.358a.893.893 0 0 1-.892-.893v-3.57c0-.494.4-.894.893-.894h5.357c.492 0 .892.4.892.893v3.572c0 .492-.4.892-.892.892zM9.821 22.2H4.464a.893.893 0 0 1-.893-.893v-3.571c0-.493.4-.893.893-.893h5.357c.493 0 .893.4.893.893v3.571c0 .493-.4.893-.893.893zm-4.464-1.786h3.571v-1.786H5.357v1.786zM20.536 22.2h-5.358a.893.893 0 0 1-.892-.893v-3.571c0-.493.4-.893.893-.893h5.357c.492 0 .892.4.892.893v3.571c0 .493-.4.893-.892.893z" fill="#43B97F"></path></svg>