<svg xmlns="http://www.w3.org/2000/svg" width="545" height="369" viewBox="0 0 545 369" fill="none"><path fill-rule="evenodd" clip-rule="evenodd" d="M256.408 12.994c-27.606 10.736-53.856 33.726-74.52 55.16-43.045 44.633-49.477 54.016-102.57 91.488-30.951 21.841-55.352 40.311-67.375 65.016-33.772 69.391 6.454 144.34 90.744 144.34h342.651s40.299.964 69.719-36.138c99.688-125.708-65.654-394.932-258.649-319.866z" fill="#232625"></path><g clip-path="url(#1fjiqrlg4a)"><path d="M274.893 157.107 288.489 45.95a5.233 5.233 0 0 1 5.2-4.594h167.837a5.241 5.241 0 0 1 5.003 3.68c.219.707.287 1.453.196 2.188l-13.603 111.138a5.239 5.239 0 0 1-5.199 4.6H280.085a5.234 5.234 0 0 1-3.913-1.763 5.246 5.246 0 0 1-1.079-1.909 5.236 5.236 0 0 1-.2-2.183z" fill="#B3C0EC"></path><path d="M444.778 157.472h-160.67a3.258 3.258 0 0 1-2.443-1.098 3.259 3.259 0 0 1-.802-2.553l12.732-104.048a3.273 3.273 0 0 1 3.245-2.861h160.67a3.262 3.262 0 0 1 3.116 2.288c.137.441.178.905.122 1.363l-12.732 104.028a3.265 3.265 0 0 1-3.238 2.881z" fill="#fff"></path><path d="M431.388 51.001c7.479 0 12.698 6.054 11.655 13.522-1.044 7.468-7.979 13.529-15.438 13.529-7.46 0-12.679-6.054-11.655-13.516 1.023-7.461 7.958-13.535 15.438-13.535z" fill="#6F8FE4"></path><path d="M375.599 64.39h13.397l1.875-13.382h.12c7.48 0 12.699 6.054 11.655 13.522-1.044 7.468-7.978 13.529-15.438 13.529-7.46 0-12.699-6.054-11.655-13.53a.38.38 0 0 0 .046-.138z" fill="url(#ctjjhjmelb)"></path><path d="m357.581 53.072-.119.87h-35.949l.119-.87h35.949zM356.97 57.447l-.12.87h-35.949l.12-.87h35.949zM356.358 61.822l-.119.87H320.29l.119-.87h35.949zM355.746 66.196l-.119.87h-35.949l.119-.87h35.949zM355.135 70.578l-.12.863h-35.949l.12-.863h35.949zM354.523 74.952l-.119.87h-35.949l.119-.87h35.949zM440.018 88.527l-.126.87h-35.943l.12-.87h35.949zM439.526 92.025l-.12.87h-35.949l.12-.87h35.949zM439.034 95.53l-.12.87h-35.949l.126-.87h35.943zM438.548 99.029l-.12.87h-35.949l.12-.87h35.949zM438.056 102.527l-.119.87h-35.949l.119-.87h35.949zM373.551 88.527l-.119.87h-16.821l.12-.87h16.82zM373.06 92.025l-.12.87h-16.821l.126-.87h16.815zM372.574 95.53l-.119.87h-16.821l.119-.87h16.821zM317.271 99.666l14.288-9.738 15.657 16.018h17.745l15.419 19.112h-76.366l6.11-43.713 7.147 18.321z" fill="#B3C0EC"></path><path d="m315.768 110.42 5.884-5.616 16.609 9.241h18.43l23.689 11.013h-76.366l3.523-25.2 8.231 10.562z" fill="#E2E9FB"></path><path d="m438.096 117.623-5.06 36.151h-.87l5.059-36.151h.871zM421.727 117.623l-5.053 36.151h-.871l5.053-36.151h.871zM405.365 117.623l-5.059 36.151h-.865l5.053-36.151h.871zM389.003 117.623l-5.06 36.151h-.871l5.06-36.151h.871z" fill="#B3C0EC"></path><path d="m439.2 119.183-.12.869h-52.617l.12-.869H439.2zM437.697 129.937l-.119.862H384.96l.12-.862h52.617zM436.195 140.684l-.12.87h-52.617l.12-.87h52.617zM434.692 151.438l-.126.863h-52.617l.126-.863h52.617z" fill="#B3C0EC"></path><path d="M351.764 141.122a6.191 6.191 0 0 0 3.587 6.772c.844.374 1.76.555 2.683.53a8.68 8.68 0 0 0 5.469-2.157 8.659 8.659 0 0 0 2.835-5.145 6.192 6.192 0 0 0-3.587-6.772 6.206 6.206 0 0 0-2.683-.53 8.686 8.686 0 0 0-5.469 2.158 8.661 8.661 0 0 0-2.835 5.144zm4.355 0a3.485 3.485 0 0 1 3.324-2.927 2.502 2.502 0 0 1 1.957.866 2.479 2.479 0 0 1 .563 2.061 3.485 3.485 0 0 1-3.324 2.928 2.502 2.502 0 0 1-1.939-.877 2.496 2.496 0 0 1-.554-2.051h-.027z" fill="#D3DDF8"></path><path d="M331.153 141.122a6.186 6.186 0 0 0 6.27 7.302 8.647 8.647 0 0 0 5.472-2.152 8.629 8.629 0 0 0 2.825-5.15 6.172 6.172 0 0 0-1.388-5.141 6.196 6.196 0 0 0-4.875-2.161 8.647 8.647 0 0 0-5.475 2.15 8.632 8.632 0 0 0-2.829 5.152zm4.348 0a3.485 3.485 0 0 1 3.325-2.927 2.498 2.498 0 0 1 1.961.863 2.494 2.494 0 0 1 .565 2.064 3.492 3.492 0 0 1-3.324 2.928 2.51 2.51 0 0 1-1.967-.861 2.498 2.498 0 0 1-.573-2.067h.013z" fill="#E2E9FB"></path><path d="M310.49 141.122a6.177 6.177 0 0 0 1.388 5.142 6.196 6.196 0 0 0 4.875 2.16 8.647 8.647 0 0 0 5.475-2.15 8.626 8.626 0 0 0 2.829-5.152 6.192 6.192 0 0 0-3.587-6.772 6.206 6.206 0 0 0-2.683-.53 8.631 8.631 0 0 0-8.297 7.302zm4.348 0a3.485 3.485 0 0 1 3.324-2.927 2.496 2.496 0 0 1 2.475 1.833c.098.356.116.73.052 1.094a3.485 3.485 0 0 1-3.325 2.928 2.485 2.485 0 0 1-2.526-2.928z" fill="url(#e9236xbvic)"></path><path d="M403.065 129.591c2.606 5.457 5.318 11.099 15.245 11.099 13.962 0 14.494 11.471 14.494 11.584l-.871.06c0-.438-.539-10.781-13.656-10.781-10.472 0-13.411-6.147-15.997-11.57-2.334-4.879-4.541-9.493-11.795-9.493v-.869c7.819.013 10.239 5.065 12.58 9.97z" fill="url(#a72dn6f8wd)"></path><path d="M400.299 139.117c2.906 3.127 5.911 6.353 16.708 6.353 14.959 0 15.744 6.506 15.771 6.778l-.871.119c0-.06-.818-6.027-14.926-6.027-11.177 0-14.302-3.366-17.327-6.639-2.599-2.794-5.059-5.436-12.965-5.436v-.87c8.338.02 10.911 2.788 13.61 5.722z" fill="#D3DDF8"></path><path d="M169.452 267.282h33.735a7.314 7.314 0 0 1 6.908 6.214l11.303 88.567h-2.846l-11.236-88.156a4.403 4.403 0 0 0-4.115-3.704h-33.749a4.387 4.387 0 0 0-4.109 3.704l-11.236 88.156h-2.845l11.302-88.567a7.301 7.301 0 0 1 2.33-4.338 7.324 7.324 0 0 1 4.558-1.876z" fill="url(#whgdl0soee)"></path><path d="m165.43 267.282 31.395.126c3.324 0 10.797 2.656 11.302 6.074l10.532 88.581h-4.142l-11.203-88.149c-.293-1.992-5.213-3.711-7.174-3.711h-29.999c-1.961 0-2.047 1.992-2.34 4.029l-10.797 87.831h-5.791l11.303-88.581a7.293 7.293 0 0 1 2.344-4.337 7.316 7.316 0 0 1 4.57-1.863z" fill="#001A6C"></path><path d="M98.904 267.083h38.516c3.324 0 7.652 2.874 8.144 6.413l10.538 88.567h-4.142l-11.196-88.123a4.492 4.492 0 0 0-1.396-2.65 4.506 4.506 0 0 0-2.753-1.187H99.709c-1.955 0-1.038 1.328-1.33 3.406l-16.23 88.554h-5.258l15.079-88.567c.498-3.539 3.603-6.413 6.934-6.413z" fill="#001A6C"></path><path d="M102.927 267.083h37.71c3.325 0 6.443 2.881 6.928 6.419l11.263 88.561h-2.846l-11.203-88.123a4.479 4.479 0 0 0-4.142-3.837h-37.71c-1.995 0-3.99 1.773-4.362 3.864l-14.74 88.096h-2.899l14.867-88.667c.664-3.485 3.83-6.313 7.134-6.313z" fill="url(#ulysguf76f)"></path><path d="M96.677 264.049h-3.803c-2.394-5.49-6.589-26.433-8.564-42.385-.239-1.912-.425-3.425-.551-4.215l-.233-1.441 2.779-.478c2.626 16.629 9.82 47.862 10.372 48.519z" fill="#001A6C"></path><path d="M98.758 264.049h-2.965c-2.533-5.171-6.855-26.307-8.923-42.903-.232-1.858-.419-3.319-.545-4.115l2.78-.478c1.768 22.065 9.008 46.614 9.653 47.496z" fill="#2647C8"></path><path d="M146.708 220.761c.611 4.647 4.654 26.5 5.983 33.191 1.091 5.437 2.048 8.438 2.766 10.104h-2.845c-2.367-5.862-6.609-26.938-8.717-42.897-.219-1.666-.738-5.144-.738-5.144l2.773-.485s.552 3.538.778 5.231z" fill="#001A6C"></path><path d="M158.163 264.049h-2.918c-2.454-5.357-6.715-26.446-8.737-42.796-.239-1.912-.425-3.426-.551-4.222l2.779-.478c3.025 31.604 8.736 46.315 9.427 47.496z" fill="#2647C8"></path><path d="M72.915 157.685h56.42c5.319 0 10.352 4.082 11.136 9.081l7.4 51.274a245.218 245.218 0 0 1-41.221 3.478c-22.951 0-31.608-3.478-31.608-3.478l-10.418-51.274c-.785-4.999 2.945-9.081 8.29-9.081z" fill="#1D3599"></path><path d="M77.715 157.685h56.427c5.319 0 10.345 4.082 11.13 9.081l10.431 51.274a310.82 310.82 0 0 1-44.24 3.478c-22.944 0-31.607-3.478-31.607-3.478L69.43 166.766c-.785-4.999 2.945-9.081 8.284-9.081z" fill="#2647C8"></path><path d="M157.724 263.16v.458c0 3.637-2.061 6.591-4.601 6.591h-58.98c-2.54 0-4.607-2.954-4.607-6.591 0-.153 0-.299.033-.458h68.155z" fill="#1D3599"></path><path d="M215.468 263.16c0 .159.039.305.039.458 0 3.637-2.347 6.591-5.239 6.591H140.93c-2.892 0-5.239-2.954-5.239-6.591v-.458h79.777z" fill="#2647C8"></path><path d="M150.81 153.237c7.313 6.638 41.846 18.886 48.767 21.754 8.331 3.458 15.89-4.78 11.595-11.836-3.656-6.015-44.738-27.217-50.11-28.598-9.687-2.483-19.394 10.349-10.252 18.68z" fill="#FBBCBE"></path><path d="M180.789 170.882a1.425 1.425 0 0 1-1.204 0c-11.741-5.238-29.726-17.459-33.376-20.778-9.175-8.331.559-21.156 10.252-18.68 2.992.763 21.003 8.789 34.839 17.186.322.183.56.482.665.837 1.336 4.879-3.171 17.412-11.176 21.435z" fill="url(#r3h3oeqqcg)"></path><path d="M128.318 112.491s2.799 15.673-4.202 15.833c-7.001.159-19.946 1.938-24.394 8.118-4.448 6.18-9.753 60.468-3.99 99.939 0 0 47.047 14.604 70.091-9.187 0 0 7.267-78.444.212-89.119-5.884-8.902-20.025-8.171-20.025-8.171s-3.989-3.32-2.613-10.847c3.397-18.329-15.079-6.566-15.079-6.566z" fill="url(#nc8hy05hbh)"></path><path d="M128.61 114.642a35.925 35.925 0 0 0-.293-2.151s14.86-9.452 15.498 1.833l-15.205.318z" fill="url(#jbl5jlwyni)"></path><path style="mix-blend-mode:multiply" d="M99.722 136.442a12.75 12.75 0 0 1 3.703-3.279l13.071 53.631 49.359 40.38c-23.044 23.778-70.063 9.207-70.063 9.207-5.824-39.471-.525-93.758 3.93-99.939z" fill="url(#5c43tqf72j)"></path><path d="M118.544 128.715c5.505 9.785 15.159 15.175 23.689 12.44 4.9-1.566 8.53-5.529 10.511-10.72a31.83 31.83 0 0 0-6.701-.525s-3.99-3.352-2.607-10.853c3.365-18.329-15.125-6.566-15.125-6.566s2.805 15.673-4.196 15.833a59.761 59.761 0 0 0-5.571.391z" fill="#FBBCBE"></path><path d="M118.544 128.715c5.505 9.785 15.159 15.175 23.689 12.44 4.9-1.566 8.53-5.529 10.511-10.72a31.83 31.83 0 0 0-6.701-.525s-3.99-3.352-2.607-10.853c3.365-18.329-15.125-6.566-15.125-6.566s2.805 15.673-4.196 15.833a59.761 59.761 0 0 0-5.571.391z" fill="#FBBCBE"></path><path d="M152.392 88.733a41.308 41.308 0 0 1 2.4 22.57c-1.502 7.189-7.167 11.119-13.962 11.285-6.815.153-12.459-4.959-12.632-11.411v-.538s-7.068-.338-7.234-7.501c-.166-7.163 4.614-4.348 4.614-4.348l-.212-9.453 27.026-.604z" fill="#FBBCBE"></path><path d="M125.751 99.055s2.207 6.373 3.411-1.453c1.203-7.827 3.617-7.535 12.353-7.156 8.736.378 20.95-3.154 16.003-13.781-4.867-10.449-23.37-2.224-23.37-2.224s-13.756-3.817-15.803 7.01c-2.048 10.827 7.406 17.604 7.406 17.604z" fill="#030925"></path><path d="M99.297 138.553c-5.911 7.966-14.774 44.251-16.948 51.407-2.62 8.629 4.435 15.527 11.037 10.561 5.631-4.222 26.362-49.216 27.199-54.686 1.51-9.878-13.895-17.219-21.288-7.282z" fill="#FBBCBE"></path><path d="M85.82 170.443a1.254 1.254 0 0 1-.492-1.427c4.348-13.409 10.351-26.765 13.662-31.2 8.045-10.807 24.474-1.825 22.832 8.909-.399 2.655-5.738 15.932-11.562 28.637a1.224 1.224 0 0 1-1.044.731c-9.98.663-20.345-3.625-23.396-5.65z" fill="url(#8u9fiyt6ak)"></path><path d="M301.281 293.437s-1.768 3.399-9.607-2.489c-8.51-6.393-19.042-10.993-19.042-10.993l4.388-8.205c8.644 6.114 17.167 8.809 18.55-6.041" fill="#FBBCBE"></path><path d="M294.819 280.081c-1.716-2.224-5.366-.664-5.871-2.795a.624.624 0 0 1 .465-.764c3.178-.604 5.492-3.684 6.157-10.813.518-5.523 6.083-7.196 8.211-7.634a.61.61 0 0 1 .541.143.615.615 0 0 1 .204.521l-3.232 34.518a.555.555 0 0 1-.133.332c-.485.584-2.539 2.198-8.457-1.911a.67.67 0 0 1-.266-.605c.619-3.591 5.1-7.474 2.381-10.992z" fill="#030925"></path><path d="M95.4 231.821c-3.012 18.381 14.222 33.596 37.439 31.047 23.217-2.549 59.717-20.114 76.459-23.699 0 0 21.275-26.905 7.193-32.852-35.084-14.844-121.09 25.504-121.09 25.504z" fill="#120D80"></path><path d="M220.228 209.304c7.639 8.364 50.29 54.832 62.437 63.495a2.048 2.048 0 0 1 .665 2.489 77.383 77.383 0 0 1-9.448 16.41 2.07 2.07 0 0 1-2.899.372c-9.899-7.561-62.463-47.796-68.361-53.239-11.748-10.874 9.003-25.943 14.9-29.872a2.055 2.055 0 0 1 2.706.345z" fill="#120D80"></path><path d="M132.839 262.861s51.4 6.897 68.215 5.742c8.104-.564 36.7-8.497 29.4-27.389-7.3-18.893-58.029-5.842-97.615 21.647z" fill="#02126A"></path><path d="M226.225 236.195c-31.434-6.439-47.757 9.207-45.15 18.78 4.062 14.916 26.248 11.411 27.458 12.214a42.345 42.345 0 0 1-7.479 1.414c-16.815 1.155-68.215-5.742-68.215-5.742 35.257-24.482 78.706-37.718 93.386-26.666z" fill="#040D38"></path><path d="M260.977 353.155c-11.409-1.441-14.627-15.872-16.502-22.922l-10.737 4.096s6.396 12.061 5.897 20.273c-.499 8.211 1.848 7.441 1.848 7.441h34.035s-3.138-7.454-14.541-8.888z" fill="#FBBCBE"></path><path d="M260.977 353.155a14.272 14.272 0 0 1-8.763-4.86c-1.143-1.599-6.715.166-7.639 3.266a8.135 8.135 0 0 1-4.926 1.375v1.666c-.492 8.211 1.848 7.441 1.848 7.441h34.034s-3.151-7.455-14.554-8.888z" fill="#030925"></path><path d="M231.703 246.153c1.995 10.223 13.298 69.038 18.065 89.616a1.43 1.43 0 0 1-.791 1.6c-2.773 1.288-10.505 4.547-16.669 3.983a1.444 1.444 0 0 1-1.183-.81c-3.67-7.601-35.437-74.534-23.337-85.268 5.884-5.211 17.892-9.022 22.114-10.25a1.42 1.42 0 0 1 1.154.16 1.424 1.424 0 0 1 .647.969z" fill="#02126A"></path><path d="M87.15 187.138c12.286-2.037 50.967 3.286 57.669-.418 6.702-3.704 19.241-5.974 23.809-2.157 4.568 3.817 1.503 7.428-3.524 10.302-3.198 1.819-6.928 3.319-15.398 2.337-8.47-.982-44.466 6.638-56.972 6.93-12.42.266-13.915-15.613-5.585-16.994zM197.437 161.223c10.571-6.565 44.545-14.823 49.339-20.804 4.794-5.981 11.695-11.285 17.379-9.5 5.798 1.826 8.285 7.727.665 10.86-3.397 1.408-5.119 5.743-13.337 8.033-8.217 2.29-30.949 19.974-42.405 24.986-11.342 4.972-18.795-9.134-11.641-13.575z" fill="#FBBCBE"></path><path d="M56.845 216.891h-7.227v145.172h7.227V216.891z" fill="url(#sa6fv5c8el)"></path><path d="M359.769 362.056h-6.423V216.891h6.423v145.165zM129.029 213.147H40.616v3.737h88.413v-3.737z" fill="#02126A"></path><path d="M494.855 213.147H129.022v3.737h365.833v-3.737z" fill="#1D3599"></path><path d="M148.563 216.891h-8.118v145.172h8.118V216.891z" fill="url(#aactibwjrm)"></path><path d="M480.607 362.056h-7.233V216.891h7.233v145.165z" fill="url(#efd3jrl3kn)"></path><path d="M109.256 206.489H22.729a1.47 1.47 0 0 0-1.48 1.461v3.737c0 .807.662 1.46 1.48 1.46h86.527a1.47 1.47 0 0 0 1.481-1.46v-3.737c0-.807-.663-1.461-1.481-1.461z" fill="#2647C8"></path><path d="M510.865 213.147H109.191V206.509h401.674a3.34 3.34 0 0 1 2.376.958 3.306 3.306 0 0 1 .988 2.361 3.313 3.313 0 0 1-2.08 3.078 3.303 3.303 0 0 1-1.284.241z" fill="#6F8FE4"></path><path d="M222.615 206.044a.433.433 0 0 1-.129.317.442.442 0 0 1-.317.128h-76.838a.893.893 0 0 1-.632-.259.899.899 0 0 1-.193-.289.909.909 0 0 1-.066-.342v-2.137h78.175v2.582z" fill="#D3DDF8"></path><path d="M154.48 202.559v.903h-2.739v-1.202h2.44a.298.298 0 0 1 .276.185.298.298 0 0 1 .023.114zM157.664 202.559v.903h-2.746v-1.202h2.447a.298.298 0 0 1 .299.299zM160.843 202.559v.903h-2.739v-1.202h2.44a.3.3 0 0 1 .299.299zM174.107 202.559v.903h-2.746v-1.202h2.447a.3.3 0 0 1 .299.299zM177.291 202.559v.903h-2.746v-1.202h2.44a.31.31 0 0 1 .214.087.3.3 0 0 1 .092.212zM214.643 202.559v.903h-2.739v-1.202h2.44a.298.298 0 0 1 .276.185.298.298 0 0 1 .023.114zM217.828 202.559v.903h-2.746v-1.202h2.447a.3.3 0 0 1 .299.299zM170.829 202.559v.903h-9.434v-1.202h9.135a.3.3 0 0 1 .299.299zM228.16 202.559v.903h-9.434v-1.202h9.135a.3.3 0 0 1 .299.299zM211.166 202.559v.903h-32.751v-1.202h32.452a.298.298 0 0 1 .276.185.298.298 0 0 1 .023.114z" fill="#151618"></path><path d="M238.279 202.26h6.649a.665.665 0 0 1 .665.664v.525h-7.613v-.903a.302.302 0 0 1 .299-.286z" fill="url(#wh9fwfua7o)"></path><path d="M247.467 202.26h6.649a.665.665 0 0 1 .665.664v.525h-7.613v-.903a.302.302 0 0 1 .299-.286z" fill="url(#nj9jwhm8bp)"></path><path d="M256.649 202.26h6.649a.665.665 0 0 1 .665.664v.525h-7.613v-.903a.302.302 0 0 1 .299-.286z" fill="url(#col5tuc9xq)"></path><path d="M265.837 202.26h6.649a.665.665 0 0 1 .665.664v.525h-7.613v-.903a.302.302 0 0 1 .299-.286z" fill="url(#5jheczjh8r)"></path><path d="M276.635 202.26h3.484a.665.665 0 0 1 .665.664v.525h-4.455v-.903a.301.301 0 0 1 .306-.286z" fill="url(#slmkrzqxrs)"></path><path d="M282.067 202.26h3.477a.665.665 0 0 1 .665.664v.525h-4.461v-.903a.3.3 0 0 1 .319-.286z" fill="url(#ctnv62yrrt)"></path><path d="M287.166 202.261h3.477a.664.664 0 0 1 .665.663v.525h-4.454v-.903a.293.293 0 0 1 .096-.207.302.302 0 0 1 .216-.078z" fill="url(#ydwkrccl0u)"></path><path d="M227.488 145.749c.665-2.436 2.474-3.883 5.319-3.883l-17.466 64.271s-3.384-.962-2.546-4.248c.678-2.742 11.05-43.009 14.693-56.14z" fill="#DBE5FF"></path><path d="M233.107 141.866h81.837a1.76 1.76 0 0 1 1.716 1.389c.056.26.051.53-.014.788l-15.065 59.419h-86.027l15.146-59.744c.138-.532.45-1.002.886-1.337.435-.336.97-.517 1.521-.515z" fill="#D3DDF8"></path><path d="M301.268 206.044a.448.448 0 0 1-.13.315.448.448 0 0 1-.315.13h-84.438a.892.892 0 0 1-.649-.249.878.878 0 0 1-.268-.641v-2.137h85.767l.033 2.582z" fill="#91ACF5"></path><path d="M280.431 198.875h22.353l1.576-6.373h-23.151a1.714 1.714 0 0 0-1.655 1.274l-.778 2.961a1.706 1.706 0 0 0 .305 1.473 1.706 1.706 0 0 0 1.35.665z" fill="#B3C0EC"></path><path d="M277.692 198.895c6.988 0 9.973 6.412 15.777 3.863 5.804-2.549 8.517-2.409 8.244-7.249-.272-4.839-4.188-4.447-12.12-4.447-7.732 0-22.266 7.833-11.901 7.833zM352.542 351.502c14.281 0 4.601-17.187 1.442-26.221l13.584-3.187c3.636 9.042.791 18.09 8.098 30.065 5.199 8.51-.898 9.878-.898 9.878h-34.194s0-10.535 11.968-10.535z" fill="#FBBCBE"></path><path d="M352.542 351.501c4.055 0 6.176-1.387 7.061-3.578 2.659-.524 2.539 1.056 4.354 2.39 5.392 3.983 10.911.538 11.709 1.846 5.199 8.51-.898 9.877-.898 9.877h-34.194s0-10.535 11.968-10.535z" fill="#030925"></path><path d="M285.318 350.234c11.482-3.592 19.487-21.07 23.483-30.437l13.397 5.444c-3.045 4.434-10.578 11.577-12.068 26.918-1.063 10.907-3.989 9.878-3.989 9.878h-37.152s4.853-8.212 16.329-11.803z" fill="#FBBCBE"></path><path d="M285.318 350.234c3.47-1.082 6.648-3.439 9.427-6.446.851-.929 1.762 3.06 2.746 4.361 1.995 2.616 10.352 3.711 12.885 1.919-.126.756-.179 1.38-.246 2.091-1.063 10.906-3.989 9.877-3.989 9.877h-37.152s4.853-8.211 16.329-11.802z" fill="#030925"></path><path d="M399.986 257.179h4.761l-16.03 104.877h-4.76l16.029-104.877z" fill="url(#2nrujjkmpv)"></path><path d="M343.992 257.179h4.767l-16.037 104.877h-4.76l16.03-104.877z" fill="url(#g0j4nf9j6w)"></path><path d="M339.351 240.331c-3.058 7.866-29.194 74.959-33.967 85.301a.959.959 0 0 0 .186 1.089c1.509 1.507 6.476 5.975 12.878 6.393a.95.95 0 0 0 .871-.452c3.896-6.226 44.546-71.235 48.495-78.862 3.77-7.256-22.406-13.038-27.366-14.06a.962.962 0 0 0-1.097.591z" fill="url(#x62iiggfex)"></path><path d="M328.201 251.696c2.553 7.428 24.427 71.069 27.619 81.026a.587.587 0 0 0 .551.418c1.822.073 9.009.067 14.182-4.348a.615.615 0 0 0 .206-.557c-.711-4.999-9.188-64.259-11.588-72.563-2.268-7.84-25.93-5.311-30.464-4.766a.607.607 0 0 0-.529.526.607.607 0 0 0 .023.264z" fill="url(#bzt057ilpy)"></path><path d="M385.1 118.785s4.794.61 5.419 4.109c.625 3.498-1.443 6.857-1.443 6.857s10.206 2.688 19.281-.81c0 0-4.614-9.081-4.701-18.753-.086-9.672-18.556 8.597-18.556 8.597z" fill="#FBBCBE"></path><path d="M373.777 89.96a52.11 52.11 0 0 0-2.586 9.016c-.751 4.427.618 14.883 5.685 20.831 5.066 5.947 16.654-.664 19.327-7.867 2.673-7.202.319-12.838-3.404-16.137-3.723-3.3-19.022-5.842-19.022-5.842z" fill="#FBBCBE"></path><path d="M379.422 94.31s2.035 1.99 2.919 6.538c.884 4.547 1.722 7.063 3.278 4.029 1.556-3.033 1.994-7.88 5.937-4.965 2.613 1.925 2.566 5.729 1.769 7.807-.798 2.077 1.841 6.638 7.267 4.919 5.425-1.72 9.015-16.384 9.015-16.384s-24.826-7.76-30.185-1.945z" fill="#0C1540"></path><path d="M376.956 75.895s-7.314 1.819-7.979 7.966c-.598 5.49 2.367 10.84 12.121 10.408 9.753-.431 10.398 5.636 15.551 7.256 5.153 1.62 10.338.1 12.818-4.972 2.573-5.258 1.776-11.67-4.554-16.874-6.329-5.205-27.279-12.627-27.957-3.784z" fill="#0C1540"></path><path d="M445.257 211.242c0 12.208 13.058 41.881-12.546 41.602-25.604-.279-103.991 0-103.991 0s-5.319-10.508 1.921-17.093c7.241-6.586 51.248-16.224 56.613-22.929 5.366-6.705 58.003-1.58 58.003-1.58z" fill="url(#9pjkc13v2z)"></path><path style="mix-blend-mode:multiply" d="M400.658 247.752c45.762 0 32.811-35.807 33.243-37.426 6.688.458 11.342.916 11.342.916 0 12.208 13.058 41.88-12.546 41.602-18.303-.199-63.72-.113-88.027-.047 2.759-.657 49.765-5.045 55.988-5.045z" fill="url(#mvbhepepaA)"></path><path d="M386.63 129.147c-5.08.245-13.49 7.036-13.49 17.385 0 13.675 2.513 32.767 8.689 42.445 6.177 9.679-5.558 21.243 4.801 25.425 10.358 4.182 58.335 4.753 60.176-2.251 1.842-7.003-8.244-54.613-11.11-64.032-2.865-9.42-7.931-16.178-11.774-17.864-3.843-1.686-27.978-1.553-37.292-1.108z" fill="#2647C8"></path><path d="M439.858 200.03c.266-5.902.798-12.261-.512-18.023-9.102-40.062-19.208-44.29-23.27-47.795-4.787-4.103-10.545-1.401-16.908-1.62-8.643-.286-11.814-3.492-11.887-3.499 9.753-.424 32.864-.477 36.62 1.156 3.757 1.633 8.936 8.503 11.775 17.843 2.839 9.34 12.945 57.029 11.11 64.033-.811 3.073-10.492 4.686-21.98 5.178 8.164-1.939 14.62-7.522 15.052-17.273z" fill="#1D3599"></path><path d="M386.629 129.147c3.092-1.6 5.798-.432 8.644-3.187 5.099-4.932 12.393-4.547 12.393-4.547l7.925 7.78s-18.198 7.269-28.962-.046z" fill="#2846A5"></path><path d="M388.079 130.733c-4.122-3.697-14.627 1.368-21.788 10.542-7.16 9.174-22.16 43.872-25.929 51.778-3.504 7.355 7.18 20.174 18.875 8.338s20.531-30.098 24.706-43.109c4.176-13.011 8.61-23.533 4.136-27.549z" fill="#2647C8"></path><path d="M394.209 204.65h71.805a3.69 3.69 0 0 0 3.517-2.868l5.073-20.273a3.661 3.661 0 0 0-.562-3.148 3.661 3.661 0 0 0-2.829-1.499h-71.805a3.687 3.687 0 0 0-3.517 2.861l-5.066 20.28a3.63 3.63 0 0 0 .556 3.148 3.657 3.657 0 0 0 2.828 1.499z" fill="#6F8FE4"></path><path d="M396.31 204.65h69.81a3.48 3.48 0 0 0 3.378-2.655l4.587-18.74a3.473 3.473 0 0 0-.643-2.967 3.483 3.483 0 0 0-2.734-1.328h-69.844a3.474 3.474 0 0 0-3.377 2.655l-4.588 18.74a3.465 3.465 0 0 0 1.88 3.956 3.478 3.478 0 0 0 1.531.339z" fill="#D3DDF8"></path><path d="M328.035 258.467h51.168a2.817 2.817 0 0 0 2.819-2.815 2.817 2.817 0 0 0-2.819-2.814h-51.168a2.817 2.817 0 0 0-2.819 2.814 2.817 2.817 0 0 0 2.819 2.815z" fill="#2647C8"></path><path d="M391.144 257.179h-4.761l16.037 104.877h4.76l-16.036-104.877z" fill="url(#0l0qwk4cfB)"></path><path d="M447.138 257.179h-4.76l16.036 104.877h4.761l-16.037-104.877z" fill="url(#17whic911C)"></path><path d="M379.994 258.467h72.782v-5.629h-72.782v5.629z" fill="#6F8FE4"></path><path d="M387.706 256.641a1.994 1.994 0 0 0 1.902-1.474l17.04-66.349a1.993 1.993 0 0 0-2.977-2.446 1.99 1.99 0 0 0-.826 1.47l-17.04 66.382a1.984 1.984 0 0 0 .222 1.476c.263.445.689.77 1.187.908.162.033.327.044.492.033z" fill="#B3C0EC"></path><path d="M389.661 256.641a2 2 0 0 0 1.198-.418c.344-.266.591-.637.703-1.056l17.041-66.349a1.984 1.984 0 0 0-.014-1.686 1.986 1.986 0 0 0-1.304-1.071 1.984 1.984 0 0 0-1.659.311 1.987 1.987 0 0 0-.826 1.47l-17.041 66.382a1.96 1.96 0 0 0 .211 1.487 1.96 1.96 0 0 0 1.206.897c.159.033.322.044.485.033z" fill="#fff"></path><path d="M443.275 256.641a1.997 1.997 0 0 0 1.895-1.474l17.047-66.349a1.985 1.985 0 0 0-.546-2.366 1.992 1.992 0 0 0-1.635-.42 2 2 0 0 0-1.372.983 1.99 1.99 0 0 0-.25.827l-17.047 66.382a1.99 1.99 0 0 0 1.416 2.384c.162.033.328.044.492.033z" fill="#B3C0EC"></path><path d="M445.237 256.641a1.994 1.994 0 0 0 1.902-1.474l17.04-66.349a1.993 1.993 0 0 0-2.977-2.446 1.987 1.987 0 0 0-.826 1.47l-17.04 66.382a1.959 1.959 0 0 0 1.409 2.384c.162.033.327.044.492.033z" fill="#fff"></path><path d="M350.275 206.197c-11.914 1.487-31.076 0-55.13-.724 0 0-2.859-9.247.897-15.5 0 0 45.829-2.516 50.716-2.39 4.887.126 15.917 17.061 3.517 18.614z" fill="#2647C8"></path><path d="M491.378 362.057H36.141a3.473 3.473 0 0 0-3.477 3.468 3.473 3.473 0 0 0 3.477 3.469h455.237a3.472 3.472 0 0 0 3.477-3.469 3.472 3.472 0 0 0-3.477-3.468z" fill="#1A2C64"></path><path d="M108.491 213.698s-26.228 8.829-22.671 38.993c3.557 30.165-1.57 66.987-1.57 66.987h14.953s26.635-35.847 7.008-62.718c-19.627-26.872 2.28-43.262 2.28-43.262z" fill="#02126A"></path><path d="M106.431 215.583c-4.774 3.93-18.656 18.229-3.697 41.895 17.778 28.119-11.203 62.107-11.203 62.107l-7.18-.485-.074.578H99.23s26.634-35.847 7.008-62.718c-15.764-21.561-4.774-36.371.193-41.377z" fill="#6F8FE4"></path><path opacity=".44" d="M107.434 214.601c.665-.591 1.057-.903 1.057-.903a32.154 32.154 0 0 0-5.558 2.715 33.424 33.424 0 0 1 4.501-1.812z" fill="#4900BC"></path><path d="M79.79 286.288c1.402-26.799.319-30.145-10.113-38.993-10.432-8.849-25.138-23.394-25.138-23.394 10.012 19.796 9.813 28.79 11.701 43.355 1.456 11.285 18.457 33.855 26.01 43.401-1.67-3.877-3.159-11.066-2.46-24.369z" fill="#1D3599"></path><path d="M85.82 315.097s-1.403-1.686-3.584-4.441c1.709 3.923 3.584 4.441 3.584 4.441z" fill="url(#8u4xgw087D)"></path><path d="M74.716 273.821c-5.205 22.265 5.865 37.221 5.865 37.221h10.917c-.04-7.674.511-15.029 4.135-22.471.19-.387.413-.758.665-1.109a80.715 80.715 0 0 0-5.16-2.177c-20.158-7.727-11.216-33.722-16.422-11.464z" fill="#02126A"></path><path d="M103.02 279.424c-11.084 5.596-7.892 29.593-7.892 29.593l10.418 3.731s-1.875-10.934 5.206-19.464 11.748-5.257 11.748-5.257-8.397-14.206-19.48-8.603zM49.917 268.092c-18.616 0-29.014 11.192-29.014 11.192s7.24-3.671 20.198-3.193c12.958.478 12.021 11.464 22.433 21.727 10.411 10.263 19.095 11.73 19.095 11.73s-13.796-19.915-23.902-33.457c-1.815-2.383-.08-7.999-8.81-7.999z" fill="#1D3599"></path><path d="M17.266 283.114c-.043.098-.074.2-.093.305 0 0 .026-.113.093-.305z" fill="#FAF9FC"></path><path d="M64.97 280.088c-3.47-4.647.133-16.131-22.034-13.463-20.238 2.436-24.998 14.425-25.67 16.49.512-1.328 3.75-6.752 23.27-11.159 22.433-5.065 10.545 6.532 20.697 13.867 10.153 7.335 18.424 21.057 18.424 21.057s5.737 9.598 4.401 1.599c-1.336-7.999-15.618-23.725-19.088-28.391zM133.73 290.085c-10.146-20.659-22.42-19.318-30.584-14.797-11.575 6.412-9.674 33.191-9.674 33.191l1.662.538s.266-5.198 1.157-14.133c.891-8.935 5.253-21.614 19.408-3.983 14.154 17.631 34.18 20.778 34.18 20.778s-6.004-.93-16.149-21.594z" fill="#6F8FE4"></path><path d="M106.896 264.348c-3.185-2.336-6.423-1.931-8.923-.896a10.65 10.65 0 0 1-9.627-.876c-10.67-6.446-11.489 2.416-11.489 2.416l.286 2.397c.01.025.01.054 0 .079.765 4.448 3.265 13.695 13.962 17.804 1.909.737 18.696 7.999 18.696 7.999-2.247-9.181 3.63-24.11-2.905-28.923z" fill="#6F8FE4"></path><path d="M78.825 362.07h17.812c3.144 0 6.159-1.247 8.382-3.467a11.827 11.827 0 0 0 3.472-8.369v-43.487h-41.52v43.487c0 3.139 1.249 6.149 3.472 8.369a11.863 11.863 0 0 0 8.382 3.467z" fill="#2647C8"></path><path d="M109.547 306.747H65.929a3 3 0 1 0 0 6.001h43.618a3 3 0 0 0 0-6.001z" fill="url(#5866gyckwE)"></path><ellipse cx="271.44" cy="170.497" rx="2.775" ry="3.505" transform="rotate(9.234 271.44 170.497)" fill="#fff"></ellipse></g><defs><linearGradient id="ctjjhjmelb" x1="375.44" y1="64.523" x2="402.799" y2="64.523" gradientUnits="userSpaceOnUse"><stop stop-color="#FFD000"></stop><stop offset="1" stop-color="#FF7300"></stop></linearGradient><linearGradient id="e9236xbvic" x1="310.416" y1="141.122" x2="325.13" y2="141.122" gradientUnits="userSpaceOnUse"><stop stop-color="#FFD000"></stop><stop offset="1" stop-color="#FF7300"></stop></linearGradient><linearGradient id="a72dn6f8wd" x1="390.485" y1="135.977" x2="432.804" y2="135.977" gradientUnits="userSpaceOnUse"><stop stop-color="#FFD000"></stop><stop offset="1" stop-color="#FF7300"></stop></linearGradient><linearGradient id="whgdl0soee" x1="221.385" y1="314.673" x2="151.262" y2="314.673" gradientUnits="userSpaceOnUse"><stop stop-color="#08339F"></stop><stop offset=".28" stop-color="#0E3AA4"></stop><stop offset=".68" stop-color="#1E4EB1"></stop><stop offset=".99" stop-color="#2E62BE"></stop></linearGradient><linearGradient id="ulysguf76f" x1="158.828" y1="314.573" x2="80.906" y2="314.573" gradientUnits="userSpaceOnUse"><stop stop-color="#08339F"></stop><stop offset=".28" stop-color="#0E3AA4"></stop><stop offset=".68" stop-color="#1E4EB1"></stop><stop offset=".99" stop-color="#2E62BE"></stop></linearGradient><linearGradient id="r3h3oeqqcg" x1="173.156" y1="139.23" x2="163.451" y2="154.605" gradientUnits="userSpaceOnUse"><stop stop-color="#FFD000"></stop><stop offset="1" stop-color="#FF7300"></stop></linearGradient><linearGradient id="nc8hy05hbh" x1="173.774" y1="173.425" x2="91.358" y2="175.076" gradientUnits="userSpaceOnUse"><stop stop-color="#FFD000"></stop><stop offset="1" stop-color="#FF7300"></stop></linearGradient><linearGradient id="jbl5jlwyni" x1="172.869" y1="110.362" x2="87.288" y2="112.076" gradientUnits="userSpaceOnUse"><stop stop-color="#FFD000"></stop><stop offset="1" stop-color="#FF7300"></stop></linearGradient><linearGradient id="5c43tqf72j" x1="127.346" y1="165.387" x2="128.35" y2="215.666" gradientUnits="userSpaceOnUse"><stop stop-color="#fff"></stop><stop offset="1" stop-color="#FF7300"></stop></linearGradient><linearGradient id="8u9fiyt6ak" x1="182.316" y1="132.405" x2="90.573" y2="158.248" gradientUnits="userSpaceOnUse"><stop stop-color="#FFD000"></stop><stop offset="1" stop-color="#FF7300"></stop></linearGradient><linearGradient id="sa6fv5c8el" x1="49.618" y1="290.958" x2="56.845" y2="290.958" gradientUnits="userSpaceOnUse"><stop stop-color="#3C4EF6"></stop><stop offset="1" stop-color="#924CFE"></stop></linearGradient><linearGradient id="aactibwjrm" x1="140.445" y1="290.958" x2="148.563" y2="290.958" gradientUnits="userSpaceOnUse"><stop stop-color="#3C4EF6"></stop><stop offset="1" stop-color="#924CFE"></stop></linearGradient><linearGradient id="efd3jrl3kn" x1="473.374" y1="290.955" x2="480.607" y2="290.955" gradientUnits="userSpaceOnUse"><stop stop-color="#3C4EF6"></stop><stop offset="1" stop-color="#924CFE"></stop></linearGradient><linearGradient id="wh9fwfua7o" x1="245.606" y1="202.858" x2="237.98" y2="202.858" gradientUnits="userSpaceOnUse"><stop stop-color="#AACEFF"></stop><stop offset="1" stop-color="#DBE9FF"></stop></linearGradient><linearGradient id="nj9jwhm8bp" x1="254.794" y1="202.858" x2="247.168" y2="202.858" gradientUnits="userSpaceOnUse"><stop stop-color="#AACEFF"></stop><stop offset="1" stop-color="#DBE9FF"></stop></linearGradient><linearGradient id="col5tuc9xq" x1="263.976" y1="202.858" x2="256.35" y2="202.858" gradientUnits="userSpaceOnUse"><stop stop-color="#AACEFF"></stop><stop offset="1" stop-color="#DBE9FF"></stop></linearGradient><linearGradient id="5jheczjh8r" x1="273.164" y1="202.858" x2="265.538" y2="202.858" gradientUnits="userSpaceOnUse"><stop stop-color="#AACEFF"></stop><stop offset="1" stop-color="#DBE9FF"></stop></linearGradient><linearGradient id="slmkrzqxrs" x1="280.81" y1="202.858" x2="276.349" y2="202.858" gradientUnits="userSpaceOnUse"><stop stop-color="#AACEFF"></stop><stop offset="1" stop-color="#DBE9FF"></stop></linearGradient><linearGradient id="ctnv62yrrt" x1="286.222" y1="202.858" x2="281.768" y2="202.858" gradientUnits="userSpaceOnUse"><stop stop-color="#AACEFF"></stop><stop offset="1" stop-color="#DBE9FF"></stop></linearGradient><linearGradient id="ydwkrccl0u" x1="291.321" y1="202.858" x2="286.867" y2="202.858" gradientUnits="userSpaceOnUse"><stop stop-color="#AACEFF"></stop><stop offset="1" stop-color="#DBE9FF"></stop></linearGradient><linearGradient id="2nrujjkmpv" x1="383.957" y1="310.688" x2="404.747" y2="310.688" gradientUnits="userSpaceOnUse"><stop stop-color="#3C4EF6"></stop><stop offset="1" stop-color="#924CFE"></stop></linearGradient><linearGradient id="g0j4nf9j6w" x1="327.962" y1="310.688" x2="348.759" y2="310.688" gradientUnits="userSpaceOnUse"><stop stop-color="#3C4EF6"></stop><stop offset="1" stop-color="#924CFE"></stop></linearGradient><linearGradient id="x62iiggfex" x1="311.986" y1="327.378" x2="337.898" y2="277.193" gradientUnits="userSpaceOnUse"><stop stop-color="#FFD000"></stop><stop offset="1" stop-color="#FF7300"></stop></linearGradient><linearGradient id="bzt057ilpy" x1="370.766" y1="291.605" x2="328.168" y2="291.605" gradientUnits="userSpaceOnUse"><stop stop-color="#FFD000"></stop><stop offset="1" stop-color="#FF7300"></stop></linearGradient><linearGradient id="9pjkc13v2z" x1="448.588" y1="231.104" x2="326.825" y2="231.104" gradientUnits="userSpaceOnUse"><stop stop-color="#FFD000"></stop><stop offset="1" stop-color="#FF7300"></stop></linearGradient><linearGradient id="mvbhepepaA" x1="438.914" y1="230.513" x2="386.922" y2="245.971" gradientUnits="userSpaceOnUse"><stop stop-color="#fff"></stop><stop offset="1" stop-color="#FF7300"></stop></linearGradient><linearGradient id="0l0qwk4cfB" x1="386.383" y1="310.688" x2="407.18" y2="310.688" gradientUnits="userSpaceOnUse"><stop stop-color="#3C4EF6"></stop><stop offset="1" stop-color="#924CFE"></stop></linearGradient><linearGradient id="17whic911C" x1="442.378" y1="310.688" x2="463.175" y2="310.688" gradientUnits="userSpaceOnUse"><stop stop-color="#3C4EF6"></stop><stop offset="1" stop-color="#924CFE"></stop></linearGradient><linearGradient id="8u4xgw087D" x1="84.597" y1="313.936" x2="83.204" y2="311.61" gradientUnits="userSpaceOnUse"><stop stop-color="#DBEBFF"></stop><stop offset=".53" stop-color="#DDECFF"></stop><stop offset=".74" stop-color="#E4F0FF"></stop><stop offset=".89" stop-color="#F0F7FF"></stop><stop offset="1" stop-color="#fff"></stop></linearGradient><linearGradient id="5866gyckwE" x1="106.982" y1="309.747" x2="71.512" y2="309.747" gradientUnits="userSpaceOnUse"><stop stop-color="#FFD000"></stop><stop offset="1" stop-color="#FF7300"></stop></linearGradient><clipPath id="1fjiqrlg4a"><path fill="#fff" transform="translate(17.173 41.37)" d="M0 0h497.057v327.631H0z"></path></clipPath></defs></svg>